<svg width="210" height="80" viewBox="0 0 210 80" fill="none" xmlns="http://www.w3.org/2000/svg">
<g clip-path="url(#clip0_5444_9793)">
<path d="M59.1471 36.9175L58.9476 36.0616H40.5699V43.9384H51.549C50.4093 49.4205 45.1192 52.3058 40.7978 52.3058C37.6541 52.3058 34.3395 50.969 32.1455 48.8146C29.8946 46.6026 28.4605 43.3421 28.4605 39.9856C28.4605 36.6675 29.9326 33.3494 32.079 31.1661C34.216 28.9925 37.4547 27.7615 40.6743 27.7615C44.3594 27.7615 46.9997 29.7427 47.9874 30.6468L53.515 25.0781C51.8909 23.6355 47.4366 20 40.4939 20C35.1373 20 29.9991 22.0774 26.2475 25.8668C22.5435 29.5985 20.625 34.994 20.625 39.9952C20.625 44.9964 22.439 50.1322 26.0291 53.8928C29.8661 57.9033 35.2987 60 40.8928 60C45.9835 60 50.8082 57.9803 54.2463 54.3159C57.6274 50.7093 59.375 45.7177 59.375 40.4857C59.375 38.2832 59.1566 36.9752 59.1471 36.9175Z" fill="#101010"/>
</g>
<g clip-path="url(#clip1_5444_9793)">
<path d="M73.8143 41.5039L75.4555 34.4733L70 29.7481L77.1858 29.1247L80 22.4962L82.8143 29.1247L90 29.7481L84.5445 34.4733L86.1857 41.5039L80 37.771L73.8143 41.5039Z" fill="#101010"/>
<path d="M98.8143 41.5039L100.455 34.4733L95 29.7481L102.186 29.1247L105 22.4962L107.814 29.1247L115 29.7481L109.545 34.4733L111.186 41.5039L105 37.771L98.8143 41.5039Z" fill="#101010"/>
<path d="M123.814 41.5039L125.455 34.4733L120 29.7481L127.186 29.1247L130 22.4962L132.814 29.1247L140 29.7481L134.545 34.4733L136.186 41.5039L130 37.771L123.814 41.5039Z" fill="#101010"/>
<path d="M148.814 41.5039L150.455 34.4733L145 29.7481L152.186 29.1247L155 22.4962L157.814 29.1247L165 29.7481L159.545 34.4733L161.186 41.5039L155 37.771L148.814 41.5039Z" fill="#101010"/>
<path d="M173.814 41.5039L175.455 34.4733L170 29.7481L177.186 29.1247L180 22.4962L182.814 29.1247L190 29.7481L184.545 34.4733L186.186 41.5039L180 37.771L173.814 41.5039Z" fill="#101010"/>
</g>
<path d="M72.436 49.9779C72.628 49.9379 72.812 49.9099 72.988 49.8939C73.164 49.8739 73.334 49.8639 73.498 49.8639C73.954 49.8639 74.356 49.9319 74.704 50.0679C75.052 50.2039 75.344 50.3919 75.58 50.6319C75.816 50.8719 75.994 51.1539 76.114 51.4779C76.234 51.7979 76.294 52.1439 76.294 52.5159C76.294 52.9759 76.212 53.3959 76.048 53.7759C75.888 54.1559 75.664 54.4819 75.376 54.7539C75.088 55.0219 74.746 55.2299 74.35 55.3779C73.958 55.5259 73.53 55.5999 73.066 55.5999C72.794 55.5999 72.536 55.5719 72.292 55.5159C72.048 55.4599 71.818 55.3859 71.602 55.2939C71.39 55.1979 71.192 55.0899 71.008 54.9699C70.828 54.8459 70.666 54.7159 70.522 54.5799L70.978 53.9499C71.074 53.8139 71.2 53.7459 71.356 53.7459C71.456 53.7459 71.558 53.7779 71.662 53.8419C71.766 53.9059 71.884 53.9759 72.016 54.0519C72.152 54.1279 72.31 54.1979 72.49 54.2619C72.674 54.3259 72.894 54.3579 73.15 54.3579C73.422 54.3579 73.662 54.3139 73.87 54.2259C74.078 54.1379 74.25 54.0159 74.386 53.8599C74.526 53.6999 74.63 53.5119 74.698 53.2959C74.77 53.0759 74.806 52.8379 74.806 52.5819C74.806 52.1099 74.668 51.7419 74.392 51.4779C74.12 51.2099 73.716 51.0759 73.18 51.0759C72.768 51.0759 72.346 51.1519 71.914 51.3039L70.99 51.0399L71.71 46.8279H75.994V47.4579C75.994 47.6699 75.928 47.8419 75.796 47.9739C75.664 48.1059 75.44 48.1719 75.124 48.1719H72.742L72.436 49.9779ZM86.6649 48.4059C86.6169 48.4899 86.5649 48.5519 86.5089 48.5919C86.4569 48.6279 86.3909 48.6459 86.3109 48.6459C86.2269 48.6459 86.1349 48.6159 86.0349 48.5559C85.9389 48.4919 85.8229 48.4219 85.6869 48.3459C85.5509 48.2699 85.3909 48.2019 85.2069 48.1419C85.0269 48.0779 84.8129 48.0459 84.5649 48.0459C84.3409 48.0459 84.1449 48.0739 83.9769 48.1299C83.8089 48.1819 83.6669 48.2559 83.5509 48.3519C83.4389 48.4479 83.3549 48.5639 83.2989 48.6999C83.2429 48.8319 83.2149 48.9779 83.2149 49.1379C83.2149 49.3419 83.2709 49.5119 83.3829 49.6479C83.4989 49.7839 83.6509 49.8999 83.8389 49.9959C84.0269 50.0919 84.2409 50.1779 84.4809 50.2539C84.7209 50.3299 84.9669 50.4119 85.2189 50.4999C85.4709 50.5839 85.7169 50.6839 85.9569 50.7999C86.1969 50.9119 86.4109 51.0559 86.5989 51.2319C86.7869 51.4039 86.9369 51.6159 87.0489 51.8679C87.1649 52.1199 87.2229 52.4259 87.2229 52.7859C87.2229 53.1779 87.1549 53.5459 87.0189 53.8899C86.8869 54.2299 86.6909 54.5279 86.4309 54.7839C86.1749 55.0359 85.8609 55.2359 85.4889 55.3839C85.1169 55.5279 84.6909 55.5999 84.2109 55.5999C83.9349 55.5999 83.6629 55.5719 83.3949 55.5159C83.1269 55.4639 82.8689 55.3879 82.6209 55.2879C82.3769 55.1879 82.1469 55.0679 81.9309 54.9279C81.7149 54.7879 81.5229 54.6319 81.3549 54.4599L81.8289 53.6859C81.8689 53.6299 81.9209 53.5839 81.9849 53.5479C82.0489 53.5079 82.1169 53.4879 82.1889 53.4879C82.2889 53.4879 82.3969 53.5299 82.5129 53.6139C82.6289 53.6939 82.7669 53.7839 82.9269 53.8839C83.0869 53.9839 83.2729 54.0759 83.4849 54.1599C83.7009 54.2399 83.9589 54.2799 84.2589 54.2799C84.7189 54.2799 85.0749 54.1719 85.3269 53.9559C85.5789 53.7359 85.7049 53.4219 85.7049 53.0139C85.7049 52.7859 85.6469 52.5999 85.5309 52.4559C85.4189 52.3119 85.2689 52.1919 85.0809 52.0959C84.8929 51.9959 84.6789 51.9119 84.4389 51.8439C84.1989 51.7759 83.9549 51.7019 83.7069 51.6219C83.4589 51.5419 83.2149 51.4459 82.9749 51.3339C82.7349 51.2219 82.5209 51.0759 82.3329 50.8959C82.1449 50.7159 81.9929 50.4919 81.8769 50.2239C81.7649 49.9519 81.7089 49.6179 81.7089 49.2219C81.7089 48.9059 81.7709 48.5979 81.8949 48.2979C82.0229 47.9979 82.2069 47.7319 82.4469 47.4999C82.6869 47.2679 82.9829 47.0819 83.3349 46.9419C83.6869 46.8019 84.0909 46.7319 84.5469 46.7319C85.0589 46.7319 85.5309 46.8119 85.9629 46.9719C86.3949 47.1319 86.7629 47.3559 87.0669 47.6439L86.6649 48.4059ZM95.2908 48.1539H92.6748V55.5039H91.0608V48.1539H88.4448V46.8279H95.2908V48.1539ZM100.766 52.2279L99.7104 49.3419C99.6584 49.2139 99.6044 49.0619 99.5484 48.8859C99.4924 48.7099 99.4364 48.5199 99.3804 48.3159C99.3284 48.5199 99.2744 48.7119 99.2184 48.8919C99.1624 49.0679 99.1084 49.2219 99.0564 49.3539L98.0064 52.2279H100.766ZM103.616 55.5039H102.368C102.228 55.5039 102.114 55.4699 102.026 55.4019C101.938 55.3299 101.872 55.2419 101.828 55.1379L101.18 53.3679H97.5864L96.9384 55.1379C96.9064 55.2299 96.8444 55.3139 96.7524 55.3899C96.6604 55.4659 96.5464 55.5039 96.4104 55.5039H95.1504L98.5644 46.8279H100.208L103.616 55.5039ZM107.736 50.9559C108.04 50.9559 108.304 50.9179 108.528 50.8419C108.756 50.7659 108.942 50.6619 109.086 50.5299C109.234 50.3939 109.344 50.2339 109.416 50.0499C109.488 49.8659 109.524 49.6639 109.524 49.4439C109.524 49.0039 109.378 48.6659 109.086 48.4299C108.798 48.1939 108.356 48.0759 107.76 48.0759H106.728V50.9559H107.736ZM111.888 55.5039H110.43C110.154 55.5039 109.954 55.3959 109.83 55.1799L108.006 52.4019C107.938 52.2979 107.862 52.2239 107.778 52.1799C107.698 52.1359 107.578 52.1139 107.418 52.1139H106.728V55.5039H105.114V46.8279H107.76C108.348 46.8279 108.852 46.8899 109.272 47.0139C109.696 47.1339 110.042 47.3039 110.31 47.5239C110.582 47.7439 110.782 48.0079 110.91 48.3159C111.038 48.6199 111.102 48.9559 111.102 49.3239C111.102 49.6159 111.058 49.8919 110.97 50.1519C110.886 50.4119 110.762 50.6479 110.598 50.8599C110.438 51.0719 110.238 51.2579 109.998 51.4179C109.762 51.5779 109.492 51.7039 109.188 51.7959C109.292 51.8559 109.388 51.9279 109.476 52.0119C109.564 52.0919 109.644 52.1879 109.716 52.2999L111.888 55.5039ZM119.565 50.9559C119.869 50.9559 120.133 50.9179 120.357 50.8419C120.585 50.7659 120.771 50.6619 120.915 50.5299C121.063 50.3939 121.173 50.2339 121.245 50.0499C121.317 49.8659 121.353 49.6639 121.353 49.4439C121.353 49.0039 121.207 48.6659 120.915 48.4299C120.627 48.1939 120.185 48.0759 119.589 48.0759H118.557V50.9559H119.565ZM123.717 55.5039H122.259C121.983 55.5039 121.783 55.3959 121.659 55.1799L119.835 52.4019C119.767 52.2979 119.691 52.2239 119.607 52.1799C119.527 52.1359 119.407 52.1139 119.247 52.1139H118.557V55.5039H116.943V46.8279H119.589C120.177 46.8279 120.681 46.8899 121.101 47.0139C121.525 47.1339 121.871 47.3039 122.139 47.5239C122.411 47.7439 122.611 48.0079 122.739 48.3159C122.867 48.6199 122.931 48.9559 122.931 49.3239C122.931 49.6159 122.887 49.8919 122.799 50.1519C122.715 50.4119 122.591 50.6479 122.427 50.8599C122.267 51.0719 122.067 51.2579 121.827 51.4179C121.591 51.5779 121.321 51.7039 121.017 51.7959C121.121 51.8559 121.217 51.9279 121.305 52.0119C121.393 52.0919 121.473 52.1879 121.545 52.2999L123.717 55.5039ZM129.838 52.2279L128.782 49.3419C128.73 49.2139 128.676 49.0619 128.62 48.8859C128.564 48.7099 128.508 48.5199 128.452 48.3159C128.4 48.5199 128.346 48.7119 128.29 48.8919C128.234 49.0679 128.18 49.2219 128.128 49.3539L127.078 52.2279H129.838ZM132.688 55.5039H131.44C131.3 55.5039 131.186 55.4699 131.098 55.4019C131.01 55.3299 130.944 55.2419 130.9 55.1379L130.252 53.3679H126.658L126.01 55.1379C125.978 55.2299 125.916 55.3139 125.824 55.3899C125.732 55.4659 125.618 55.5039 125.482 55.5039H124.222L127.636 46.8279H129.28L132.688 55.5039ZM139.403 48.1539H136.787V55.5039H135.173V48.1539H132.557V46.8279H139.403V48.1539ZM142.758 48.1119V50.5179H145.794V51.7599H142.758V54.2139H146.61V55.5039H141.138V46.8279H146.61V48.1119H142.758ZM156.344 51.1659C156.344 51.8019 156.238 52.3859 156.026 52.9179C155.814 53.4499 155.516 53.9079 155.132 54.2919C154.748 54.6759 154.286 54.9739 153.746 55.1859C153.206 55.3979 152.606 55.5039 151.946 55.5039H148.64V46.8279H151.946C152.606 46.8279 153.206 46.9359 153.746 47.1519C154.286 47.3639 154.748 47.6619 155.132 48.0459C155.516 48.4259 155.814 48.8819 156.026 49.4139C156.238 49.9459 156.344 50.5299 156.344 51.1659ZM154.688 51.1659C154.688 50.6899 154.624 50.2639 154.496 49.8879C154.372 49.5079 154.19 49.1879 153.95 48.9279C153.714 48.6639 153.426 48.4619 153.086 48.3219C152.75 48.1819 152.37 48.1119 151.946 48.1119H150.26V54.2199H151.946C152.37 54.2199 152.75 54.1499 153.086 54.0099C153.426 53.8699 153.714 53.6699 153.95 53.4099C154.19 53.1459 154.372 52.8259 154.496 52.4499C154.624 52.0699 154.688 51.6419 154.688 51.1659Z" fill="#101010"/>
<defs>
<clipPath id="clip0_5444_9793">
<rect width="40" height="40" fill="white" transform="translate(20 20)"/>
</clipPath>
<clipPath id="clip1_5444_9793">
<rect width="120" height="19.0077" fill="white" transform="translate(70 22.4962)"/>
</clipPath>
</defs>
</svg>
