<svg width="70" height="60" viewBox="0 0 70 60" fill="none" xmlns="http://www.w3.org/2000/svg">
<path d="M18.3698 60C14.8248 60 11.9243 59.2857 9.66833 57.8571C7.41239 56.4286 5.55929 54.6032 4.10904 52.381C2.49765 49.6825 1.36968 46.9048 0.725125 44.0476C0.241708 41.0317 0 38.5714 0 36.6667C0 28.8889 2.01424 21.8254 6.04271 15.4762C10.0712 9.12699 16.3556 3.96826 24.896 0L27.0713 4.28572C22.076 6.34921 17.7253 9.60318 14.0191 14.0476C10.474 18.4921 8.7015 23.0159 8.7015 27.6191C8.7015 29.5238 8.94321 31.1905 9.42662 32.619C12.0048 30.5556 14.9859 29.5238 18.3698 29.5238C22.5594 29.5238 26.1851 30.873 29.2467 33.5714C32.3083 36.2698 33.8392 40 33.8392 44.7619C33.8392 49.2063 32.3083 52.8571 29.2467 55.7143C26.1851 58.5714 22.5594 60 18.3698 60ZM54.5307 60C50.9856 60 48.0851 59.2857 45.8292 57.8571C43.5732 56.4286 41.7201 54.6032 40.2699 52.381C38.6585 49.6825 37.5305 46.9048 36.886 44.0476C36.4025 41.0317 36.1608 38.5714 36.1608 36.6667C36.1608 28.8889 38.1751 21.8254 42.2035 15.4762C46.232 9.12699 52.5164 3.96826 61.0568 0L63.2322 4.28572C58.2369 6.34921 53.8861 9.60318 50.1799 14.0476C46.6349 18.4921 44.8623 23.0159 44.8623 27.6191C44.8623 29.5238 45.104 31.1905 45.5875 32.619C48.1657 30.5556 51.1468 29.5238 54.5307 29.5238C58.7203 29.5238 62.3459 30.873 65.4075 33.5714C68.4692 36.2698 70 40 70 44.7619C70 49.2063 68.4692 52.8571 65.4075 55.7143C62.3459 58.5714 58.7203 60 54.5307 60Z" fill="#5C5B59"/>
</svg>
