<svg width="568" height="660" viewBox="0 0 568 660" fill="none" xmlns="http://www.w3.org/2000/svg">
<path d="M54.584 93.1244C54.6928 93.1969 54.793 93.2781 54.8847 93.368C54.793 93.2781 54.6928 93.194 54.584 93.1244Z" fill="#5C5B59"/>
<path d="M56.445 99.9698C52.9206 108.265 43.3179 112.051 34.9921 108.422C34.9606 108.41 34.932 108.396 34.9033 108.381C34.8776 108.37 34.8518 108.355 34.826 108.344L40.4233 95.2767L50.8878 95.2013C51.0968 96.4659 52.1934 97.4376 53.5047 97.4405H53.5476C54.9906 97.4202 56.1415 96.2339 56.1158 94.7836C56.0871 93.3304 54.8847 92.1556 53.4331 92.1644C52.1161 92.1731 51.0396 93.1564 50.8735 94.4268L40.409 94.5022L35.9512 85.0115L37.4457 84.3212L35.6993 80.6056L32.0116 82.3111L33.7581 86.0267L35.2526 85.3364L39.7419 94.8938L34.1217 108.01C33.97 107.932 33.8182 107.854 33.6694 107.772C33.615 107.743 33.5606 107.711 33.5062 107.682C33.3659 107.604 33.2284 107.526 33.0939 107.442C33.0796 107.436 33.0624 107.427 33.0481 107.416C32.9135 107.334 32.7789 107.253 32.6472 107.166C32.5928 107.131 32.5384 107.097 32.4869 107.062C32.3523 106.975 32.2178 106.885 32.0889 106.792C31.9286 106.682 31.7711 106.566 31.6165 106.45C31.4591 106.331 31.3073 106.212 31.1556 106.09C31.0124 105.974 30.8721 105.855 30.7319 105.736C30.7061 105.713 30.6803 105.69 30.6545 105.667C30.5286 105.556 30.4055 105.446 30.2852 105.33C30.1592 105.214 30.0333 105.092 29.9102 104.97C29.8185 104.88 29.7298 104.791 29.6468 104.698C29.1887 104.225 28.7649 103.726 28.3727 103.21C28.2582 103.059 28.1465 102.905 28.0377 102.749C27.9289 102.595 27.823 102.438 27.7199 102.282C27.6226 102.131 27.5281 101.983 27.4365 101.829C27.4279 101.815 27.4164 101.8 27.4078 101.786C27.3191 101.638 27.2303 101.487 27.1473 101.336C27.1387 101.324 27.133 101.316 27.1273 101.304C27.0471 101.162 26.9698 101.02 26.8982 100.878C26.8782 100.843 26.861 100.808 26.8438 100.773C26.7837 100.663 26.7293 100.55 26.6749 100.437C26.6434 100.373 26.6119 100.309 26.5804 100.242C26.5231 100.121 26.4688 99.9988 26.4144 99.8741C26.3886 99.8161 26.3657 99.761 26.3428 99.7029C26.2998 99.6101 26.2597 99.5202 26.2254 99.4245C26.1882 99.3433 26.1567 99.2592 26.1252 99.175C26.0736 99.0474 26.025 98.9198 25.982 98.7893C25.9706 98.7603 25.9591 98.7284 25.9477 98.6964C25.899 98.5601 25.8503 98.4238 25.8102 98.2846C25.7845 98.2091 25.7587 98.1337 25.7387 98.0583C25.71 97.9713 25.6814 97.8843 25.6585 97.7973C25.6299 97.7045 25.6041 97.6116 25.5812 97.5188C25.5468 97.397 25.5154 97.2781 25.4867 97.1562C25.4781 97.1243 25.4695 97.0924 25.4638 97.0634C25.4266 96.9155 25.3922 96.7647 25.3607 96.6167C25.3522 96.5674 25.3407 96.521 25.3321 96.4717C25.3006 96.3325 25.2749 96.1932 25.2519 96.054C25.2233 95.8887 25.1976 95.7263 25.1746 95.5609C25.1517 95.4304 25.1346 95.2999 25.1202 95.1664C25.1088 95.0881 25.1002 95.0069 25.0916 94.9286C25.0859 94.8706 25.0802 94.8126 25.0773 94.7546C25.0601 94.6153 25.0487 94.4761 25.0401 94.334C25.0286 94.1541 25.02 93.9743 25.0115 93.7945C25.0029 93.5972 25 93.3971 25 93.197C25 91.065 25.418 88.907 26.2998 86.8302C29.8214 78.5346 39.427 74.7493 47.7499 78.3779C56.0757 82.0065 59.9695 91.6742 56.445 99.9698Z" fill="#5C5B59"/>
<path d="M53.1954 92.7851C53.2584 92.7851 53.35 92.7851 53.4445 92.7822C53.3243 92.7851 53.247 92.7851 53.1954 92.7851Z" fill="#5C5B59"/>
<path d="M53.4502 97.4406C53.3529 97.4406 53.2785 97.4406 53.2269 97.4435C53.2871 97.4435 53.3644 97.4406 53.4502 97.4406Z" fill="#5C5B59"/>
<path d="M55.4973 94.7894C55.5174 95.9003 54.6298 96.814 53.519 96.8198C52.4081 96.8285 51.4891 95.9294 51.4662 94.8155C51.4461 93.7017 52.3337 92.7909 53.4445 92.7822H53.456C53.8711 92.7822 54.2576 92.9069 54.584 93.1245C54.6928 93.197 54.793 93.2782 54.8847 93.3681C54.9763 93.461 55.0622 93.5596 55.1337 93.6669C55.2082 93.7742 55.2712 93.8873 55.3256 94.0063C55.4315 94.247 55.4945 94.511 55.4973 94.7894Z" fill="#5C5B59"/>
<path d="M74.9224 80.1791H90.1396V84.1036H79.2084V89.867H89.4553V93.7915H79.2084V100.457H91.0844L88.2758 104.381H74.9282V80.1791H74.9224Z" fill="#5C5B59"/>
<path d="M96.5128 95.1431L90.549 86.8794H95.004L98.7746 92.1207L102.511 86.8794H107L101.036 95.1083L107.581 104.379H103.161L98.7746 98.1974L94.3884 104.379H89.9678L96.5128 95.1431Z" fill="#5C5B59"/>
<path d="M109.694 99.0328C110.413 100.213 112.025 101.22 114.252 101.22C116.617 101.22 117.336 100.213 117.336 99.3113C117.336 97.8523 115.28 97.5071 112.606 96.5325C110.069 95.5957 108.357 94.2759 108.357 91.6016C108.357 88.234 111.169 86.3602 114.458 86.3602C117.133 86.3602 118.913 87.4363 120.044 88.9301L117.748 91.3956C117.098 90.5632 116.068 89.9366 114.39 89.9366C113.087 89.9366 112.3 90.5603 112.3 91.5C112.3 92.8198 113.74 92.9938 116.652 94.07C119.838 95.2157 121.278 96.7443 121.278 99.2794C121.278 102.299 119.12 104.834 114.184 104.834C110.585 104.834 108.117 103.375 107.055 101.292L109.694 99.0328Z" fill="#5C5B59"/>
<path d="M131.809 86.3254C134.38 86.3254 136.745 87.1927 138.732 89.3449L136.195 92.0193C135.03 90.8039 133.658 90.1107 131.809 90.1107C128.794 90.1107 126.498 92.437 126.498 95.5957C126.498 98.7544 128.794 101.081 131.809 101.081C133.658 101.081 135.03 100.387 136.195 99.1721L138.732 101.846C136.745 103.999 134.38 104.866 131.809 104.866C126.601 104.866 122.418 100.941 122.418 95.5957C122.418 90.2499 126.598 86.3254 131.809 86.3254Z" fill="#5C5B59"/>
<path d="M140.031 82.3661C140.031 80.9767 141.162 79.9006 142.499 79.9006C143.802 79.9006 144.933 80.9767 144.933 82.3661C144.933 83.7555 143.802 84.8316 142.499 84.8316C141.162 84.8316 140.031 83.7555 140.031 82.3661ZM140.444 86.8794H144.555V104.379H140.444V86.8794Z" fill="#5C5B59"/>
<path d="M146.382 95.6304C146.382 90.0062 150.255 86.395 155.429 86.395C160.571 86.395 163.964 90.3195 163.964 95.2128C163.964 95.2128 163.964 95.9756 163.895 96.6718H150.461C150.599 99.4505 152.62 101.255 155.669 101.255C157.759 101.255 159.028 100.561 160.33 99.2417L162.798 101.672C160.571 104.068 158.137 104.796 155.532 104.796C150.118 104.796 146.382 101.255 146.382 95.7697V95.6304ZM159.781 93.7538C159.781 91.6712 157.828 89.9337 155.429 89.9337C152.858 89.9337 150.733 91.6364 150.562 93.7538H159.781Z" fill="#5C5B59"/>
<path d="M166.057 86.8794H170.134V89.3797C170.921 87.7119 172.876 86.5314 175.376 86.5314C179.522 86.5314 181.921 89.2405 181.921 93.545V104.379H177.809V94.1367C177.809 91.7756 176.472 90.247 174.142 90.247C171.811 90.247 170.131 91.9148 170.131 94.3107V104.379H166.054V86.8794H166.057Z" fill="#5C5B59"/>
<path d="M186.407 90.6647H182.952V86.8794H186.407V80.1791H190.519V86.8794H194.077V90.6647H190.519V104.379H186.407V90.6647Z" fill="#5C5B59"/>
<path d="M195.704 82.3661C195.704 80.9767 196.835 79.9006 198.172 79.9006C199.474 79.9006 200.605 80.9767 200.605 82.3661C200.605 83.7555 199.474 84.8316 198.172 84.8316C196.835 84.8316 195.704 83.7555 195.704 82.3661ZM196.113 86.8794H200.224V104.379H196.113V86.8794Z" fill="#5C5B59"/>
<path d="M210.572 86.4994C213.483 86.4994 215.507 87.7843 216.089 89.4145V86.8794H220.2V104.379H216.089V101.843C215.505 103.476 213.483 104.759 210.572 104.759C205.704 104.759 201.936 100.799 201.936 95.6275C201.936 90.4558 205.704 86.4994 210.572 86.4994ZM210.806 101.202C213.913 101.202 216.306 98.8152 216.306 95.6304C216.306 92.4456 213.913 90.0584 210.806 90.0584C207.771 90.0584 205.484 92.4456 205.484 95.6304C205.484 98.8152 207.771 101.202 210.806 101.202Z" fill="#5C5B59"/>
<path d="M392.777 354.404L392.282 354.569L391.704 354.816L391.126 355.228L390.879 355.64L390.631 356.217L390.466 356.711V357.452L390.631 357.864L390.796 358.441L391.209 358.853L391.621 359.1L392.859 359.594L396.738 360.995L397.563 361.407L398.141 361.819L398.884 362.643L399.379 363.467C402.02 371.046 391.044 374.589 387.578 368.08L387.165 367.009L387 365.773H389.641L389.806 366.597L390.053 367.339L390.466 367.833L390.879 368.41L391.456 368.657L391.952 368.904L392.694 369.069H394.097L394.592 368.904L395.335 368.657L395.913 368.41C397.316 366.762 397.563 364.785 395.5 363.549L394.427 362.972L392.859 362.56L391.209 361.984L389.971 361.242L388.981 360.501L388.238 359.759L387.825 358.606L387.66 357.37L387.825 356.299L388.073 355.228L388.651 354.239L389.311 353.498L390.136 352.756C392.612 351.109 396.078 351.603 398.058 353.992L398.801 354.816L399.214 355.887L399.379 357.04H396.573L396.408 356.299C396.16 355.228 395.17 354.404 394.097 354.239H392.777V354.404ZM426.117 371.293H423.311V353.91L423.476 353.086L423.889 352.592L424.384 352.18L425.209 352.015H425.622L426.117 352.262L426.364 352.592L426.777 353.003L435.112 366.844L435.277 352.097H438.083V369.481L437.918 370.305L437.505 370.881L436.763 371.293L436.02 371.458H435.525L435.112 371.293L434.7 371.046L434.369 370.634L425.869 356.628V371.293H426.117ZM453.68 352.015L454.671 352.18C465.481 354.981 464.656 370.14 453.515 371.458H451.535C440.476 369.81 439.569 354.981 450.544 352.18L451.535 352.015H453.68ZM485.783 352.18V371.376H482.977V352.18H485.783ZM477.943 354.816H469.773V360.913H477.943V363.549H469.773V371.293H466.967V354.074L467.132 353.251L467.545 352.756L468.122 352.344L468.865 352.18H477.943V354.816ZM404.99 371.293H402.02L408.869 353.251L409.117 352.756L409.529 352.344L410.025 352.18L410.602 352.015L411.18 352.18L411.675 352.344L412.088 352.756L412.335 353.251L419.102 371.293H416.214L414.316 365.856H406.806L404.99 371.293ZM452.525 354.651L451.205 354.816L449.802 355.228C443.612 357.947 444.603 367.339 451.205 368.739L452.525 368.904L453.928 368.739C460.86 367.421 461.273 357.452 455.248 355.228L453.928 354.816L452.525 354.651ZM410.685 355.805L407.879 363.384H413.573L410.685 355.805Z" fill="#5C5B59"/>
<path d="M460.2 310.327L458.632 308.433L457.889 307.609L457.064 306.867C453.433 303.736 448.564 304.56 444.438 305.879L441.137 306.867L439.486 307.279C434.947 308.185 430.161 307.691 428.345 302.83L428.098 301.512L427.933 300.276L428.18 299.04L428.593 297.722C430.326 293.438 436.845 292.367 440.972 293.438L442.952 293.85L444.768 294.427C450.297 296.239 454.753 300.029 457.807 304.972L458.797 306.62L460.2 310.327Z" fill="#5C5B59"/>
<path fill-rule="evenodd" clip-rule="evenodd" d="M460.447 310.987L460.695 312.469L461.107 314.117C462.18 322.438 458.962 331.171 452.36 336.444L450.462 338.009L448.563 339.08C441.219 343.2 431.728 343.117 424.466 338.833L422.816 337.762L421.165 336.444L422.486 336.856L423.806 337.103C430.408 338.174 436.02 336.279 439.981 330.677L441.549 328.123L442.787 325.651C445.84 318.731 448.151 311.151 456.899 310.492H458.714L460.447 310.987Z" fill="#5C5B59"/>
<path fill-rule="evenodd" clip-rule="evenodd" d="M427.767 334.549L426.447 335.126C416.296 337.68 411.427 323.921 412.17 316.094L412.335 314.776L413.325 316.012L414.398 317.083C418.937 321.861 423.146 321.532 428.51 324.415L429.005 324.992L429.418 325.486C431.316 327.958 430.903 331.253 429.005 333.56L428.262 333.972L427.767 334.549Z" fill="#5C5B59"/>
<path fill-rule="evenodd" clip-rule="evenodd" d="M357.939 77L339 95.4717L357.938 113.8L376.876 95.4717L357.939 77ZM363.606 97.2171C361.667 97.9447 360.027 97.9447 358.983 97.9447C357.492 98.0902 354.956 97.5091 354.956 97.5091H354.807L351.527 102.017H349.29L352.868 96.7815L352.273 96.4915V95.7638H350.781V97.7992L348.991 98.5268V93.872H353.465L356.298 88.7816H353.912V89.7993H352.122V88.7816H350.929V89.7993H348.99V86.8907H359.429L358.981 88.055H359.578L360.026 87.3273L360.324 86.8907H363.605C363.306 89.3637 359.877 89.9448 358.087 89.9448V93.7264C360.473 94.5986 362.71 93.5809 363.306 93.4354C363.903 93.1443 364.499 93.1443 364.499 93.1443L366.437 95.7638C366.139 95.9093 365.842 96.1994 365.543 96.3439L369.271 102.162H367.034L363.606 97.2171Z" fill="#5C5B59"/>
<path fill-rule="evenodd" clip-rule="evenodd" d="M380.307 99.5444H380.904C382.245 99.2544 383.29 98.8168 383.29 97.217V86.0186H385.825V97.217C385.825 99.8365 384.483 101.582 381.5 101.582C381.5 101.582 380.904 101.727 380.606 101.582L380.307 99.5444ZM396.711 94.8906H391.939L394.176 89.6547L396.711 94.8906ZM386.869 101.29H389.105L391.193 96.927H397.606L399.694 101.29H402.08L395.07 86.0186H393.43L386.869 101.29ZM514.963 94.8906H510.191L512.429 89.6547L514.963 94.8906ZM505.121 101.29H507.359L509.446 96.927H515.859L517.945 101.29H520.332L513.323 86.0186H511.683L505.121 101.29ZM402.974 86.0186H404.763L415.202 97.3646V86.0186H417.438V101.29H415.649L405.36 89.9457V101.29H402.974V86.0186ZM450.544 86.0186H452.333L462.771 97.3646H462.92V86.0186H465.008V101.29H463.368L452.928 89.9457V101.29H450.544V86.0186ZM419.526 97.3646C420.869 98.5278 421.763 99.3999 423.701 99.3999C425.043 99.3999 426.237 98.8178 426.237 97.3646C426.237 94.0185 419.378 94.455 419.378 89.6547C419.378 87.4728 421.465 85.873 424.001 85.873C425.641 85.873 426.684 86.3096 427.729 86.8907V89.3636C426.984 88.4915 425.641 87.7639 424.001 87.7639C422.658 87.7639 421.615 88.346 421.615 89.6547C421.615 92.2721 428.326 92.5632 428.326 97.0725C428.326 99.5454 426.536 101.291 423.553 101.291C421.764 101.291 420.571 101.001 419.527 99.983L419.526 97.3646ZM429.368 97.3646C430.56 98.5278 431.605 99.3999 433.394 99.3999C434.885 99.3999 435.93 98.8178 435.93 97.3646C435.93 94.0185 429.219 94.455 429.219 89.6547C429.219 87.4728 431.306 85.873 433.842 85.873C435.333 85.873 436.377 86.3096 437.57 86.8907V89.3636C436.825 88.4915 435.333 87.7639 433.693 87.7639C432.5 87.7639 431.456 88.346 431.456 89.6547C431.456 92.2721 438.167 92.5632 438.167 97.0725C438.167 99.5454 436.377 101.291 433.394 101.291C431.605 101.291 430.412 101.001 429.368 99.983V97.3646ZM439.956 86.0186H448.753V88.2004H442.043V92.7087H448.455V94.7451H442.043V99.2544H448.904V101.29H439.956V86.0186ZM467.841 92.5632H473.359V94.5996H467.841V92.5632ZM489.762 100.127C487.524 101.144 485.437 101.436 483.946 101.436C478.877 101.436 475.744 97.9436 475.744 93.5809C475.744 89.3626 479.325 86.0175 484.244 86.0175C486.63 86.0175 488.27 86.5996 489.465 87.3263V89.5081C487.675 88.4905 486.63 88.0539 484.096 88.0539C481.115 88.0539 477.982 89.9447 477.982 93.7264C477.982 96.9259 480.369 99.5434 483.65 99.5434C486.185 99.5434 487.826 98.9613 489.763 97.7981L489.762 100.127ZM491.851 86.0186H494.087V101.29H491.851V86.0186ZM496.77 86.0186H499.007V99.2544H504.675V101.29H496.77V86.0186ZM531.963 95.4717H528.831V93.4364H534.2V99.8375C532.56 100.71 530.77 101.291 528.235 101.291C523.165 101.291 519.884 97.8001 519.884 93.5829C519.884 89.2191 523.314 85.7285 528.532 85.7285C530.619 85.7285 532.259 86.1651 533.602 87.0383V89.2201C532.11 88.2025 530.173 87.7649 527.786 87.7649C525.7 87.7649 522.27 89.3647 522.27 93.5829C522.27 96.6379 524.654 99.2554 528.086 99.2554C528.98 99.2554 530.919 99.1099 531.962 98.3833L531.963 95.4717Z" fill="#5C5B59"/>
<path d="M105.041 429.338C105.041 418.696 97.4411 414.518 88.5239 413.122C85.3633 412.677 81.942 412.565 78.7811 412.565C66.0278 412.565 44.8041 414.574 37.8073 428.891C36.7356 431.065 36 434.074 36 436.525C36 445.606 40.9921 455.332 47.5835 462.272C53.7828 468.798 60.5489 471.62 67.7736 471.62C73.3607 471.62 78.0452 469.752 82.3348 466.631C92.2124 459.33 105.04 442.599 105.04 429.338H105.041Z" fill="#FEFDFB"/>
<path fill-rule="evenodd" clip-rule="evenodd" d="M70.7108 439.179C68.4223 438.04 66.2479 437.013 66.2479 435.19C66.2479 433.654 67.9056 432.97 69.6241 432.97C71.3979 432.97 73.0578 433.595 74.4322 434.678V432.115C73.0014 431.318 71.3426 430.919 69.6816 430.919C66.5899 430.919 63.1572 432.459 63.1572 435.99C63.1572 438.896 65.7333 440.146 68.1368 441.284C70.3113 442.312 72.3142 443.222 72.3142 445.102C72.3142 446.982 70.3113 447.381 68.7078 447.381C67.2206 447.381 64.8757 446.754 62.9846 445.73V448.349C64.8171 449.09 66.5888 449.49 68.5949 449.49C71.8007 449.49 75.6339 448.178 75.6339 444.361C75.6339 441.743 73.1153 440.377 70.7108 439.179ZM68.3279 470.109H68.4115C73.5431 470.098 77.9375 468.278 82.0454 465.27C91.8895 457.977 104.368 441.628 104.368 428.926C104.368 419.412 97.4423 415.198 88.7402 413.83C85.5931 413.318 82.7315 413.262 79.5844 413.262C66.4194 413.262 46.1004 415.539 39.5739 428.981C38.6164 430.889 38.0465 433.567 38.0291 435.824V436.094C38.0443 439.502 38.5675 442.591 40.0331 445.845C42.5506 451.426 47.072 454.615 53.2534 454.615C54.9708 454.615 56.5167 454.444 57.4904 454.104C58.462 453.703 59.4358 452.964 59.4358 451.594C59.4358 450.914 58.9213 450.174 58.1765 449.889C57.3765 449.604 56.6893 449.548 54.5713 449.433C52.4533 449.317 51.7086 449.26 50.2213 449.146C47.8743 448.919 46.6715 447.381 46.6715 445.902C46.6715 444.589 47.5877 443.451 49.3051 442.652C47.0145 441.798 45.4328 439.638 45.4328 437.198C45.4328 433.658 48.2043 430.919 52.6889 430.919C53.6605 430.919 54.8004 431.146 55.772 431.431C56.5742 431.658 57.4329 431.83 58.3481 431.83C59.4358 431.83 60.6951 431.775 61.7264 431.49V433.768C61.1532 433.654 59.3218 433.538 58.3481 433.538C59.2643 434.566 59.7789 435.991 59.7789 437.356C59.7789 440.547 57.2614 443.222 52.7974 443.222C52.4142 443.222 51.9985 443.204 51.5164 443.149C51.0496 443.241 50.6284 443.441 50.3028 443.709C49.8153 444.099 49.5906 444.604 49.5906 445.043C49.5906 445.786 49.9923 446.356 51.8237 446.469L55.772 446.698C59.6084 446.926 61.6689 448.466 61.6113 451.197C61.4974 454.33 58.9788 456.61 52.9103 456.61C51.308 456.61 49.1911 456.325 47.3011 455.754C45.9278 455.357 44.611 454.615 43.4668 453.762C48.6125 462.524 57.7553 470.092 68.3279 470.108V470.109ZM94.7511 448.404C93.7795 448.404 92.1761 447.725 90.0592 445.444C87.3127 442.425 84.3903 439.006 84.3903 439.006L89.2559 434.45C92.1186 431.774 92.9208 431.602 93.1499 431.545H88.6262C87.7111 432.741 86.682 433.653 86.682 433.653L81.4722 438.495V423.228L77.5217 424.252C78.0396 424.937 78.21 426.078 78.21 428.64V444.42C78.21 447.607 78.0396 447.951 77.6954 448.862H81.9303C81.6448 448.121 81.4722 447.608 81.4722 444.42V439.861C81.4722 439.861 83.8193 442.651 86.7395 446.127C88.5709 448.291 90.0592 449.26 91.832 449.26C93.2063 449.26 94.4656 448.918 95.3243 448.291C95.1528 448.348 94.9227 448.404 94.7511 448.404ZM52.8984 441.398C50.0932 441.398 48.5604 439.345 48.5604 436.725C48.5604 434.39 50.0053 432.798 52.4099 432.798C55.1564 432.798 56.6317 434.835 56.6317 437.397C56.6317 439.734 55.3584 441.398 52.8984 441.398Z" fill="#5C5B59"/>
<path d="M208.848 457.238C208.865 457.125 208.87 456.957 208.87 456.827C208.87 454.527 208.062 452.855 205.557 452.855C203.381 452.855 202.067 454.506 202.067 456.785C202.067 459.347 203.211 460.996 205.959 460.996C207.273 460.996 207.73 460.712 208.245 460.485V459.062C207.902 459.347 206.987 459.858 206.015 459.858C204.642 459.858 203.61 458.774 203.61 457.238H208.848ZM207.331 456.156H203.61C203.725 455.189 204.127 453.993 205.557 453.993C206.815 453.993 207.331 454.961 207.331 456.156ZM200.693 460.828V456.212C200.693 454.107 199.836 452.855 197.832 452.855C196.746 452.855 195.773 453.366 195.374 454.278H195.317V453.027H193.942V460.828H195.374V457.238C195.374 455.301 196.003 453.937 197.662 453.994C198.921 454.052 199.263 454.961 199.263 456.785V460.828L200.693 460.828ZM190.426 460.828H191.858V453.027H190.426V460.828ZM193.402 450.466C193.402 450.011 193.06 449.612 192.602 449.612C192.146 449.612 191.744 450.011 191.744 450.466C191.744 450.917 192.146 451.262 192.602 451.262C193.06 451.262 193.402 450.917 193.402 450.466ZM189.01 460.767C188.438 460.597 188.324 460.2 188.324 459.688V450.011H186.835V459.859C186.835 460.596 187.179 460.996 187.979 460.996C188.495 460.996 188.781 460.882 189.01 460.767L189.01 460.767ZM185.925 460.829L181.425 455.238L185.537 450.184H183.778L180.002 454.911V450.184H178.5V460.829H180.002V455.65L183.949 460.829H185.925ZM176.35 460.828V456.212C176.35 454.107 175.492 452.855 173.489 452.855C172.403 452.855 171.602 453.312 171.086 454.166H171.029V450.011H169.6V460.828H171.029V457.238C171.029 455.301 171.661 453.937 173.319 453.994C174.577 454.052 174.92 454.961 174.92 456.785V460.828L176.35 460.828ZM168.257 460.767V459.573C168.028 459.687 167.741 459.859 167.283 459.859C166.597 459.859 166.082 459.347 166.082 458.435V454.166H168.028V453.027H166.082V450.749L164.653 451.203V453.027H163.277V454.166H164.653V458.72C164.653 460.313 165.568 460.996 167.056 460.996C167.513 460.996 167.969 460.882 168.257 460.767ZM160.553 460.828H161.984V453.027H160.553V460.828ZM163.586 450.466C163.586 450.011 163.186 449.612 162.728 449.612C162.27 449.612 161.928 450.011 161.928 450.466C161.928 450.917 162.27 451.262 162.729 451.262C163.186 451.262 163.586 450.917 163.586 450.466H163.586ZM158.613 460.828V455.815C158.613 454.108 157.87 452.855 155.87 452.855C155.183 452.855 153.982 453.253 153.466 454.336C153.066 453.313 152.152 452.855 151.236 452.855C150.092 452.855 149.291 453.253 148.718 454.166V453.028H147.343V460.828H148.777V456.899C148.777 455.417 149.405 453.993 150.836 453.993C152.036 453.993 152.265 455.189 152.265 456.157V460.828H153.695V456.899C153.695 455.417 154.267 453.993 155.754 453.993C156.898 453.993 157.127 455.189 157.127 456.157V460.828H158.613ZM146.103 457.864C146.103 455.701 144.272 455.074 142.671 454.335C142.383 454.222 142.098 454.107 141.87 453.936C141.411 453.652 141.069 453.252 141.069 452.683C141.069 451.545 142.211 451.203 143.185 451.203C143.946 451.203 144.774 451.44 145.358 451.66L145.589 450.408C144.787 450.123 143.872 449.952 143.128 449.952C140.953 449.952 139.352 450.975 139.352 452.854C139.352 454.905 141.354 455.416 142.784 456.1C143.586 456.441 144.501 456.954 144.501 457.923C144.501 459.288 143.07 459.744 142.156 459.744C141.296 459.744 140.245 459.475 139.637 459.231L139.524 460.596C140.148 460.794 141.188 460.995 141.897 460.995C144.242 460.995 146.103 460.086 146.103 457.864ZM130.266 460.828L127.748 456.725L130.037 453.026H128.376L126.89 455.814L125.402 453.027H123.63L125.918 456.725L123.344 460.828H125.059L126.777 457.751L128.491 460.828H130.266ZM114.789 460.767C114.217 460.597 114.103 460.2 114.103 459.688V450.011H112.616V459.859C112.616 460.596 112.958 460.996 113.76 460.996C114.274 460.996 114.616 460.882 114.789 460.767ZM110.845 460.541V455.891H109.3V459.459C108.899 459.573 108.614 459.631 107.585 459.631C105.353 459.631 103.522 457.978 103.522 455.473C103.522 453.08 105.182 451.319 107.64 451.319C108.958 451.319 109.987 451.66 110.615 452.057L110.731 450.52C109.816 450.179 109.128 449.951 107.585 449.951C104.323 449.951 101.92 452.17 101.92 455.416C101.92 458.833 104.151 460.995 107.528 460.995C109.243 460.995 110.215 460.711 110.845 460.54V460.541ZM136.699 456.899C136.699 458.319 136.184 459.858 134.525 459.858C132.808 459.858 132.295 458.319 132.295 456.899C132.295 455.417 132.923 453.993 134.525 453.993C136.012 453.993 136.699 455.417 136.699 456.899V456.899ZM138.244 456.899C138.244 454.562 136.87 452.855 134.525 452.855C132.123 452.855 130.75 454.562 130.75 456.899C130.75 459.176 132.123 460.995 134.525 460.995C136.87 460.995 138.244 459.176 138.244 456.899ZM120.727 457.806C120.727 458.947 120.097 459.858 118.666 459.858C118.036 459.858 117.35 459.402 117.35 458.547C117.35 457.182 119.124 457.068 119.868 457.068C120.211 457.068 120.439 457.126 120.727 457.126V457.806ZM122.27 460.827C122.213 460.596 122.213 460.2 122.213 459.288V456.043C122.213 453.936 121.413 452.854 119.18 452.854C118.151 452.854 117.408 453.138 116.665 453.595L116.778 454.791C117.35 454.335 118.093 453.993 118.952 453.993C120.383 453.993 120.726 454.675 120.726 456.043C120.154 455.985 119.81 455.985 119.237 455.985C117.751 455.985 115.805 456.612 115.805 458.547C115.805 460.255 116.894 460.995 118.55 460.995C119.868 460.995 120.554 460.255 120.84 459.801H120.899V460.827H122.27Z" fill="#5C5B59"/>
<path d="M405.013 456.659C405.373 455.876 405.401 455.543 405.401 453.46C404.477 453.612 403.226 453.794 401.694 454.125C399.066 454.696 398.617 455.691 398.617 456.689C398.617 457.835 399.514 458.8 401.277 458.8C402.921 458.801 404.327 458.138 405.013 456.659ZM408.262 460.592L405.791 460.602C405.791 460.602 405.577 459.597 405.509 458.5C404.789 459.25 403.458 460.803 400.768 460.803C398.015 460.803 395.975 459.159 395.975 456.75C395.975 455.995 396.185 455.243 396.606 454.609C397.415 453.402 398.915 452.438 403.131 452.104L405.373 451.923V451.563C405.373 450.085 405.373 447.613 402.212 447.613C400.225 447.613 399.55 448.584 399.32 449.462L397.13 448.539C397.166 448.464 397.205 448.385 397.247 448.306C398.087 446.739 399.737 445.774 402.122 445.774C403.433 445.774 405.133 446.106 406.242 446.979C407.818 448.184 407.78 450.556 407.78 450.556L407.876 457.87C407.876 457.872 407.958 459.996 408.262 460.592ZM487.267 456.659C487.624 455.876 487.656 455.543 487.656 453.46C486.733 453.612 485.479 453.794 483.947 454.125C481.318 454.696 480.869 455.691 480.869 456.689C480.869 457.835 481.767 458.8 483.53 458.8C485.175 458.801 486.579 458.138 487.267 456.659ZM490.515 460.592L488.044 460.602C488.043 460.602 487.829 459.597 487.76 458.5C487.042 459.25 485.713 460.803 483.022 460.803C480.269 460.803 478.227 459.159 478.227 456.75C478.227 455.995 478.437 455.243 478.857 454.609C479.667 453.402 481.168 452.438 485.382 452.104L487.623 451.923V451.563C487.623 450.085 487.623 447.613 484.464 447.613C482.477 447.613 481.802 448.584 481.571 449.462L479.383 448.539C479.42 448.46 479.459 448.383 479.5 448.306C480.342 446.739 481.991 445.774 484.373 445.774C485.685 445.774 487.387 446.106 488.494 446.979C490.07 448.184 490.034 450.556 490.034 450.556L490.129 457.87C490.129 457.872 490.212 459.996 490.515 460.592ZM463.514 457.868C462.705 459.257 461.141 460.85 458.061 460.85C453.88 460.85 451.476 457.988 451.476 453.192C451.476 447.832 454.984 445.786 457.97 445.786C460.567 445.786 463.058 447.23 463.893 450.813C464.165 452.016 464.165 453.101 464.165 453.705H453.993C453.932 456.089 454.926 459.102 458.27 459.046C459.634 459.022 460.595 458.397 461.209 457.42L463.514 457.868ZM454.05 451.985H461.557C461.347 448.253 459.215 447.622 457.789 447.622C455.759 447.622 454.319 449.125 454.05 451.985ZM436.5 457.868C435.689 459.257 434.127 460.85 431.044 460.85C426.864 460.85 424.459 457.988 424.459 453.192C424.459 447.832 427.968 445.786 430.955 445.786C433.553 445.786 436.039 447.23 436.88 450.813C437.149 452.016 437.149 453.101 437.149 453.705H426.977C426.917 456.089 427.91 459.102 431.255 459.046C432.619 459.022 433.581 458.397 434.194 457.42L436.5 457.868ZM427.034 451.985H434.544C434.334 448.253 432.199 447.622 430.775 447.622C428.743 447.622 427.304 449.125 427.034 451.985ZM477.53 458.049C476.641 459.455 475.028 460.865 472.131 460.865C467.126 460.865 465.235 456.981 465.235 453.492C465.235 449.461 467.415 445.805 471.924 445.805C473.691 445.805 476.167 446.343 477.535 448.642L475.31 449.577C474.888 448.643 473.983 447.564 472.01 447.564C468.106 447.564 467.877 452.047 467.877 453.311C467.877 458.012 470.557 459.028 472.16 459.028C473.994 459.028 474.927 458.142 475.423 457.165L477.53 458.049ZM440.89 446.41V448.483C442.212 446.156 444.466 445.944 445.305 445.944C447.108 445.944 449.268 446.853 449.959 449.206C450.198 450.049 450.198 450.921 450.198 452.123V460.578H447.829V452.514C447.829 451.069 447.829 450.649 447.679 450.168C447.259 448.814 445.936 448.213 444.645 448.213C443.595 448.213 442.693 448.543 441.943 449.295C440.89 450.35 440.89 451.432 440.89 452.489V460.579H438.514V446.41H440.89ZM423.356 441.821V444.162L412.817 458.327H423.62V460.578H409.939V458.141L420.531 444.132H409.947V441.821H423.356ZM391.04 446.311V448.865C392.386 446.172 394.928 446.11 395.888 446.079V448.55C393.554 448.566 392.41 449.048 391.639 450.314C391.007 451.345 391.04 452.794 391.04 454.02V460.576H388.664V446.311H391.04ZM383.948 446.275H386.52V448.269H383.948V456.384C383.948 458.067 383.948 458.791 384.964 458.791C385.413 458.791 386.042 458.609 386.52 458.458V460.433C386.1 460.492 385.114 460.673 384.217 460.673C381.464 460.673 381.464 459.327 381.493 457.467V448.268H379.25V446.274H381.493V442.867L383.948 441.837V446.275ZM372.139 454.099C369.718 453.571 367.218 452.996 367.218 450.053C367.218 447.471 369.387 445.842 372.662 445.842C374.779 445.842 376.804 446.637 377.813 448.579L375.61 449.504C375.434 448.988 374.295 447.681 372.392 447.681C370.527 447.681 369.594 448.791 369.594 449.752C369.594 451.105 371.366 451.666 372.878 451.972C376.009 452.606 378.73 453.414 378.73 456.386C378.73 458.697 376.693 460.865 372.802 460.865C369.938 460.865 367.903 459.899 366.923 457.886L369.436 457.443C370.067 458.548 371.207 459.027 372.906 459.027C375.009 459.027 376.244 458.218 376.244 456.687C376.244 455.065 374.221 454.555 372.139 454.099ZM363.845 460.578H366.459L359.68 441.818H357.096L350 460.578H352.637L354.721 454.828H361.816L363.845 460.578ZM355.513 452.723L358.362 444.931L361.077 452.723H355.513Z" fill="#5C5B59"/>
<path fill-rule="evenodd" clip-rule="evenodd" d="M491.472 441.684L496.604 444.382L501.712 447.183L505.515 449.334C501.465 451.594 491.772 460.561 502.167 461.228C505.063 461.097 515.919 458.995 517.622 456.881C517.915 456.459 517.935 456.008 517.68 455.555L517.425 455.201L517.129 454.908L516.848 454.686L514.526 453.262L511.671 451.562C524.11 443.55 528.949 438.752 511.554 433.767C511.504 433.299 511.5 432.451 511.494 431.381V431.381C511.464 425.8 511.4 414.167 504.688 418.809C499.649 423.046 492.275 432.035 489.321 437.766C488.33 439.797 489.253 440.354 490.721 441.241L490.721 441.241C490.894 441.346 491.075 441.455 491.261 441.572L491.246 441.565L491.266 441.574L491.472 441.684ZM499.351 433.572C499.996 436.09 504.222 442.776 506.392 443.899L506.874 444.05L507.164 444.044L507.459 443.913L507.59 443.776L507.708 443.517L507.748 443.33L507.784 442.793L507.693 440.058L507.46 436.568L499.872 433.294L499.432 433.137L499.388 433.133L499.361 433.134L499.344 433.145L499.331 433.163L499.315 433.218L499.351 433.572ZM491.798 439.578C491.654 439.141 492.188 438.55 492.446 438.274L497.535 433.047C500.63 440.053 510.551 455.536 511.362 438.328L513.495 439.331L515.487 440.496L515.986 440.914L516.206 441.25L516.255 441.435L516.243 441.627L516.181 441.783L515.931 442.117L515.009 442.932L513.821 443.827L512.255 444.901L506.498 448.636L497.997 443.739L493.334 440.93L492.159 440.08L491.987 439.912L491.798 439.578ZM500.403 431.14L499.351 431.07C503.28 427.205 505.001 424.573 505.891 424.829C506.635 425.044 506.798 427.277 507.187 432.499L503.679 431.682L500.403 431.14ZM507.267 454.553L510.543 452.312L512.697 453.691L513.845 454.474L514.626 455.098L514.946 455.411L515.175 455.696L515.18 455.718V455.743L515.172 455.769L515.153 455.799L515.115 455.822L504.574 456.654L505.023 456.238L507.267 454.553Z" fill="#5C5B59"/>
<path d="M51.8123 337.489L55.5377 341.935C54.4979 343.044 53.2716 343.904 51.932 344.465C50.5256 345.041 49.0378 345.321 47.5424 345.291C45.9432 345.296 44.3581 344.953 42.8734 344.281C41.5122 343.663 40.2708 342.75 39.2192 341.593C38.1988 340.466 37.3911 339.115 36.8448 337.624C35.7184 334.524 35.7184 331.045 36.8448 327.945C37.3901 326.45 38.1935 325.093 39.2078 323.954C40.2543 322.788 41.493 321.868 42.8535 321.243C44.3427 320.563 45.9365 320.224 47.5424 320.246C49.0209 320.233 50.4899 320.517 51.8807 321.085C52.0574 321.161 52.2313 321.238 52.4023 321.318C52.7991 321.511 53.1485 321.811 53.4207 322.191C53.693 322.57 53.8799 323.019 53.9657 323.499C54.0514 323.978 54.0333 324.474 53.9129 324.944C53.7926 325.413 53.5735 325.843 53.2745 326.196V326.196C52.8887 326.645 52.391 326.95 51.848 327.07C51.305 327.19 50.7426 327.119 50.236 326.867C50.1448 326.825 50.0536 326.783 49.951 326.745C49.1888 326.44 48.3849 326.29 47.5766 326.303C46.87 326.298 46.1693 326.449 45.5129 326.745C44.8731 327.033 44.2914 327.464 43.8026 328.013C43.2921 328.59 42.8932 329.281 42.6311 330.042C42.3322 330.91 42.1851 331.834 42.1979 332.765C42.1846 333.692 42.3318 334.613 42.6311 335.476C42.8968 336.242 43.2985 336.938 43.8112 337.521C44.2971 338.08 44.8793 338.519 45.5214 338.812C46.1778 339.108 46.8785 339.258 47.5851 339.254C49.4132 339.247 50.8222 338.659 51.8123 337.489Z" fill="#5C5B59"/>
<path d="M55.3354 332.804C55.3255 331.135 55.6114 329.48 56.1763 327.938C56.7227 326.445 57.5304 325.092 58.5507 323.96C59.6026 322.802 60.8451 321.889 62.2077 321.272C63.6917 320.6 65.2782 320.264 66.8767 320.285C68.491 320.262 70.0937 320.598 71.5941 321.272C72.9609 321.887 74.2074 322.8 75.2626 323.96C76.2836 325.093 77.0939 326.446 77.6455 327.938C78.7819 331.055 78.7819 334.554 77.6455 337.67C77.0939 339.163 76.2836 340.515 75.2626 341.648C74.2056 342.807 72.9557 343.718 71.5855 344.326C70.0786 344.989 68.4732 345.317 66.8567 345.294C65.2619 345.316 63.679 344.98 62.1992 344.307C60.845 343.691 59.6097 342.782 58.5621 341.632C57.5444 340.502 56.7371 339.152 56.1877 337.663C55.6158 336.126 55.3259 334.472 55.3354 332.804V332.804ZM61.5265 332.782C61.5162 333.688 61.6594 334.588 61.9483 335.434C62.2092 336.203 62.6037 336.905 63.1084 337.499C63.5978 338.069 64.1845 338.52 64.8329 338.825C65.4995 339.138 66.2149 339.296 66.9365 339.289C67.6647 339.297 68.3867 339.139 69.0601 338.825C69.7041 338.525 70.2865 338.078 70.7703 337.512C71.2652 336.917 71.6525 336.219 71.9105 335.456C72.2008 334.603 72.344 333.695 72.3323 332.782C72.3433 331.878 72.2001 330.981 71.9105 330.139C71.653 329.38 71.2655 328.686 70.7703 328.097C70.2848 327.532 69.703 327.085 69.0601 326.783C68.3891 326.472 67.6703 326.314 66.9451 326.319C66.2235 326.313 65.5081 326.471 64.8415 326.783C64.1986 327.085 63.6167 327.532 63.1312 328.097C62.636 328.686 62.2486 329.38 61.9911 330.139C61.6869 330.978 61.5291 331.875 61.5265 332.782V332.782Z" fill="#5C5B59"/>
<path d="M102.433 331.943V344.552H96.2015V332.101C96.2208 331.175 96.119 330.251 95.8994 329.358C95.7409 328.701 95.4535 328.092 95.0585 327.577C94.7075 327.136 94.2632 326.803 93.7673 326.609C93.2346 326.407 92.6758 326.308 92.1141 326.316C91.4028 326.303 90.6979 326.469 90.0504 326.803C89.4489 327.115 88.9126 327.568 88.477 328.132C88.0299 328.728 87.6926 329.419 87.485 330.165C87.2521 330.993 87.1376 331.858 87.1458 332.727V344.542H80.9547V321.034H85.9429L86.3221 322.824C87.2647 322.067 88.2972 321.464 89.3891 321.034C89.9708 320.804 90.5661 320.622 91.1706 320.488C91.7781 320.354 92.3957 320.286 93.0148 320.285C94.4721 320.245 95.9229 320.517 97.2904 321.089C98.4182 321.578 99.4231 322.372 100.218 323.402C101.008 324.47 101.582 325.721 101.9 327.067C102.276 328.657 102.455 330.297 102.433 331.943V331.943Z" fill="#5C5B59"/>
<path d="M118.612 321.034H125.262L116.548 344.552H110.998L102.302 321.034H108.934L113.743 335.163H113.783L118.612 321.034Z" fill="#5C5B59"/>
<path d="M124.529 332.804C124.52 331.141 124.786 329.491 125.313 327.939C125.814 326.452 126.569 325.092 127.536 323.938C128.525 322.764 129.719 321.837 131.042 321.214C132.509 320.53 134.084 320.191 135.671 320.217C136.326 320.215 136.98 320.283 137.624 320.421C138.222 320.549 138.809 320.739 139.377 320.989C139.903 321.218 140.411 321.494 140.899 321.815C141.342 322.105 141.765 322.435 142.162 322.802L142.435 321.034H147.703V344.552H142.435L142.15 342.784C141.301 343.543 140.359 344.158 139.354 344.61C138.185 345.133 136.937 345.391 135.68 345.368C134.1 345.394 132.531 345.055 131.071 344.371C129.747 343.754 128.548 342.84 127.545 341.684C126.569 340.539 125.809 339.181 125.313 337.692C124.785 336.132 124.519 334.475 124.529 332.804V332.804ZM130.72 332.782C130.71 333.702 130.86 334.615 131.162 335.469C131.436 336.242 131.84 336.947 132.353 337.544C132.857 338.119 133.457 338.574 134.118 338.883C135.499 339.515 137.043 339.515 138.425 338.883C139.086 338.574 139.686 338.119 140.189 337.544C140.701 336.949 141.103 336.243 141.369 335.469C141.665 334.613 141.812 333.701 141.802 332.782C141.812 331.873 141.662 330.971 141.361 330.129C141.086 329.36 140.681 328.659 140.169 328.064C139.666 327.489 139.066 327.034 138.405 326.725C137.017 326.093 135.466 326.093 134.078 326.725C133.419 327.032 132.822 327.487 132.325 328.064C131.817 328.658 131.419 329.36 131.153 330.129C130.858 330.973 130.711 331.874 130.72 332.782V332.782Z" fill="#5C5B59"/>
<path d="M154.199 316.752L154.917 314.545L159.367 314.5V321.034H165.398V327.045H159.367V335.298C159.351 335.91 159.429 336.52 159.597 337.102C159.723 337.53 159.936 337.918 160.219 338.234C160.48 338.516 160.801 338.716 161.151 338.815C161.53 338.924 161.92 338.977 162.311 338.973H165.777L165.737 344.71H161.71C160.604 344.716 159.5 344.599 158.415 344.358C157.429 344.15 156.5 343.685 155.701 343C154.879 342.255 154.245 341.276 153.865 340.164C153.417 338.946 153.194 337.347 153.195 335.366V327.045H149.889V321.679C150.876 321.253 151.771 320.593 152.515 319.743C153.258 318.893 153.832 317.874 154.199 316.752V316.752Z" fill="#5C5B59"/>
<path d="M180.497 335.731H173.325C173.755 336.833 174.466 337.765 175.369 338.405C176.266 339.05 177.31 339.387 178.373 339.373C178.929 339.381 179.485 339.335 180.035 339.238C180.459 339.162 180.876 339.036 181.278 338.864C181.619 338.717 181.945 338.528 182.25 338.299C182.538 338.084 182.829 337.845 183.122 337.583L186.488 341.758C186.065 342.202 185.613 342.609 185.134 342.974C184.553 343.423 183.937 343.811 183.293 344.132C182.552 344.497 181.784 344.785 180.998 344.994C180.111 345.226 179.203 345.339 178.293 345.333C176.707 345.354 175.133 345.015 173.664 344.336C172.313 343.71 171.084 342.789 170.047 341.625C168.509 339.861 167.463 337.624 167.041 335.191C166.619 332.759 166.839 330.24 167.673 327.948C168.22 326.454 169.024 325.097 170.038 323.957C171.08 322.795 172.311 321.874 173.664 321.247C175.139 320.566 176.72 320.227 178.313 320.25C179.675 320.233 181.031 320.44 182.341 320.863C183.442 321.21 184.478 321.783 185.396 322.553C186.213 323.245 186.881 324.136 187.352 325.16C187.817 326.2 188.053 327.351 188.042 328.516C188.045 329.454 187.924 330.387 187.682 331.284C187.444 332.155 187.02 332.947 186.448 333.588C185.787 334.299 184.993 334.834 184.125 335.153C182.952 335.573 181.726 335.768 180.497 335.731V335.731ZM178.473 326.051C177.352 326.044 176.257 326.428 175.337 327.151C174.88 327.509 174.468 327.937 174.114 328.423C173.75 328.917 173.454 329.471 173.234 330.065H179.505C180.168 330.101 180.828 329.937 181.417 329.591C181.58 329.502 181.724 329.375 181.839 329.218C181.954 329.061 182.038 328.878 182.084 328.681C182.131 328.484 182.139 328.278 182.109 328.076C182.078 327.875 182.009 327.684 181.907 327.516C181.732 327.219 181.499 326.971 181.226 326.79C180.872 326.548 180.488 326.369 180.086 326.258C179.559 326.108 179.016 326.036 178.473 326.045V326.051Z" fill="#5C5B59"/>
<path d="M205.144 337.489L208.87 341.935C207.83 343.044 206.603 343.904 205.264 344.465C203.856 345.046 202.366 345.329 200.868 345.3C199.269 345.306 197.684 344.963 196.199 344.291C194.837 343.673 193.595 342.76 192.542 341.603C191.524 340.474 190.716 339.124 190.168 337.634C189.045 334.533 189.045 331.056 190.168 327.955C190.714 326.459 191.519 325.103 192.534 323.963C193.58 322.797 194.819 321.876 196.18 321.253C197.669 320.575 199.263 320.238 200.868 320.263C202.347 320.249 203.816 320.533 205.207 321.101C205.381 321.176 205.554 321.253 205.726 321.334C206.122 321.528 206.472 321.827 206.744 322.207C207.016 322.587 207.203 323.035 207.289 323.515C207.375 323.994 207.356 324.49 207.236 324.96C207.116 325.429 206.897 325.859 206.598 326.212V326.212C206.213 326.661 205.715 326.966 205.173 327.086C204.63 327.206 204.068 327.135 203.562 326.883L203.277 326.761C202.515 326.456 201.711 326.307 200.903 326.319C200.196 326.314 199.495 326.465 198.839 326.761C198.199 327.049 197.618 327.481 197.129 328.029C196.62 328.608 196.221 329.299 195.957 330.058C195.659 330.926 195.513 331.851 195.527 332.782C195.513 333.708 195.659 334.629 195.957 335.492C196.224 336.25 196.623 336.94 197.129 337.521C197.615 338.079 198.197 338.519 198.839 338.812C199.495 339.108 200.196 339.258 200.903 339.254C202.742 339.247 204.156 338.659 205.144 337.489Z" fill="#5C5B59"/>
<path d="M110.456 193.651H117.255V206.579H117.398C119.124 203.791 122.092 202.446 124.63 202.446C131.861 202.446 133.679 206.531 133.679 212.681V227.964H126.88V213.933C126.88 209.847 125.683 207.829 122.522 207.829C118.834 207.829 117.255 209.895 117.255 214.942V227.964H110.456V193.651Z" fill="#5C5B59"/>
<path d="M135.764 203.117H142.562V227.964H135.764V203.117ZM142.563 199.275H135.764V193.651H142.563V199.275Z" fill="#5C5B59"/>
<path d="M144.648 203.118H151.115V207.732H151.207C152.454 204.61 155.806 202.446 159.111 202.446C159.589 202.446 160.163 202.542 160.596 202.685V209.03C159.97 208.886 158.968 208.789 158.152 208.789C153.174 208.789 151.448 212.395 151.448 216.768V227.964H144.648V203.118Z" fill="#5C5B59"/>
<path d="M177.641 212.875C177.018 209.416 175.534 207.588 172.23 207.588C167.919 207.588 166.676 210.951 166.578 212.875H177.641ZM166.578 217.201C166.772 221.526 168.878 223.496 172.66 223.496C175.389 223.496 177.59 221.815 178.024 220.278H184.01C182.093 226.14 178.024 228.639 172.422 228.639C164.616 228.639 159.78 223.256 159.78 215.567C159.78 208.116 164.903 202.446 172.422 202.446C180.85 202.446 184.921 209.558 184.44 217.201H166.578Z" fill="#5C5B59"/>
<path d="M108.689 193.587C107.322 191.946 103.489 191.65 97.9222 193.144C96.8092 192.969 95.153 192.832 93.9847 192.832C88.6854 192.832 83.0764 195.31 81.5873 200.444C80.9353 200.864 80.2816 201.295 79.6221 201.75C61.3044 214.385 59.718 222.542 61.6136 225.307C63.7989 228.499 70.9796 228.424 79.4151 225.198L79.2846 225.028C72.6456 227.126 67.1408 226.88 65.458 224.423C63.8725 222.108 64.651 214.135 80.5803 203.148C86.2201 199.255 92.4859 196.254 97.6631 194.768C92.6417 196.726 86.6754 200.298 81.4128 204.698C81.3775 204.725 81.3461 204.755 81.3121 204.782C82.0863 209.986 86.7602 211.74 91.3982 212.969C96.4266 214.316 101.551 214.942 101.551 218.641C101.551 222.149 97.5268 222.919 94.8936 222.919C90.8707 222.919 87.3287 221.14 87.3287 216.574H80.0486C79.954 225.033 87.0407 228.783 94.6071 228.783C103.895 228.783 108.828 224.072 108.828 217.775C108.828 209.989 101.167 208.404 98.6766 207.779C90.1049 205.567 88.4784 205.233 88.4784 202.589C88.4784 199.705 91.2538 198.696 93.6489 198.696C97.2403 198.696 100.161 199.753 100.401 203.887H107.68C107.68 198.69 104.862 195.557 100.913 194.015C104.903 193.129 107.225 193.526 108.298 195.093C108.851 195.901 108.929 196.861 108.405 198.041L108.553 198.185C109.445 196.57 109.79 194.909 108.689 193.587Z" fill="#5C5B59"/>
<g clip-path="url(#clip0_5615_10228)">
<mask id="mask0_5615_10228" style="mask-type:luminance" maskUnits="userSpaceOnUse" x="350" y="189" width="173" height="41">
<path d="M522.87 189.935H350V229.911H522.87V189.935Z" fill="white"/>
</mask>
<g mask="url(#mask0_5615_10228)">
<path d="M378.364 216.238C378.35 214.119 377.638 212.059 376.33 210.35C375.022 208.641 373.185 207.37 371.08 206.718L358.916 202.933C358.505 202.809 358.15 202.555 357.91 202.212C357.67 201.869 357.559 201.458 357.596 201.047C357.633 200.636 357.814 200.248 358.111 199.949C358.408 199.65 358.803 199.457 359.23 199.401C359.518 199.361 359.812 199.386 360.087 199.475L370.32 202.659C370.684 202.773 371.075 202.777 371.442 202.673C371.809 202.569 372.134 202.36 372.374 202.075C372.614 201.79 372.758 201.442 372.787 201.076C372.817 200.711 372.729 200.346 372.537 200.029C370.744 197.072 368.751 194.231 366.57 191.524C366.187 191.01 365.336 189.935 364.165 189.935C362.994 189.935 362.144 191.01 361.767 191.524C358.638 195.382 353.626 202.492 351.27 209.409C351.193 209.635 351.163 209.874 351.183 210.112C351.202 210.35 351.271 210.581 351.384 210.793C351.498 211.005 351.654 211.194 351.843 211.348C352.033 211.503 352.253 211.619 352.49 211.692L374.398 218.502C374.804 218.631 375.152 218.888 375.387 219.23C375.622 219.572 375.729 219.98 375.692 220.388C375.655 220.797 375.476 221.181 375.183 221.479C374.89 221.777 374.5 221.973 374.077 222.033C373.782 222.082 373.479 222.063 373.192 221.98L352.476 215.511C352.179 215.417 351.862 215.395 351.554 215.447C351.245 215.499 350.956 215.624 350.71 215.81C350.465 215.996 350.272 216.237 350.148 216.513C350.024 216.788 349.974 217.088 350.001 217.387C350.283 220.896 351.974 224.163 354.719 226.503C357.463 228.842 361.048 230.072 364.72 229.933C368.391 229.793 371.864 228.296 374.407 225.756C376.95 223.216 378.366 219.831 378.357 216.312L378.364 216.238Z" fill="#5C5B59"/>
<path d="M398.446 211.411C397.24 211.031 394.612 210.477 394.612 209.068C394.612 207.813 395.825 207.105 397.707 207.219C398.597 207.273 399.471 207.479 400.286 207.826V207.86C400.494 207.951 400.73 207.968 400.95 207.906C401.17 207.845 401.36 207.71 401.485 207.526L402.3 206.251V206.211C402.409 205.997 402.426 205.751 402.346 205.526C402.266 205.301 402.097 205.115 401.875 205.009C400.62 204.43 399.258 204.094 397.867 204.021C395.941 203.865 394.028 204.43 392.527 205.597C391.946 206.068 391.48 206.657 391.162 207.32C390.844 207.983 390.682 208.706 390.687 209.435C390.687 213.134 394.131 213.908 396.961 214.776C399.052 215.444 401.06 215.884 401.06 217.547C401.06 218.975 399.77 219.977 397.574 219.977C395.674 219.915 393.843 219.277 392.346 218.154H392.311C392.212 218.086 392.099 218.037 391.979 218.01C391.86 217.984 391.736 217.98 391.615 217.999C391.494 218.018 391.378 218.06 391.274 218.122C391.17 218.184 391.079 218.265 391.008 218.361L390.952 218.435L390.123 219.736C390.016 219.933 389.988 220.161 390.045 220.376C390.101 220.591 390.238 220.78 390.429 220.905C392.438 222.469 394.965 223.296 397.553 223.235C402.098 223.235 405.033 220.878 405.033 217.453C404.998 213.141 400.335 211.999 398.446 211.411Z" fill="#5C5B59"/>
<path d="M411.635 204.482H409.753C409.225 204.482 408.798 204.892 408.798 205.397V221.726C408.798 222.232 409.225 222.641 409.753 222.641H411.635C412.162 222.641 412.59 222.232 412.59 221.726V205.397C412.59 204.892 412.162 204.482 411.635 204.482Z" fill="#5C5B59"/>
<path d="M447.433 204.248C442.247 204.248 438.372 208.254 438.372 213.648C438.372 219.203 442.233 223.088 447.768 223.088C450.177 223.13 452.529 222.381 454.432 220.965C454.614 220.822 454.735 220.619 454.77 220.396C454.805 220.172 454.751 219.944 454.62 219.757L453.804 218.642L453.763 218.588C453.616 218.402 453.401 218.276 453.161 218.238C452.921 218.199 452.675 218.251 452.473 218.381C451.214 219.275 449.69 219.762 448.123 219.77C447.406 219.79 446.693 219.674 446.023 219.429C445.353 219.184 444.74 218.814 444.22 218.341C443.29 217.441 442.712 216.263 442.582 215.003H455.317C455.568 215 455.809 214.902 455.986 214.731C456.163 214.56 456.263 214.33 456.265 214.089V214.055C456.265 213.615 456.265 213.575 456.265 213.508C456.049 207.96 452.515 204.248 447.433 204.248ZM452.361 212.099H442.512C442.55 210.884 443.081 209.731 443.992 208.885C444.903 208.039 446.122 207.566 447.391 207.566C450.626 207.566 452.208 209.83 452.361 212.099Z" fill="#5C5B59"/>
<path d="M500.843 217.781C500.712 217.782 500.582 217.81 500.462 217.862C500.342 217.913 500.235 217.988 500.146 218.081C499.706 218.545 499.168 218.913 498.566 219.159C497.965 219.406 497.315 219.525 496.661 219.51C493.545 219.51 491.363 217.1 491.363 213.648C491.363 210.197 493.545 207.827 496.661 207.827C497.311 207.801 497.959 207.911 498.561 208.148C499.163 208.386 499.704 208.745 500.146 209.202C500.318 209.378 500.557 209.482 500.809 209.491C501.061 209.5 501.306 209.413 501.491 209.249L502.816 208.034C502.974 207.872 503.064 207.66 503.071 207.439C503.077 207.218 502.999 207.002 502.851 206.832C501.303 205.043 499.226 204.248 496.487 204.248C491.126 204.248 487.237 208.2 487.237 213.648C487.237 219.096 491.126 223.088 496.487 223.088C499.198 223.088 501.282 222.28 502.858 220.484C503.006 220.312 503.083 220.094 503.074 219.871C503.065 219.648 502.971 219.437 502.809 219.276L501.491 218.034C501.319 217.871 501.086 217.78 500.843 217.781Z" fill="#5C5B59"/>
<path d="M410.693 201.104C411.894 201.104 412.868 200.172 412.868 199.021C412.868 197.871 411.894 196.938 410.693 196.938C409.492 196.938 408.518 197.871 408.518 199.021C408.518 200.172 409.492 201.104 410.693 201.104Z" fill="#5C5B59"/>
<path d="M482.523 204.482H480.641C480.113 204.482 479.686 204.892 479.686 205.397V221.726C479.686 222.232 480.113 222.641 480.641 222.641H482.523C483.05 222.641 483.478 222.232 483.478 221.726V205.397C483.478 204.892 483.05 204.482 482.523 204.482Z" fill="#5C5B59"/>
<path d="M481.591 201.104C482.792 201.104 483.765 200.172 483.765 199.021C483.765 197.871 482.792 196.938 481.591 196.938C480.39 196.938 479.416 197.871 479.416 199.021C479.416 200.172 480.39 201.104 481.591 201.104Z" fill="#5C5B59"/>
<path d="M433.592 197.205H431.703C431.578 197.204 431.454 197.227 431.338 197.272C431.222 197.318 431.117 197.384 431.028 197.469C430.939 197.553 430.869 197.653 430.821 197.764C430.773 197.875 430.748 197.993 430.748 198.113V206.351C429.39 205.043 427.557 204.29 425.631 204.248C420.271 204.248 416.388 208.2 416.388 213.648C416.388 219.096 420.271 223.088 425.631 223.088C426.632 223.094 427.62 222.87 428.51 222.433C429.401 221.996 430.168 221.359 430.748 220.578V221.733C430.747 221.853 430.771 221.973 430.819 222.084C430.866 222.195 430.937 222.297 431.025 222.382C431.114 222.467 431.22 222.534 431.336 222.58C431.453 222.625 431.577 222.648 431.703 222.648H433.592C433.717 222.648 433.841 222.626 433.957 222.58C434.072 222.535 434.178 222.468 434.267 222.384C434.355 222.3 434.426 222.199 434.474 222.088C434.522 221.978 434.547 221.859 434.547 221.739V198.113C434.547 197.993 434.522 197.875 434.474 197.764C434.426 197.653 434.355 197.553 434.267 197.469C434.178 197.384 434.072 197.318 433.957 197.272C433.841 197.227 433.717 197.204 433.592 197.205ZM420.515 213.648C420.515 210.223 422.697 207.827 425.813 207.827C426.463 207.801 427.111 207.91 427.713 208.148C428.315 208.385 428.856 208.745 429.298 209.202C429.298 209.202 430.755 210.537 430.755 211.652V215.444C430.755 216.452 429.89 217.514 429.312 218.054C428.872 218.518 428.333 218.886 427.732 219.133C427.13 219.379 426.48 219.499 425.827 219.483C422.697 219.51 420.515 217.1 420.515 213.648Z" fill="#5C5B59"/>
<path d="M469.119 212.487L475.392 206.057L475.434 206.017C475.569 205.89 475.661 205.726 475.697 205.548C475.733 205.369 475.712 205.185 475.637 205.018C475.562 204.851 475.435 204.71 475.275 204.613C475.114 204.516 474.927 204.468 474.737 204.475H472.263C472.132 204.474 472.002 204.499 471.882 204.548C471.762 204.597 471.654 204.67 471.566 204.762L463.828 212.413V198.113C463.828 197.993 463.804 197.875 463.756 197.764C463.707 197.653 463.637 197.553 463.548 197.469C463.459 197.384 463.354 197.318 463.238 197.272C463.123 197.227 462.998 197.204 462.873 197.205H460.984C460.732 197.205 460.49 197.301 460.312 197.471C460.133 197.641 460.031 197.872 460.029 198.113V221.733C460.029 221.975 460.13 222.208 460.309 222.38C460.488 222.551 460.731 222.648 460.984 222.648H462.873C463.127 222.648 463.37 222.551 463.549 222.38C463.728 222.208 463.828 221.975 463.828 221.733V217.447L466.247 214.957L471.573 222.24C471.659 222.365 471.776 222.466 471.913 222.536C472.051 222.606 472.204 222.642 472.36 222.641H475.044C475.219 222.64 475.391 222.594 475.541 222.505C475.69 222.417 475.811 222.291 475.889 222.14C475.968 221.99 476.002 221.822 475.987 221.655C475.972 221.487 475.908 221.327 475.804 221.192L469.119 212.487Z" fill="#5C5B59"/>
<path d="M515.997 212.487L522.271 206.057L522.313 206.017C522.448 205.89 522.54 205.726 522.576 205.548C522.612 205.369 522.591 205.185 522.516 205.018C522.441 204.851 522.313 204.71 522.153 204.613C521.993 204.516 521.806 204.468 521.615 204.475H519.148C519.018 204.474 518.887 204.499 518.768 204.548C518.648 204.597 518.54 204.67 518.45 204.762L510.707 212.413V198.113C510.707 197.993 510.682 197.875 510.634 197.764C510.586 197.653 510.516 197.553 510.426 197.469C510.338 197.384 510.233 197.318 510.117 197.272C510 197.227 509.876 197.204 509.752 197.205H507.863C507.611 197.205 507.369 197.301 507.192 197.471C507.015 197.641 506.915 197.872 506.915 198.113V221.733C506.914 221.853 506.938 221.971 506.985 222.082C507.032 222.193 507.102 222.294 507.19 222.379C507.278 222.464 507.384 222.532 507.498 222.578C507.615 222.624 507.737 222.648 507.863 222.648H509.752C510.005 222.648 510.249 222.551 510.428 222.38C510.607 222.208 510.707 221.975 510.707 221.733V217.447L513.112 214.957L518.438 222.24C518.523 222.365 518.641 222.466 518.777 222.536C518.916 222.606 519.07 222.642 519.225 222.641H521.908C522.084 222.64 522.255 222.594 522.404 222.505C522.554 222.417 522.675 222.291 522.753 222.14C522.832 221.99 522.866 221.822 522.851 221.655C522.837 221.487 522.772 221.327 522.668 221.192L515.997 212.487Z" fill="#5C5B59"/>
</g>
</g>
<path fill-rule="evenodd" clip-rule="evenodd" d="M347.48 591.724V542.022H224V591.724H347.48Z" fill="#5C5B59"/>
<path fill-rule="evenodd" clip-rule="evenodd" d="M236.075 546.816H249.497L257.741 574.56H257.855L263.502 546.816H273.647L265.122 586.824H251.746L243.335 559.141H243.221L237.627 586.824H227.482L236.075 546.816ZM277.621 546.816H288.393L285.229 562.122H297.962L301.135 546.816H311.907L303.55 586.824H292.778L296.35 569.689H283.609L280.036 586.824H269.263L277.621 546.816ZM340.259 555.874C338.185 554.903 335.36 554.045 331.386 554.045C327.124 554.045 323.665 554.67 323.665 557.884C323.665 563.553 339.283 561.437 339.283 573.589C339.283 584.648 328.963 587.516 319.629 587.516C315.481 587.516 310.696 586.538 307.184 585.446L309.72 577.308C311.846 578.687 316.116 579.604 319.629 579.604C322.976 579.604 328.214 578.972 328.214 574.846C328.214 568.424 312.596 570.833 312.596 559.548C312.596 549.226 321.704 546.132 330.524 546.132C335.482 546.132 340.146 546.651 342.856 547.908L340.259 555.874Z" fill="#FEFDFB"/>
<defs>
<clipPath id="clip0_5615_10228">
<rect width="172.87" height="39.9761" fill="white" transform="translate(350 189.935)"/>
</clipPath>
</defs>
</svg>
