<svg width="1310" height="270" viewBox="0 0 1310 270" fill="none" xmlns="http://www.w3.org/2000/svg">
<path d="M46.8204 78.4211C46.9117 78.4826 46.9958 78.5514 47.0726 78.6277C46.9958 78.5514 46.9117 78.4801 46.8204 78.4211Z" fill="#5C5B59"/>
<path d="M48.3817 84.225C45.4248 91.2585 37.3683 94.4679 30.3832 91.3913C30.3567 91.3815 30.3327 91.3692 30.3087 91.3569C30.2871 91.3471 30.2655 91.3348 30.2438 91.3249L34.9399 80.2459L43.7194 80.1819C43.8947 81.2542 44.8147 82.078 45.9148 82.0805H45.9509C47.1615 82.0633 48.1271 81.0574 48.1055 79.8278C48.0815 78.5957 47.0726 77.5997 45.8548 77.6071C44.7498 77.6144 43.8467 78.4481 43.7073 79.5253L34.9278 79.5892L31.1879 71.5425L32.4417 70.9572L30.9765 67.8068L27.8826 69.2529L29.3479 72.4032L30.6018 71.8179L34.3682 79.9213L29.6529 91.0421C29.5256 90.9757 29.3983 90.9093 29.2734 90.8405C29.2278 90.8159 29.1821 90.7888 29.1365 90.7642C29.0188 90.6978 28.9035 90.6314 28.7906 90.5601C28.7786 90.5552 28.7642 90.5478 28.7522 90.538C28.6393 90.4691 28.5264 90.4002 28.4159 90.3265C28.3702 90.297 28.3246 90.2674 28.2814 90.2379C28.1685 90.1642 28.0556 90.0879 27.9475 90.0092C27.813 89.9158 27.6809 89.8174 27.5511 89.719C27.419 89.6182 27.2917 89.5174 27.1644 89.4141C27.0443 89.3157 26.9266 89.2149 26.8089 89.114C26.7873 89.0944 26.7657 89.0747 26.7441 89.055C26.6384 88.9616 26.5351 88.8681 26.4342 88.7697C26.3285 88.6714 26.2228 88.5681 26.1195 88.4648C26.0427 88.3886 25.9682 88.3123 25.8985 88.2336C25.5142 87.8328 25.1587 87.4098 24.8296 86.972C24.7335 86.8441 24.6399 86.7138 24.5486 86.581C24.4573 86.4506 24.3684 86.3178 24.282 86.185C24.2003 86.0572 24.121 85.9317 24.0441 85.8014C24.0369 85.7891 24.0273 85.7768 24.0201 85.7645C23.9457 85.6391 23.8712 85.5112 23.8015 85.3833C23.7943 85.3735 23.7895 85.3661 23.7847 85.3563C23.7175 85.2358 23.6526 85.1153 23.5926 84.9947C23.5757 84.9652 23.5613 84.9357 23.5469 84.9062C23.4965 84.8128 23.4508 84.7169 23.4052 84.6209C23.3788 84.5668 23.3524 84.5127 23.3259 84.4562C23.2779 84.3529 23.2323 84.2496 23.1866 84.1438C23.165 84.0947 23.1458 84.0479 23.1266 83.9987C23.0905 83.92 23.0569 83.8438 23.0281 83.7626C22.9969 83.6938 22.9704 83.6225 22.944 83.5512C22.9008 83.4429 22.8599 83.3347 22.8239 83.2241C22.8143 83.1995 22.8047 83.1724 22.7951 83.1454C22.7542 83.0298 22.7134 82.9142 22.6798 82.7961C22.6582 82.7322 22.6365 82.6683 22.6197 82.6043C22.5957 82.5305 22.5717 82.4568 22.5525 82.383C22.5285 82.3043 22.5068 82.2256 22.4876 82.1469C22.4588 82.0436 22.4324 81.9428 22.4083 81.8395C22.4011 81.8124 22.3939 81.7854 22.3891 81.7608C22.3579 81.6354 22.3291 81.5075 22.3027 81.3821C22.2955 81.3403 22.2858 81.3009 22.2786 81.2591C22.2522 81.1411 22.2306 81.023 22.2114 80.905C22.1874 80.7648 22.1657 80.6271 22.1465 80.4869C22.1273 80.3762 22.1129 80.2656 22.1009 80.1524C22.0913 80.086 22.0841 80.0172 22.0769 79.9508C22.0721 79.9016 22.0673 79.8524 22.0649 79.8032C22.0504 79.6852 22.0408 79.5671 22.0336 79.4466C22.024 79.2941 22.0168 79.1417 22.0096 78.9892C22.0024 78.8219 22 78.6523 22 78.4826C22 76.675 22.3507 74.8453 23.0905 73.0845C26.0451 66.0509 34.1039 62.8415 41.0867 65.9181C48.0719 68.9947 51.3387 77.1914 48.3817 84.225Z" fill="#5C5B59"/>
<path d="M45.6554 78.1334C45.7083 78.1334 45.7851 78.1333 45.8644 78.1309C45.7635 78.1333 45.6987 78.1334 45.6554 78.1334Z" fill="#5C5B59"/>
<path d="M45.8692 82.0805C45.7875 82.0805 45.7251 82.0805 45.6818 82.083C45.7323 82.083 45.7971 82.0805 45.8692 82.0805Z" fill="#5C5B59"/>
<path d="M47.5867 79.8327C47.6035 80.7746 46.8588 81.5493 45.9268 81.5542C44.9948 81.5616 44.2238 80.7992 44.2046 79.8548C44.1877 78.9105 44.9324 78.1383 45.8644 78.1309H45.874C46.2223 78.1309 46.5466 78.2366 46.8204 78.4211C46.9117 78.4826 46.9957 78.5514 47.0726 78.6277C47.1495 78.7064 47.2215 78.79 47.2816 78.881C47.344 78.972 47.3969 79.0679 47.4425 79.1687C47.5314 79.3728 47.5843 79.5966 47.5867 79.8327Z" fill="#5C5B59"/>
<path d="M63.8839 67.4452H76.6508V70.7726H67.4798V75.6592H76.0767V78.9866H67.4798V84.638H77.4435L75.0871 87.9654H63.8887V67.4452H63.8839Z" fill="#5C5B59"/>
<path d="M81.9978 80.1326L76.9943 73.1261H80.7319L83.8954 77.57L87.0301 73.1261H90.7965L85.7931 80.1031L91.2841 87.963H87.5754L83.8954 82.7222L80.2155 87.963H76.5067L81.9978 80.1326Z" fill="#5C5B59"/>
<path d="M93.0569 83.4305C93.6598 84.4314 95.0121 85.2848 96.8809 85.2848C98.865 85.2848 99.4679 84.4314 99.4679 83.6666C99.4679 82.4296 97.7433 82.1369 95.4997 81.3106C93.3715 80.5163 91.9351 79.3973 91.9351 77.1298C91.9351 74.2746 94.2939 72.6859 97.0539 72.6859C99.2974 72.6859 100.791 73.5983 101.74 74.8648L99.8138 76.9552C99.2686 76.2494 98.4038 75.7182 96.9962 75.7182C95.9033 75.7182 95.2427 76.247 95.2427 77.0438C95.2427 78.1627 96.451 78.3103 98.8938 79.2227C101.567 80.1941 102.776 81.4901 102.776 83.6396C102.776 86.1997 100.964 88.3491 96.8233 88.3491C93.8039 88.3491 91.7333 87.1121 90.8422 85.3463L93.0569 83.4305Z" fill="#5C5B59"/>
<path d="M111.61 72.6564C113.767 72.6564 115.751 73.3917 117.418 75.2165L115.29 77.484C114.313 76.4535 113.162 75.8658 111.61 75.8658C109.081 75.8658 107.154 77.8381 107.154 80.5163C107.154 83.1944 109.081 85.1668 111.61 85.1668C113.162 85.1668 114.313 84.579 115.29 83.5486L117.418 85.816C115.751 87.6408 113.767 88.3761 111.61 88.3761C107.241 88.3761 103.732 85.0487 103.732 80.5163C103.732 75.9838 107.239 72.6564 111.61 72.6564Z" fill="#5C5B59"/>
<path d="M118.509 69.2995C118.509 68.1215 119.458 67.2091 120.58 67.2091C121.672 67.2091 122.621 68.1215 122.621 69.2995C122.621 70.4775 121.672 71.3899 120.58 71.3899C119.458 71.3899 118.509 70.4775 118.509 69.2995ZM118.855 73.1261H122.304V87.963H118.855V73.1261Z" fill="#5C5B59"/>
<path d="M123.837 80.5458C123.837 75.7772 127.087 72.7154 131.427 72.7154C135.741 72.7154 138.588 76.0428 138.588 80.1916C138.588 80.1916 138.588 80.8384 138.53 81.4287H127.26C127.375 83.7846 129.071 85.3143 131.629 85.3143C133.382 85.3143 134.447 84.7265 135.54 83.6076L137.61 85.6685C135.741 87.6998 133.7 88.3171 131.514 88.3171C126.971 88.3171 123.837 85.3143 123.837 80.6638V80.5458ZM135.078 78.9546C135.078 77.1889 133.44 75.7157 131.427 75.7157C129.27 75.7157 127.488 77.1593 127.344 78.9546H135.078Z" fill="#5C5B59"/>
<path d="M140.344 73.1261H143.764V75.246C144.425 73.8319 146.065 72.831 148.162 72.831C151.641 72.831 153.653 75.128 153.653 78.7775V87.963H150.204V79.2792C150.204 77.2774 149.082 75.9813 147.127 75.9813C145.172 75.9813 143.762 77.3954 143.762 79.4268V87.963H140.341V73.1261H140.344Z" fill="#5C5B59"/>
<path d="M157.417 76.3355H154.518V73.1261H157.417V67.4452H160.867V73.1261H163.853V76.3355H160.867V87.963H157.417V76.3355Z" fill="#5C5B59"/>
<path d="M165.217 69.2995C165.217 68.1215 166.166 67.2091 167.287 67.2091C168.38 67.2091 169.329 68.1215 169.329 69.2995C169.329 70.4775 168.38 71.3899 167.287 71.3899C166.166 71.3899 165.217 70.4775 165.217 69.2995ZM165.56 73.1261H169.01V87.963H165.56V73.1261Z" fill="#5C5B59"/>
<path d="M177.691 72.804C180.134 72.804 181.832 73.8934 182.32 75.2755V73.1261H185.769V87.963H182.32V85.8136C181.829 87.1981 180.134 88.2851 177.691 88.2851C173.607 88.2851 170.446 84.9282 170.446 80.5433C170.446 76.1584 173.607 72.804 177.691 72.804ZM177.888 85.2701C180.494 85.2701 182.502 83.2461 182.502 80.5458C182.502 77.8455 180.494 75.8215 177.888 75.8215C175.342 75.8215 173.422 77.8455 173.422 80.5458C173.422 83.2461 175.342 85.2701 177.888 85.2701Z" fill="#5C5B59"/>
<path d="M618.819 100.533L618.406 100.67L617.924 100.876L617.442 101.22L617.235 101.563L617.029 102.044L616.891 102.457V103.075L617.029 103.419L617.167 103.9L617.511 104.244L617.855 104.45L618.888 104.862L622.123 106.03L622.811 106.374L623.293 106.718L623.913 107.405L624.326 108.092C626.529 114.414 617.373 117.37 614.482 111.94L614.138 111.047L614 110.016H616.203L616.34 110.703L616.547 111.322L616.891 111.734L617.235 112.215L617.717 112.422L618.13 112.628L618.75 112.765H619.92L620.333 112.628L620.953 112.422L621.435 112.215C622.605 110.841 622.811 109.192 621.09 108.161L620.195 107.68L618.888 107.336L617.511 106.855L616.478 106.237L615.652 105.618L615.033 105L614.688 104.037L614.551 103.007L614.688 102.113L614.895 101.22L615.377 100.395L615.927 99.7766L616.616 99.1581C618.681 97.7837 621.572 98.196 623.224 100.189L623.844 100.876L624.188 101.77L624.326 102.732H621.985L621.848 102.113C621.641 101.22 620.815 100.533 619.92 100.395H618.819V100.533ZM646.629 114.621H644.289V100.12L644.427 99.433L644.771 99.0206L645.184 98.677L645.872 98.5396H646.216L646.629 98.7457L646.836 99.0206L647.18 99.3643L654.133 110.91L654.27 98.6083H656.611V113.109L656.473 113.796L656.129 114.277L655.509 114.621L654.89 114.758H654.477L654.133 114.621L653.789 114.414L653.513 114.071L646.423 102.388V114.621H646.629ZM669.621 98.5396L670.447 98.677C679.465 101.014 678.777 113.659 669.484 114.758H667.832C658.607 113.384 657.85 101.014 667.005 98.677L667.832 98.5396H669.621ZM696.399 98.677V114.689H694.059V98.677H696.399ZM689.86 100.876H683.045V105.962H689.86V108.161H683.045V114.621H680.704V100.258L680.842 99.5704L681.186 99.1581L681.668 98.8145L682.288 98.677H689.86V100.876ZM629.007 114.621H626.529L632.242 99.5704L632.449 99.1581L632.793 98.8145L633.206 98.677L633.688 98.5396L634.17 98.677L634.583 98.8145L634.927 99.1581L635.133 99.5704L640.778 114.621H638.369L636.785 110.085H630.521L629.007 114.621ZM668.658 100.739L667.556 100.876L666.386 101.22C661.223 103.488 662.049 111.322 667.556 112.49L668.658 112.628L669.828 112.49C675.61 111.391 675.954 103.075 670.929 101.22L669.828 100.876L668.658 100.739ZM633.757 101.701L631.416 108.023H636.166L633.757 101.701Z" fill="#5C5B59"/>
<path d="M675.06 63.766L673.752 62.1854L673.132 61.4982L672.444 60.8797C669.415 58.2682 665.353 58.9554 661.912 60.055L659.158 60.8797L657.781 61.2233C653.995 61.9792 650.003 61.5669 648.488 57.5123L648.282 56.4127L648.144 55.3819L648.35 54.3511L648.695 53.2515C650.14 49.6779 655.578 48.7845 659.02 49.6779L660.672 50.0215L662.187 50.5026C666.799 52.0145 670.516 55.1757 673.063 59.2991L673.889 60.6735L675.06 63.766Z" fill="#5C5B59"/>
<path fill-rule="evenodd" clip-rule="evenodd" d="M675.266 64.3158L675.472 65.5528L675.817 66.9273C676.711 73.8682 674.027 81.1528 668.52 85.5511L666.936 86.8568L665.353 87.7502C659.227 91.1863 651.31 91.1176 645.252 87.544L643.876 86.6506L642.499 85.5511L643.6 85.8947L644.702 86.1008C650.209 86.9942 654.89 85.4136 658.194 80.7405L659.502 78.6101L660.534 76.5484C663.081 70.7757 665.009 64.4533 672.306 63.9035H673.82L675.266 64.3158Z" fill="#5C5B59"/>
<path fill-rule="evenodd" clip-rule="evenodd" d="M648.006 83.9704L646.905 84.4515C638.437 86.5819 634.376 75.1052 634.995 68.5766L635.133 67.477L635.959 68.5079L636.854 69.4013C640.64 73.3872 644.151 73.1123 648.625 75.5176L649.039 75.9986L649.383 76.4109C650.966 78.4726 650.622 81.2215 649.039 83.1458L648.419 83.4894L648.006 83.9704Z" fill="#5C5B59"/>
<path fill-rule="evenodd" clip-rule="evenodd" d="M314.89 65L299 80.5101L314.889 95.8998L330.777 80.5101L314.89 65ZM319.644 81.9756C318.017 82.5866 316.641 82.5866 315.765 82.5866C314.514 82.7088 312.387 82.2209 312.387 82.2209H312.262L309.51 86.0063H307.633L310.635 81.6099L310.135 81.3664V80.7554H308.884V82.4644L307.382 83.0754V79.1669H311.136L313.513 74.8926H311.511V75.7471H310.009V74.8926H309.008V75.7471H307.382V73.3049H316.14L315.764 74.2825H316.265L316.64 73.6715L316.891 73.3049H319.643C319.392 75.3814 316.515 75.8693 315.014 75.8693V79.0447C317.016 79.777 318.893 78.9225 319.392 78.8003C319.893 78.5559 320.393 78.5559 320.393 78.5559L322.019 80.7554C321.769 80.8776 321.52 81.1211 321.269 81.2425L324.397 86.1277H322.52L319.644 81.9756Z" fill="#5C5B59"/>
<path fill-rule="evenodd" clip-rule="evenodd" d="M333.656 83.9299H334.156C335.282 83.6863 336.158 83.3189 336.158 81.9756V72.5726H338.285V81.9756C338.285 84.1751 337.16 85.6406 334.657 85.6406C334.657 85.6406 334.156 85.7628 333.907 85.6406L333.656 83.9299ZM347.418 80.0222H343.415L345.292 75.6258L347.418 80.0222ZM339.161 85.3954H341.038L342.789 81.7321H348.169L349.921 85.3954H351.923L346.042 72.5726H344.666L339.161 85.3954ZM446.63 80.0222H442.626L444.504 75.6258L446.63 80.0222ZM438.373 85.3954H440.25L442.001 81.7321H447.381L449.132 85.3954H451.134L445.254 72.5726H443.878L438.373 85.3954ZM352.673 72.5726H354.174L362.932 82.0995V72.5726H364.808V85.3954H363.307L354.675 75.8702V85.3954H352.673V72.5726ZM392.583 72.5726H394.084L402.842 82.0995H402.967V72.5726H404.718V85.3954H403.342L394.583 75.8702V85.3954H392.583V72.5726ZM366.56 82.0995C367.686 83.0762 368.436 83.8085 370.063 83.8085C371.188 83.8085 372.19 83.3198 372.19 82.0995C372.19 79.2899 366.435 79.6565 366.435 75.6258C366.435 73.7937 368.187 72.4504 370.314 72.4504C371.69 72.4504 372.565 72.817 373.442 73.3049V75.3814C372.817 74.6491 371.69 74.0381 370.314 74.0381C369.187 74.0381 368.312 74.5269 368.312 75.6258C368.312 77.8236 373.942 78.068 373.942 81.8543C373.942 83.9307 372.441 85.3962 369.938 85.3962C368.437 85.3962 367.437 85.1527 366.56 84.2982L366.56 82.0995ZM374.817 82.0995C375.817 83.0762 376.694 83.8085 378.195 83.8085C379.446 83.8085 380.322 83.3198 380.322 82.0995C380.322 79.2899 374.692 79.6565 374.692 75.6258C374.692 73.7937 376.443 72.4504 378.57 72.4504C379.821 72.4504 380.698 72.817 381.698 73.3049V75.3814C381.073 74.6491 379.821 74.0381 378.445 74.0381C377.445 74.0381 376.568 74.5269 376.568 75.6258C376.568 77.8236 382.199 78.068 382.199 81.8543C382.199 83.9307 380.698 85.3962 378.195 85.3962C376.694 85.3962 375.693 85.1527 374.817 84.2982V82.0995ZM383.7 72.5726H391.08V74.4047H385.451V78.1902H390.831V79.9H385.451V83.6863H391.207V85.3954H383.7V72.5726ZM407.095 78.068H411.725V79.7778H407.095V78.068ZM425.486 84.4187C423.609 85.2732 421.858 85.5184 420.607 85.5184C416.354 85.5184 413.726 82.5857 413.726 78.9225C413.726 75.3805 416.73 72.5718 420.857 72.5718C422.858 72.5718 424.235 73.0606 425.237 73.6707V75.5027C423.736 74.6482 422.858 74.2817 420.732 74.2817C418.231 74.2817 415.603 75.8693 415.603 79.0447C415.603 81.7312 417.605 83.929 420.358 83.929C422.486 83.929 423.862 83.4402 425.487 82.4635L425.486 84.4187ZM427.239 72.5726H429.115V85.3954H427.239V72.5726ZM431.366 72.5726H433.243V83.6863H437.998V85.3954H431.366V72.5726ZM460.892 80.5101H458.264V78.8011H462.769V84.176C461.393 84.9083 459.892 85.3962 457.764 85.3962C453.511 85.3962 450.758 82.4653 450.758 78.9242C450.758 75.2601 453.635 72.3291 458.014 72.3291C459.765 72.3291 461.141 72.6957 462.267 73.4289V75.2609C461.016 74.4064 459.39 74.039 457.388 74.039C455.637 74.039 452.76 75.3823 452.76 78.9242C452.76 81.4894 454.76 83.6872 457.639 83.6872C458.389 83.6872 460.016 83.565 460.891 82.9549L460.892 80.5101Z" fill="#5C5B59"/>
<path d="M874.19 83.6386L877.297 87.3473C876.43 88.2719 875.407 88.9895 874.29 89.4574C873.116 89.938 871.876 90.1715 870.628 90.1464C869.294 90.151 867.972 89.865 866.733 89.304C865.598 88.7887 864.563 88.0271 863.685 87.062C862.834 86.1215 862.16 84.9953 861.705 83.7516C860.765 81.1653 860.765 78.2637 861.705 75.6774C862.16 74.4303 862.83 73.2984 863.676 72.3481C864.549 71.3761 865.582 70.608 866.717 70.0873C867.959 69.5197 869.289 69.237 870.628 69.2557C871.861 69.2445 873.087 69.4814 874.247 69.9554C874.394 70.0182 874.539 70.0828 874.682 70.1492C875.013 70.3108 875.304 70.5607 875.531 70.8775C875.759 71.1943 875.915 71.5686 875.986 71.9685C876.058 72.3684 876.042 72.7819 875.942 73.1738C875.842 73.5656 875.659 73.9241 875.41 74.2186V74.2186C875.088 74.593 874.673 74.8472 874.22 74.9472C873.767 75.0473 873.298 74.9884 872.875 74.7784C872.799 74.7434 872.723 74.7085 872.637 74.6762C872.001 74.4218 871.331 74.2969 870.657 74.3074C870.067 74.304 869.483 74.4292 868.935 74.6762C868.402 74.9163 867.916 75.2761 867.509 75.7339C867.083 76.2155 866.75 76.7919 866.531 77.4268C866.282 78.1503 866.159 78.9218 866.17 79.6983C866.159 80.4714 866.282 81.2395 866.531 81.9591C866.753 82.5981 867.088 83.1788 867.516 83.6655C867.921 84.1312 868.407 84.4976 868.942 84.742C869.49 84.989 870.074 85.1142 870.664 85.1108C872.189 85.1054 873.364 84.6146 874.19 83.6386Z" fill="#5C5B59"/>
<path d="M877.129 79.7306C877.12 78.3383 877.359 76.9582 877.83 75.672C878.286 74.426 878.96 73.2972 879.811 72.3535C880.688 71.3874 881.725 70.6257 882.861 70.1116C884.099 69.5504 885.422 69.2706 886.756 69.288C888.102 69.2689 889.439 69.5487 890.691 70.1116C891.831 70.6243 892.871 71.3861 893.751 72.3535C894.603 73.2983 895.278 74.4267 895.739 75.672C896.687 78.2714 896.687 81.1899 895.739 83.7893C895.278 85.0346 894.603 86.163 893.751 87.1078C892.869 88.0749 891.827 88.8342 890.684 89.3417C889.427 89.8945 888.088 90.1686 886.739 90.1491C885.409 90.1673 884.088 89.8874 882.854 89.3255C881.724 88.8116 880.694 88.0538 879.82 87.0943C878.971 86.1516 878.298 85.026 877.84 83.7839C877.363 82.5012 877.121 81.1223 877.129 79.7306V79.7306ZM882.293 79.7118C882.284 80.4679 882.404 81.2189 882.645 81.9241C882.862 82.5658 883.191 83.1515 883.613 83.6466C884.021 84.1221 884.51 84.4985 885.051 84.7528C885.607 85.0138 886.204 85.1456 886.806 85.1404C887.413 85.1464 888.015 85.0146 888.577 84.7528C889.114 84.5031 889.6 84.1301 890.004 83.6574C890.416 83.1616 890.74 82.5792 890.955 81.943C891.197 81.2315 891.316 80.4741 891.307 79.7118C891.316 78.9583 891.196 78.2098 890.955 77.5075C890.74 76.8743 890.417 76.2953 890.004 75.8039C889.599 75.333 889.113 74.9603 888.577 74.7085C888.017 74.4487 887.418 74.317 886.813 74.3209C886.211 74.3157 885.614 74.4475 885.058 74.7085C884.522 74.9603 884.037 75.333 883.632 75.8039C883.218 76.2953 882.895 76.8743 882.68 77.5075C882.427 78.2071 882.295 78.9556 882.293 79.7118V79.7118Z" fill="#5C5B59"/>
<path d="M916.415 79.012V89.5301H911.217V79.1439C911.233 78.3715 911.148 77.6006 910.965 76.8562C910.833 76.3076 910.593 75.7998 910.264 75.3706C909.971 75.0026 909.6 74.7247 909.187 74.5631C908.742 74.3947 908.276 74.3119 907.808 74.3182C907.214 74.3076 906.626 74.4464 906.086 74.7246C905.584 74.9852 905.137 75.3631 904.774 75.8335C904.401 76.3306 904.119 76.9071 903.946 77.5291C903.752 78.2198 903.656 78.9412 903.663 79.6661V89.522H898.499V69.9124H902.66L902.976 71.4061C903.762 70.7741 904.624 70.2712 905.535 69.9124C906.02 69.7211 906.516 69.5691 907.021 69.4575C907.527 69.3453 908.043 69.2885 908.559 69.288C909.774 69.2542 910.985 69.4816 912.125 69.9582C913.066 70.3665 913.904 71.029 914.567 71.8879C915.227 72.7788 915.705 73.8224 915.97 74.9453C916.284 76.2711 916.433 77.6397 916.415 79.012V79.012Z" fill="#5C5B59"/>
<path d="M929.91 69.9124H935.457L928.189 89.5301H923.56L916.305 69.9124H921.838L925.849 81.6981H925.883L929.91 69.9124Z" fill="#5C5B59"/>
<path d="M934.846 79.7306C934.839 78.3434 935.06 76.9668 935.5 75.672C935.918 74.4319 936.548 73.2977 937.355 72.3346C938.18 71.3558 939.176 70.5821 940.279 70.0631C941.503 69.4919 942.817 69.209 944.141 69.2314C944.687 69.2292 945.233 69.2859 945.769 69.401C946.269 69.5082 946.758 69.6668 947.232 69.8747C947.67 70.0663 948.095 70.2967 948.501 70.5637C948.871 70.806 949.223 71.0814 949.555 71.3872L949.783 69.9123H954.177V89.53H949.783L949.545 88.0551C948.837 88.6881 948.051 89.2013 947.213 89.5785C946.238 90.0148 945.196 90.2297 944.148 90.2109C942.83 90.2324 941.521 89.9494 940.303 89.3793C939.199 88.8642 938.199 88.1016 937.362 87.1373C936.548 86.1826 935.914 85.0497 935.5 83.8081C935.06 82.507 934.838 81.124 934.846 79.7306V79.7306ZM940.011 79.7118C940.002 80.4792 940.128 81.241 940.379 81.9537C940.607 82.5985 940.945 83.1865 941.373 83.6843C941.793 84.1641 942.293 84.5439 942.845 84.8012C943.997 85.3287 945.285 85.3287 946.438 84.8012C946.989 84.5439 947.49 84.1641 947.909 83.6843C948.337 83.188 948.671 82.5995 948.894 81.9537C949.141 81.2397 949.263 80.4785 949.255 79.7118C949.263 78.9539 949.138 78.2019 948.887 77.4994C948.657 76.8577 948.319 76.2727 947.893 75.7769C947.473 75.2971 946.972 74.9173 946.421 74.66C945.263 74.1325 943.97 74.1325 942.812 74.66C942.262 74.9154 941.764 75.2955 941.349 75.7769C940.926 76.2722 940.594 76.8577 940.372 77.4994C940.126 78.2032 940.003 78.9547 940.011 79.7118V79.7118Z" fill="#5C5B59"/>
<path d="M959.595 66.3409L960.195 64.5L963.906 64.4623V69.9124H968.937V74.9265H963.906V81.8111C963.893 82.3214 963.958 82.8304 964.099 83.3156C964.203 83.6724 964.381 83.9961 964.617 84.2603C964.835 84.4953 965.103 84.6622 965.395 84.7447C965.711 84.8355 966.036 84.8798 966.362 84.8766H969.253L969.22 89.6619H965.861C964.938 89.6673 964.017 89.5691 963.112 89.3686C962.29 89.1949 961.515 88.807 960.848 88.2355C960.162 87.6138 959.634 86.7975 959.317 85.8697C958.943 84.8542 958.757 83.5201 958.758 81.8676V74.9265H956V70.4507C956.824 70.0952 957.57 69.5447 958.191 68.8359C958.811 68.1271 959.29 67.2764 959.595 66.3409V66.3409Z" fill="#5C5B59"/>
<path d="M981.532 82.1717H975.549C975.908 83.0917 976.502 83.8689 977.254 84.4029C978.003 84.9409 978.874 85.2214 979.76 85.2103C980.224 85.2163 980.688 85.1785 981.146 85.0973C981.501 85.034 981.848 84.9293 982.183 84.7851C982.468 84.6631 982.74 84.5051 982.994 84.3141C983.235 84.1347 983.477 83.9355 983.721 83.7166L986.53 87.1993C986.177 87.5702 985.799 87.9094 985.4 88.2139C984.915 88.5888 984.401 88.9122 983.864 89.1802C983.247 89.4842 982.606 89.7247 981.95 89.8988C981.21 90.0919 980.453 90.1868 979.694 90.1814C978.37 90.1991 977.057 89.9163 975.832 89.3497C974.705 88.8277 973.68 88.0595 972.815 87.0889C971.532 85.6173 970.66 83.7507 970.308 81.7219C969.956 79.6931 970.139 77.5918 970.835 75.6801C971.291 74.4334 971.962 73.3017 972.808 72.3508C973.676 71.3815 974.704 70.6135 975.832 70.09C977.063 69.5224 978.382 69.2396 979.71 69.2584C980.846 69.2448 981.978 69.4171 983.07 69.7697C983.989 70.0595 984.853 70.5375 985.619 71.18C986.3 71.7573 986.857 72.5005 987.25 73.3547C987.638 74.2218 987.835 75.1819 987.825 76.1538C987.829 76.9362 987.728 77.7147 987.526 78.463C987.327 79.1894 986.973 79.8494 986.496 80.3846C985.944 80.9778 985.282 81.4238 984.558 81.69C983.58 82.04 982.557 82.2028 981.532 82.1717V82.1717ZM979.844 74.0975C978.909 74.0914 977.996 74.4119 977.228 75.0153C976.846 75.3136 976.503 75.6705 976.208 76.0757C975.904 76.4885 975.657 76.9502 975.473 77.4456H980.704C981.258 77.4758 981.808 77.3393 982.3 77.05C982.435 76.9765 982.555 76.8706 982.651 76.7397C982.747 76.6087 982.817 76.4557 982.856 76.2913C982.895 76.1268 982.902 75.9548 982.876 75.7871C982.851 75.6193 982.794 75.4597 982.709 75.3194C982.562 75.0716 982.368 74.8646 982.14 74.7138C981.845 74.5121 981.524 74.3624 981.189 74.2698C980.749 74.1448 980.297 74.0851 979.844 74.0921V74.0975Z" fill="#5C5B59"/>
<path d="M1002.09 83.6386L1005.2 87.3473C1004.33 88.2719 1003.31 88.9895 1002.19 89.4574C1001.02 89.9422 999.774 90.1784 998.525 90.1545C997.191 90.1591 995.869 89.8731 994.63 89.3121C993.494 88.7969 992.458 88.0353 991.58 87.0701C990.73 86.1284 990.056 85.0025 989.599 83.7597C988.663 81.1727 988.663 78.2725 989.599 75.6855C990.055 74.4383 990.726 73.3064 991.573 72.3562C992.445 71.3836 993.478 70.6154 994.614 70.0954C995.856 69.5297 997.186 69.2488 998.525 69.2692C999.758 69.2582 1000.98 69.4951 1002.14 69.9689C1002.29 70.0308 1002.43 70.0954 1002.58 70.1627C1002.91 70.3243 1003.2 70.5742 1003.43 70.891C1003.65 71.2078 1003.81 71.5821 1003.88 71.982C1003.95 72.3819 1003.94 72.7954 1003.84 73.1872C1003.74 73.5791 1003.55 73.9376 1003.3 74.2321V74.2321C1002.98 74.6066 1002.57 74.8609 1002.12 74.961C1001.66 75.061 1001.19 75.002 1000.77 74.7919L1000.53 74.6897C999.898 74.4356 999.228 74.3108 998.553 74.3209C997.964 74.3173 997.379 74.4425 996.832 74.6897C996.299 74.9303 995.813 75.29 995.405 75.7474C994.981 76.2304 994.649 76.8065 994.428 77.4403C994.18 78.164 994.058 78.9355 994.069 79.7118C994.057 80.4847 994.179 81.2528 994.428 81.9726C994.651 82.6049 994.983 83.1805 995.405 83.6655C995.811 84.1309 996.296 84.4973 996.832 84.7421C997.379 84.9892 997.964 85.1144 998.553 85.1108C1000.09 85.1054 1001.27 84.6147 1002.09 83.6386Z" fill="#5C5B59"/>
<path d="M749.889 192.194C750.19 191.541 750.213 191.264 750.213 189.526C749.442 189.653 748.398 189.804 747.12 190.081C744.928 190.557 744.554 191.387 744.554 192.22C744.554 193.176 745.302 193.981 746.772 193.981C748.144 193.982 749.317 193.428 749.889 192.194ZM752.599 195.475L750.538 195.483C750.538 195.483 750.359 194.645 750.303 193.73C749.702 194.355 748.592 195.651 746.348 195.651C744.052 195.651 742.35 194.28 742.35 192.271C742.35 191.641 742.525 191.013 742.876 190.484C743.551 189.477 744.803 188.673 748.319 188.395L750.19 188.244V187.944C750.19 186.711 750.19 184.649 747.553 184.649C745.895 184.649 745.332 185.458 745.14 186.191L743.314 185.421C743.343 185.359 743.376 185.293 743.411 185.227C744.112 183.919 745.488 183.114 747.478 183.114C748.571 183.114 749.989 183.392 750.914 184.12C752.229 185.125 752.197 187.104 752.197 187.104L752.277 193.204C752.277 193.206 752.346 194.978 752.599 195.475ZM818.501 192.194C818.799 191.541 818.826 191.264 818.826 189.526C818.056 189.653 817.01 189.804 815.732 190.081C813.539 190.557 813.165 191.387 813.165 192.22C813.165 193.176 813.913 193.981 815.384 193.981C816.756 193.982 817.927 193.428 818.501 192.194ZM821.211 195.475L819.149 195.483C819.148 195.483 818.97 194.645 818.912 193.73C818.313 194.355 817.205 195.651 814.96 195.651C812.664 195.651 810.961 194.28 810.961 192.271C810.961 191.641 811.136 191.013 811.486 190.484C812.162 189.477 813.413 188.673 816.929 188.395L818.798 188.244V187.944C818.798 186.711 818.798 184.649 816.163 184.649C814.506 184.649 813.943 185.458 813.75 186.191L811.925 185.421C811.955 185.355 811.988 185.291 812.023 185.227C812.725 183.919 814.1 183.114 816.087 183.114C817.182 183.114 818.601 183.392 819.525 184.12C820.84 185.125 820.809 187.104 820.809 187.104L820.888 193.204C820.888 193.206 820.958 194.978 821.211 195.475ZM798.687 193.203C798.013 194.362 796.708 195.691 794.139 195.691C790.652 195.691 788.646 193.303 788.646 189.302C788.646 184.832 791.572 183.125 794.063 183.125C796.23 183.125 798.307 184.329 799.004 187.318C799.23 188.322 799.23 189.227 799.23 189.73H790.746C790.695 191.719 791.524 194.232 794.314 194.186C795.451 194.165 796.253 193.644 796.765 192.829L798.687 193.203ZM790.793 188.295H797.055C796.88 185.182 795.101 184.656 793.912 184.656C792.219 184.656 791.018 185.91 790.793 188.295ZM776.154 193.203C775.478 194.362 774.174 195.691 771.603 195.691C768.116 195.691 766.11 193.303 766.11 189.302C766.11 184.832 769.037 183.125 771.529 183.125C773.696 183.125 775.77 184.329 776.471 187.318C776.696 188.322 776.696 189.227 776.696 189.73H768.211C768.16 191.719 768.989 194.232 771.779 194.186C772.916 194.165 773.719 193.644 774.23 192.829L776.154 193.203ZM768.258 188.295H774.522C774.347 185.182 772.566 184.656 771.378 184.656C769.684 184.656 768.483 185.91 768.258 188.295ZM810.379 193.354C809.638 194.527 808.292 195.703 805.875 195.703C801.701 195.703 800.124 192.463 800.124 189.553C800.124 186.19 801.941 183.141 805.702 183.141C807.176 183.141 809.242 183.589 810.383 185.507L808.527 186.287C808.175 185.508 807.42 184.608 805.774 184.608C802.518 184.608 802.327 188.347 802.327 189.402C802.327 193.323 804.563 194.171 805.9 194.171C807.43 194.171 808.208 193.431 808.621 192.617L810.379 193.354ZM779.816 183.645V185.374C780.918 183.433 782.798 183.257 783.499 183.257C785.002 183.257 786.804 184.015 787.381 185.978C787.58 186.681 787.58 187.408 787.58 188.411V195.463H785.604V188.737C785.604 187.532 785.604 187.181 785.479 186.78C785.129 185.651 784.025 185.149 782.948 185.149C782.072 185.149 781.32 185.424 780.694 186.052C779.816 186.931 779.816 187.834 779.816 188.716V195.464H777.834V183.645H779.816ZM765.19 179.818V181.77L756.399 193.586H765.41V195.463H753.998V193.43L762.833 181.745H754.005V179.818H765.19ZM738.234 183.563V185.693C739.357 183.447 741.477 183.395 742.277 183.369V185.431C740.331 185.444 739.377 185.846 738.733 186.902C738.206 187.762 738.234 188.971 738.234 189.994V195.462H736.251V183.563H738.234ZM732.317 183.533H734.463V185.196H732.317V191.965C732.317 193.369 732.317 193.973 733.165 193.973C733.539 193.973 734.065 193.821 734.463 193.695V195.342C734.113 195.392 733.291 195.543 732.542 195.543C730.245 195.543 730.245 194.42 730.27 192.869V185.195H728.399V183.532H730.27V180.69L732.317 179.83V183.533ZM722.467 190.059C720.448 189.619 718.362 189.139 718.362 186.684C718.362 184.53 720.172 183.172 722.904 183.172C724.67 183.172 726.359 183.834 727.2 185.454L725.362 186.226C725.216 185.796 724.266 184.705 722.678 184.705C721.123 184.705 720.344 185.632 720.344 186.433C720.344 187.561 721.823 188.03 723.084 188.285C725.696 188.814 727.965 189.488 727.965 191.967C727.965 193.895 726.266 195.703 723.021 195.703C720.631 195.703 718.934 194.897 718.116 193.218L720.213 192.848C720.739 193.77 721.69 194.17 723.107 194.17C724.862 194.17 725.892 193.495 725.892 192.217C725.892 190.864 724.204 190.44 722.467 190.059ZM715.549 195.463H717.73L712.075 179.814H709.919L704 195.463H706.2L707.938 190.667H713.857L715.549 195.463ZM708.598 188.911L710.975 182.411L713.24 188.911H708.598Z" fill="#5C5B59"/>
<path fill-rule="evenodd" clip-rule="evenodd" d="M822.009 179.703L826.29 181.954L830.551 184.29L833.722 186.084C830.344 187.969 822.259 195.449 830.93 196.006C833.346 195.897 842.401 194.143 843.822 192.38C844.066 192.027 844.083 191.651 843.87 191.273L843.657 190.978L843.41 190.734L843.176 190.549L841.239 189.361L838.857 187.943C849.234 181.26 853.27 177.257 838.76 173.099C838.719 172.709 838.715 172.002 838.71 171.109C838.685 166.454 838.632 156.75 833.033 160.622C828.83 164.156 822.679 171.654 820.214 176.435C819.388 178.129 820.158 178.594 821.382 179.334C821.527 179.421 821.678 179.512 821.833 179.61L821.82 179.604L821.837 179.612L822.009 179.703ZM828.581 172.936C829.119 175.037 832.644 180.614 834.454 181.551L834.856 181.676L835.099 181.672L835.344 181.563L835.454 181.448L835.552 181.232L835.586 181.076L835.615 180.628L835.539 178.347L835.345 175.436L829.016 172.705L828.649 172.573L828.612 172.57L828.59 172.571L828.575 172.581L828.564 172.596L828.551 172.641L828.581 172.936ZM822.281 177.946C822.161 177.582 822.606 177.089 822.821 176.859L827.066 172.499C829.648 178.342 837.923 191.257 838.6 176.903L840.379 177.74L842.041 178.712L842.457 179.06L842.641 179.341L842.682 179.496L842.671 179.655L842.62 179.786L842.411 180.064L841.642 180.744L840.651 181.49L839.345 182.387L834.543 185.502L827.452 181.417L823.562 179.074L822.581 178.365L822.438 178.225L822.281 177.946ZM829.458 170.908L828.581 170.849C831.859 167.626 833.294 165.43 834.036 165.644C834.657 165.822 834.793 167.686 835.117 172.041L832.191 171.36L829.458 170.908ZM835.184 190.437L837.917 188.568L839.714 189.718L840.671 190.372L841.323 190.892L841.589 191.153L841.78 191.391L841.784 191.409V191.431L841.778 191.452L841.762 191.477L841.731 191.496L832.938 192.19L833.312 191.844L835.184 190.437Z" fill="#5C5B59"/>
<path d="M1034.59 167.415C1034.59 158.538 1028.25 155.053 1020.81 153.888C1018.18 153.518 1015.32 153.424 1012.69 153.424C1002.05 153.424 984.344 155.1 978.508 167.043C977.614 168.856 977 171.366 977 173.41C977 180.985 981.164 189.098 986.662 194.887C991.834 200.331 997.477 202.685 1003.5 202.685C1008.16 202.685 1012.07 201.127 1015.65 198.523C1023.89 192.433 1034.59 178.477 1034.59 167.415H1034.59Z" fill="#FEFDFB"/>
<path fill-rule="evenodd" clip-rule="evenodd" d="M1005.95 175.624C1004.05 174.674 1002.23 173.817 1002.23 172.297C1002.23 171.015 1003.61 170.445 1005.05 170.445C1006.53 170.445 1007.91 170.967 1009.06 171.87V169.732C1007.86 169.067 1006.48 168.734 1005.1 168.734C1002.52 168.734 999.653 170.019 999.653 172.964C999.653 175.388 1001.8 176.431 1003.81 177.38C1005.62 178.237 1007.29 178.996 1007.29 180.565C1007.29 182.133 1005.62 182.466 1004.28 182.466C1003.04 182.466 1001.09 181.943 999.509 181.089V183.273C1001.04 183.892 1002.52 184.225 1004.19 184.225C1006.86 184.225 1010.06 183.131 1010.06 179.947C1010.06 177.763 1007.96 176.623 1005.95 175.624ZM1003.97 201.424H1004.04C1008.32 201.415 1011.98 199.897 1015.41 197.388C1023.62 191.305 1034.03 177.667 1034.03 167.072C1034.03 159.136 1028.25 155.62 1020.99 154.479C1018.37 154.052 1015.98 154.005 1013.36 154.005C1002.37 154.005 985.425 155.905 979.981 167.118C979.183 168.709 978.707 170.943 978.693 172.826V173.051C978.705 175.893 979.142 178.47 980.364 181.184C982.464 185.84 986.236 188.5 991.392 188.5C992.825 188.5 994.114 188.358 994.926 188.074C995.737 187.74 996.549 187.123 996.549 185.981C996.549 185.413 996.12 184.795 995.499 184.558C994.831 184.321 994.258 184.274 992.491 184.177C990.725 184.081 990.103 184.033 988.863 183.938C986.905 183.749 985.902 182.466 985.902 181.232C985.902 180.137 986.666 179.187 988.099 178.521C986.188 177.808 984.868 176.007 984.868 173.972C984.868 171.019 987.18 168.734 990.921 168.734C991.732 168.734 992.682 168.924 993.493 169.162C994.162 169.351 994.878 169.494 995.642 169.494C996.549 169.494 997.599 169.448 998.46 169.21V171.111C997.982 171.015 996.454 170.919 995.642 170.919C996.406 171.776 996.835 172.965 996.835 174.104C996.835 176.765 994.735 178.996 991.012 178.996C990.692 178.996 990.345 178.982 989.943 178.936C989.554 179.012 989.202 179.179 988.931 179.403C988.524 179.728 988.337 180.15 988.337 180.516C988.337 181.136 988.672 181.611 990.199 181.705L993.493 181.896C996.693 182.086 998.412 183.371 998.364 185.649C998.269 188.262 996.168 190.164 991.106 190.164C989.769 190.164 988.003 189.927 986.427 189.45C985.281 189.119 984.183 188.5 983.228 187.788C987.521 195.097 995.147 201.41 1003.97 201.423V201.424ZM1026.01 183.319C1025.2 183.319 1023.86 182.752 1022.09 180.85C1019.8 178.332 1017.36 175.48 1017.36 175.48L1021.42 171.679C1023.81 169.447 1024.48 169.304 1024.67 169.256H1020.9C1020.13 170.254 1019.28 171.014 1019.28 171.014L1014.93 175.054V162.319L1011.64 163.173C1012.07 163.744 1012.21 164.696 1012.21 166.833V179.996C1012.21 182.654 1012.07 182.942 1011.78 183.701H1015.31C1015.07 183.083 1014.93 182.655 1014.93 179.996V176.193C1014.93 176.193 1016.89 178.52 1019.32 181.42C1020.85 183.225 1022.09 184.033 1023.57 184.033C1024.72 184.033 1025.77 183.748 1026.49 183.225C1026.34 183.272 1026.15 183.319 1026.01 183.319ZM991.096 177.475C988.756 177.475 987.477 175.763 987.477 173.577C987.477 171.629 988.683 170.302 990.688 170.302C992.979 170.302 994.21 172 994.21 174.138C994.21 176.087 993.148 177.475 991.096 177.475Z" fill="#5C5B59"/>
<path d="M1121.18 190.688C1121.2 190.594 1121.2 190.454 1121.2 190.345C1121.2 188.427 1120.53 187.032 1118.44 187.032C1116.62 187.032 1115.52 188.409 1115.52 190.31C1115.52 192.447 1116.48 193.822 1118.77 193.822C1119.87 193.822 1120.25 193.586 1120.68 193.397V192.209C1120.39 192.447 1119.63 192.874 1118.82 192.874C1117.67 192.874 1116.81 191.969 1116.81 190.688H1121.18ZM1119.92 189.786H1116.81C1116.91 188.979 1117.24 187.981 1118.44 187.981C1119.49 187.981 1119.92 188.788 1119.92 189.786ZM1114.38 193.683V189.832C1114.38 188.077 1113.66 187.032 1111.99 187.032C1111.09 187.032 1110.27 187.459 1109.94 188.219H1109.89V187.176H1108.75V193.683H1109.94V190.688C1109.94 189.073 1110.47 187.934 1111.85 187.982C1112.9 188.031 1113.19 188.789 1113.19 190.31V193.683L1114.38 193.683ZM1105.81 193.683H1107.01V187.176H1105.81V193.683ZM1108.3 185.039C1108.3 184.66 1108.01 184.327 1107.63 184.327C1107.25 184.327 1106.91 184.66 1106.91 185.039C1106.91 185.415 1107.25 185.703 1107.63 185.703C1108.01 185.703 1108.3 185.415 1108.3 185.039ZM1104.63 193.632C1104.16 193.49 1104.06 193.159 1104.06 192.731V184.66H1102.82V192.874C1102.82 193.49 1103.11 193.823 1103.77 193.823C1104.2 193.823 1104.44 193.728 1104.63 193.632L1104.63 193.632ZM1102.06 193.684L1098.31 189.02L1101.74 184.804H1100.27L1097.12 188.747V184.804H1095.87V193.684H1097.12V189.363L1100.41 193.684H1102.06ZM1094.07 193.683V189.832C1094.07 188.077 1093.36 187.032 1091.69 187.032C1090.78 187.032 1090.11 187.413 1089.68 188.126H1089.63V184.66H1088.44V193.683H1089.63V190.688C1089.63 189.073 1090.16 187.934 1091.54 187.982C1092.59 188.031 1092.88 188.789 1092.88 190.31V193.683L1094.07 193.683ZM1087.32 193.632V192.636C1087.13 192.731 1086.89 192.874 1086.51 192.874C1085.94 192.874 1085.51 192.448 1085.51 191.687V188.126H1087.13V187.176H1085.51V185.275L1084.32 185.654V187.176H1083.17V188.126H1084.32V191.924C1084.32 193.253 1085.08 193.822 1086.32 193.822C1086.7 193.822 1087.08 193.728 1087.32 193.632ZM1080.9 193.683H1082.09V187.176H1080.9V193.683ZM1083.43 185.039C1083.43 184.66 1083.09 184.327 1082.71 184.327C1082.33 184.327 1082.04 184.66 1082.04 185.039C1082.04 185.415 1082.33 185.703 1082.71 185.703C1083.09 185.703 1083.43 185.415 1083.43 185.039H1083.43ZM1079.28 193.683V189.501C1079.28 188.077 1078.66 187.032 1076.99 187.032C1076.42 187.032 1075.41 187.364 1074.98 188.267C1074.65 187.414 1073.89 187.032 1073.12 187.032C1072.17 187.032 1071.5 187.364 1071.02 188.126V187.176H1069.88V193.683H1071.07V190.405C1071.07 189.169 1071.6 187.982 1072.79 187.982C1073.79 187.982 1073.98 188.979 1073.98 189.786V193.683H1075.18V190.405C1075.18 189.169 1075.65 187.982 1076.89 187.982C1077.85 187.982 1078.04 188.979 1078.04 189.786V193.683H1079.28ZM1068.84 191.21C1068.84 189.406 1067.31 188.883 1065.98 188.266C1065.74 188.173 1065.5 188.076 1065.31 187.934C1064.93 187.697 1064.64 187.363 1064.64 186.889C1064.64 185.939 1065.6 185.654 1066.41 185.654C1067.04 185.654 1067.73 185.852 1068.22 186.035L1068.41 184.991C1067.74 184.753 1066.98 184.61 1066.36 184.61C1064.55 184.61 1063.21 185.464 1063.21 187.031C1063.21 188.742 1064.88 189.169 1066.07 189.739C1066.74 190.023 1067.51 190.451 1067.51 191.26C1067.51 192.398 1066.31 192.778 1065.55 192.778C1064.83 192.778 1063.96 192.554 1063.45 192.351L1063.35 193.489C1063.88 193.654 1064.74 193.822 1065.33 193.822C1067.29 193.822 1068.84 193.064 1068.84 191.21ZM1055.63 193.683L1053.53 190.26L1055.44 187.175H1054.06L1052.82 189.5L1051.57 187.175H1050.1L1052 190.26L1049.86 193.683H1051.29L1052.72 191.116L1054.15 193.683H1055.63ZM1042.72 193.632C1042.24 193.49 1042.15 193.159 1042.15 192.731V184.66H1040.91V192.874C1040.91 193.49 1041.19 193.823 1041.86 193.823C1042.29 193.823 1042.58 193.728 1042.72 193.632ZM1039.43 193.443V189.565H1038.14V192.541C1037.81 192.635 1037.57 192.684 1036.71 192.684C1034.85 192.684 1033.32 191.305 1033.32 189.216C1033.32 187.22 1034.71 185.751 1036.76 185.751C1037.86 185.751 1038.72 186.035 1039.24 186.367L1039.34 185.084C1038.57 184.8 1038 184.61 1036.71 184.61C1033.99 184.61 1031.99 186.461 1031.99 189.168C1031.99 192.019 1033.85 193.822 1036.66 193.822C1038.1 193.822 1038.91 193.585 1039.43 193.443V193.443ZM1061 190.405C1061 191.59 1060.57 192.874 1059.18 192.874C1057.75 192.874 1057.32 191.59 1057.32 190.405C1057.32 189.169 1057.85 187.981 1059.18 187.981C1060.42 187.981 1061 189.169 1061 190.405V190.405ZM1062.29 190.405C1062.29 188.456 1061.14 187.032 1059.18 187.032C1057.18 187.032 1056.04 188.456 1056.04 190.405C1056.04 192.304 1057.18 193.822 1059.18 193.822C1061.14 193.822 1062.29 192.304 1062.29 190.405ZM1047.67 191.162C1047.67 192.114 1047.15 192.874 1045.96 192.874C1045.43 192.874 1044.86 192.493 1044.86 191.78C1044.86 190.641 1046.34 190.546 1046.96 190.546C1047.24 190.546 1047.43 190.595 1047.67 190.595V191.162ZM1048.96 193.682C1048.91 193.489 1048.91 193.159 1048.91 192.398V189.692C1048.91 187.934 1048.25 187.031 1046.38 187.031C1045.53 187.031 1044.91 187.268 1044.29 187.65L1044.38 188.647C1044.86 188.266 1045.48 187.981 1046.19 187.981C1047.39 187.981 1047.67 188.551 1047.67 189.692C1047.2 189.643 1046.91 189.643 1046.43 189.643C1045.19 189.643 1043.57 190.166 1043.57 191.78C1043.57 193.205 1044.48 193.822 1045.86 193.822C1046.96 193.822 1047.53 193.205 1047.77 192.826H1047.82V193.682H1048.96Z" fill="#5C5B59"/>
<path d="M226.254 171.481H231.925V182.266H232.045C233.484 179.94 235.96 178.818 238.077 178.818C244.108 178.818 245.625 182.225 245.625 187.355V200.104H239.954V188.4C239.954 184.991 238.956 183.308 236.318 183.308C233.243 183.308 231.925 185.031 231.925 189.241V200.104H226.254V171.481Z" fill="#5C5B59"/>
<path d="M247.364 179.377H253.035V200.104H247.364V179.377ZM253.036 176.173H247.364V171.481H253.036V176.173Z" fill="#5C5B59"/>
<path d="M254.775 179.378H260.17V183.227H260.246C261.286 180.623 264.082 178.818 266.839 178.818C267.238 178.818 267.717 178.898 268.078 179.017V184.31C267.556 184.19 266.72 184.109 266.04 184.109C261.887 184.109 260.447 187.116 260.447 190.765V200.104H254.775V179.378Z" fill="#5C5B59"/>
<path d="M282.296 187.517C281.777 184.631 280.538 183.107 277.782 183.107C274.187 183.107 273.15 185.912 273.068 187.517H282.296ZM273.068 191.125C273.23 194.733 274.986 196.376 278.141 196.376C280.418 196.376 282.253 194.974 282.615 193.692H287.609C286.01 198.582 282.615 200.666 277.942 200.666C271.431 200.666 267.397 196.177 267.397 189.762C267.397 183.548 271.671 178.818 277.942 178.818C284.973 178.818 288.369 184.75 287.967 191.125H273.068Z" fill="#5C5B59"/>
<path d="M224.78 171.428C223.64 170.059 220.443 169.812 215.799 171.059C214.87 170.912 213.489 170.799 212.514 170.799C208.094 170.799 203.415 172.865 202.173 177.148C201.629 177.498 201.084 177.858 200.534 178.237C185.254 188.777 183.931 195.581 185.512 197.887C187.335 200.55 193.324 200.487 200.361 197.796L200.252 197.654C194.714 199.405 190.122 199.199 188.719 197.15C187.396 195.219 188.046 188.568 201.333 179.403C206.037 176.156 211.264 173.652 215.583 172.413C211.394 174.047 206.417 177.026 202.027 180.696C201.998 180.719 201.972 180.744 201.943 180.766C202.589 185.108 206.488 186.57 210.357 187.596C214.551 188.719 218.826 189.241 218.826 192.327C218.826 195.253 215.469 195.895 213.272 195.895C209.917 195.895 206.962 194.411 206.962 190.603H200.889C200.81 197.658 206.722 200.786 213.033 200.786C220.781 200.786 224.896 196.857 224.896 191.605C224.896 185.11 218.505 183.787 216.428 183.266C209.278 181.421 207.921 181.142 207.921 178.937C207.921 176.532 210.236 175.69 212.234 175.69C215.23 175.69 217.666 176.572 217.866 180.019H223.938C223.938 175.685 221.587 173.071 218.293 171.785C221.622 171.046 223.558 171.377 224.453 172.684C224.915 173.358 224.98 174.159 224.543 175.144L224.666 175.263C225.41 173.916 225.698 172.531 224.78 171.428Z" fill="#5C5B59"/>
<g clip-path="url(#clip0_5615_9986)">
<mask id="mask0_5615_9986" style="mask-type:luminance" maskUnits="userSpaceOnUse" x="431" y="168" width="145" height="35">
<path d="M575.199 168.737H431V202.083H575.199V168.737Z" fill="white"/>
</mask>
<g mask="url(#mask0_5615_9986)">
<path d="M454.66 190.678C454.648 188.91 454.054 187.192 452.964 185.766C451.873 184.34 450.34 183.28 448.584 182.737L438.438 179.579C438.095 179.476 437.799 179.264 437.599 178.978C437.398 178.692 437.306 178.349 437.336 178.006C437.367 177.663 437.519 177.34 437.766 177.09C438.014 176.841 438.343 176.68 438.7 176.633C438.94 176.599 439.185 176.62 439.415 176.695L447.95 179.351C448.254 179.445 448.58 179.449 448.886 179.362C449.192 179.275 449.463 179.101 449.664 178.863C449.864 178.626 449.984 178.335 450.008 178.03C450.033 177.726 449.96 177.421 449.799 177.157C448.304 174.69 446.641 172.32 444.822 170.062C444.502 169.633 443.793 168.737 442.816 168.737C441.839 168.737 441.13 169.633 440.816 170.062C438.205 173.281 434.025 179.212 432.059 184.981C431.995 185.17 431.97 185.369 431.987 185.567C432.003 185.766 432.06 185.959 432.155 186.136C432.249 186.313 432.38 186.47 432.538 186.599C432.696 186.727 432.879 186.825 433.077 186.885L451.352 192.566C451.69 192.674 451.981 192.888 452.177 193.173C452.373 193.459 452.462 193.799 452.431 194.14C452.4 194.48 452.251 194.8 452.006 195.049C451.762 195.298 451.437 195.461 451.084 195.511C450.838 195.552 450.585 195.537 450.346 195.467L433.065 190.071C432.817 189.992 432.553 189.974 432.296 190.018C432.039 190.061 431.798 190.165 431.593 190.32C431.388 190.476 431.227 190.677 431.124 190.907C431.02 191.136 430.978 191.387 431.001 191.636C431.236 194.563 432.647 197.288 434.936 199.24C437.226 201.191 440.216 202.217 443.279 202.101C446.341 201.985 449.238 200.736 451.359 198.617C453.481 196.499 454.662 193.675 454.654 190.739L454.66 190.678Z" fill="#5C5B59"/>
<path d="M471.411 186.651C470.405 186.334 468.213 185.872 468.213 184.697C468.213 183.65 469.225 183.06 470.794 183.154C471.537 183.199 472.266 183.371 472.946 183.661V183.689C473.12 183.765 473.316 183.779 473.5 183.728C473.684 183.677 473.842 183.564 473.946 183.41L474.626 182.347V182.313C474.717 182.135 474.731 181.93 474.664 181.742C474.598 181.554 474.457 181.399 474.271 181.311C473.225 180.828 472.088 180.548 470.928 180.487C469.322 180.357 467.726 180.828 466.474 181.801C465.989 182.195 465.601 182.685 465.335 183.239C465.07 183.792 464.935 184.394 464.939 185.003C464.939 188.088 467.812 188.734 470.172 189.458C471.917 190.015 473.591 190.382 473.591 191.769C473.591 192.961 472.516 193.796 470.684 193.796C469.099 193.744 467.572 193.212 466.323 192.276H466.294C466.211 192.219 466.117 192.178 466.017 192.156C465.917 192.134 465.814 192.13 465.713 192.147C465.612 192.163 465.515 192.197 465.429 192.249C465.342 192.301 465.266 192.369 465.207 192.449L465.16 192.51L464.468 193.596C464.379 193.76 464.356 193.95 464.403 194.129C464.45 194.309 464.565 194.466 464.724 194.57C466.4 195.875 468.507 196.565 470.667 196.514C474.458 196.514 476.905 194.548 476.905 191.691C476.876 188.094 472.987 187.142 471.411 186.651Z" fill="#5C5B59"/>
<path d="M482.413 180.871H480.843C480.403 180.871 480.046 181.213 480.046 181.634V195.256C480.046 195.677 480.403 196.018 480.843 196.018H482.413C482.853 196.018 483.209 195.677 483.209 195.256V181.634C483.209 181.213 482.853 180.871 482.413 180.871Z" fill="#5C5B59"/>
<path d="M512.274 180.676C507.948 180.676 504.715 184.018 504.715 188.517C504.715 193.15 507.936 196.391 512.553 196.391C514.563 196.426 516.524 195.801 518.112 194.621C518.264 194.501 518.365 194.332 518.394 194.146C518.423 193.959 518.378 193.769 518.269 193.613L517.588 192.683L517.553 192.638C517.432 192.483 517.252 192.378 517.052 192.346C516.851 192.314 516.646 192.356 516.478 192.465C515.428 193.211 514.157 193.617 512.85 193.624C512.252 193.64 511.656 193.544 511.097 193.339C510.539 193.135 510.027 192.826 509.593 192.432C508.818 191.681 508.336 190.698 508.227 189.648H518.85C519.06 189.645 519.26 189.563 519.408 189.421C519.556 189.278 519.639 189.086 519.641 188.885V188.857C519.641 188.489 519.641 188.456 519.641 188.4C519.461 183.773 516.513 180.676 512.274 180.676ZM516.385 187.225H508.169C508.201 186.212 508.643 185.25 509.403 184.544C510.163 183.838 511.18 183.444 512.239 183.444C514.937 183.444 516.257 185.332 516.385 187.225Z" fill="#5C5B59"/>
<path d="M556.826 191.964C556.716 191.966 556.608 191.989 556.508 192.032C556.408 192.075 556.318 192.137 556.244 192.215C555.878 192.602 555.428 192.909 554.926 193.114C554.425 193.32 553.883 193.42 553.337 193.407C550.738 193.407 548.918 191.396 548.918 188.517C548.918 185.638 550.738 183.661 553.337 183.661C553.879 183.64 554.42 183.731 554.922 183.929C555.424 184.127 555.875 184.427 556.244 184.808C556.388 184.955 556.587 185.042 556.797 185.049C557.007 185.057 557.212 184.984 557.366 184.847L558.471 183.834C558.603 183.699 558.678 183.522 558.684 183.338C558.689 183.153 558.624 182.973 558.5 182.831C557.21 181.339 555.477 180.676 553.192 180.676C548.72 180.676 545.476 183.973 545.476 188.517C545.476 193.061 548.72 196.391 553.192 196.391C555.454 196.391 557.192 195.718 558.506 194.22C558.63 194.076 558.694 193.894 558.687 193.708C558.679 193.522 558.6 193.346 558.465 193.212L557.366 192.176C557.222 192.04 557.028 191.964 556.826 191.964Z" fill="#5C5B59"/>
<path d="M481.627 178.054C482.629 178.054 483.441 177.276 483.441 176.316C483.441 175.356 482.629 174.579 481.627 174.579C480.625 174.579 479.813 175.356 479.813 176.316C479.813 177.276 480.625 178.054 481.627 178.054Z" fill="#5C5B59"/>
<path d="M541.544 180.871H539.974C539.534 180.871 539.177 181.213 539.177 181.634V195.256C539.177 195.677 539.534 196.018 539.974 196.018H541.544C541.984 196.018 542.341 195.677 542.341 195.256V181.634C542.341 181.213 541.984 180.871 541.544 180.871Z" fill="#5C5B59"/>
<path d="M540.766 178.054C541.768 178.054 542.58 177.276 542.58 176.316C542.58 175.356 541.768 174.579 540.766 174.579C539.764 174.579 538.952 175.356 538.952 176.316C538.952 177.276 539.764 178.054 540.766 178.054Z" fill="#5C5B59"/>
<path d="M500.728 174.801H499.152C499.048 174.8 498.944 174.82 498.848 174.857C498.751 174.895 498.663 174.951 498.589 175.021C498.515 175.091 498.457 175.175 498.416 175.267C498.376 175.36 498.356 175.459 498.356 175.559V182.43C497.223 181.34 495.694 180.711 494.088 180.676C489.617 180.676 486.378 183.973 486.378 188.517C486.378 193.061 489.617 196.391 494.088 196.391C494.923 196.397 495.746 196.209 496.489 195.845C497.232 195.48 497.872 194.949 498.356 194.298V195.261C498.355 195.361 498.375 195.461 498.415 195.554C498.454 195.647 498.513 195.731 498.587 195.802C498.661 195.873 498.75 195.929 498.847 195.967C498.944 196.005 499.047 196.025 499.152 196.024H500.728C500.832 196.025 500.936 196.006 501.032 195.968C501.129 195.93 501.217 195.874 501.291 195.804C501.365 195.734 501.424 195.65 501.464 195.558C501.504 195.465 501.525 195.367 501.525 195.267V175.559C501.525 175.459 501.504 175.36 501.464 175.267C501.424 175.175 501.365 175.091 501.291 175.021C501.217 174.951 501.129 174.895 501.032 174.857C500.936 174.82 500.832 174.8 500.728 174.801ZM489.82 188.517C489.82 185.66 491.64 183.661 494.239 183.661C494.781 183.64 495.322 183.731 495.824 183.929C496.326 184.127 496.777 184.427 497.146 184.808C497.146 184.808 498.362 185.922 498.362 186.852V190.015C498.362 190.856 497.641 191.741 497.158 192.193C496.791 192.58 496.342 192.887 495.84 193.092C495.338 193.298 494.796 193.397 494.251 193.384C491.64 193.407 489.82 191.396 489.82 188.517Z" fill="#5C5B59"/>
<path d="M530.363 187.548L535.596 182.185L535.631 182.152C535.744 182.046 535.82 181.909 535.85 181.76C535.88 181.611 535.863 181.457 535.8 181.318C535.737 181.179 535.632 181.061 535.498 180.981C535.364 180.9 535.208 180.86 535.049 180.866H532.985C532.876 180.864 532.768 180.885 532.668 180.926C532.568 180.968 532.478 181.028 532.404 181.105L525.95 187.487V175.559C525.95 175.459 525.929 175.36 525.889 175.267C525.849 175.175 525.79 175.091 525.716 175.021C525.642 174.951 525.554 174.895 525.458 174.857C525.361 174.82 525.257 174.8 525.153 174.801H523.577C523.367 174.801 523.165 174.881 523.016 175.023C522.867 175.165 522.782 175.357 522.781 175.559V195.261C522.781 195.463 522.865 195.657 523.014 195.8C523.164 195.944 523.366 196.024 523.577 196.024H525.153C525.364 196.024 525.567 195.944 525.716 195.8C525.866 195.657 525.95 195.463 525.95 195.261V191.686L527.967 189.609L532.41 195.684C532.481 195.788 532.579 195.873 532.694 195.931C532.809 195.99 532.937 196.02 533.067 196.018H535.305C535.452 196.018 535.595 195.979 535.72 195.905C535.844 195.832 535.945 195.726 536.011 195.601C536.076 195.476 536.104 195.335 536.092 195.196C536.079 195.056 536.026 194.923 535.939 194.81L530.363 187.548Z" fill="#5C5B59"/>
<path d="M569.466 187.548L574.7 182.185L574.735 182.152C574.848 182.046 574.924 181.909 574.954 181.76C574.984 181.611 574.967 181.457 574.904 181.318C574.841 181.179 574.735 181.061 574.601 180.981C574.468 180.9 574.312 180.86 574.153 180.866H572.095C571.986 180.864 571.877 180.885 571.778 180.926C571.678 180.968 571.587 181.028 571.513 181.105L565.054 187.487V175.559C565.054 175.459 565.033 175.36 564.992 175.267C564.953 175.175 564.894 175.091 564.819 175.021C564.746 174.951 564.658 174.895 564.561 174.857C564.464 174.82 564.36 174.8 564.257 174.801H562.681C562.471 174.801 562.27 174.881 562.121 175.023C561.974 175.165 561.89 175.358 561.89 175.559V195.261C561.89 195.361 561.909 195.46 561.949 195.553C561.988 195.645 562.046 195.729 562.12 195.8C562.194 195.871 562.281 195.927 562.377 195.966C562.474 196.004 562.576 196.024 562.681 196.024H564.257C564.468 196.024 564.671 195.944 564.821 195.8C564.97 195.657 565.054 195.463 565.054 195.261V191.686L567.06 189.609L571.502 195.684C571.573 195.788 571.671 195.873 571.785 195.931C571.901 195.99 572.029 196.02 572.159 196.018H574.397C574.544 196.018 574.686 195.979 574.811 195.905C574.936 195.832 575.036 195.726 575.102 195.601C575.168 195.476 575.196 195.335 575.183 195.196C575.171 195.056 575.118 194.923 575.031 194.81L569.466 187.548Z" fill="#5C5B59"/>
</g>
</g>
<path fill-rule="evenodd" clip-rule="evenodd" d="M1255 100.909V59.4498H1152V100.909H1255Z" fill="#5C5B59"/>
<path fill-rule="evenodd" clip-rule="evenodd" d="M1162.07 63.4492H1173.27L1180.14 86.5909H1180.24L1184.95 63.4492H1193.41L1186.3 96.8213H1175.14L1168.13 73.7297H1168.03L1163.37 96.8213H1154.9L1162.07 63.4492ZM1196.73 63.4492H1205.71L1203.07 76.2166H1213.69L1216.34 63.4492H1225.33L1218.36 96.8213H1209.37L1212.35 82.528H1201.72L1198.74 96.8213H1189.76L1196.73 63.4492ZM1248.98 71.0044C1247.25 70.1943 1244.89 69.4785 1241.57 69.4785C1238.02 69.4785 1235.13 70.0002 1235.13 72.6812C1235.13 77.4097 1248.16 75.6449 1248.16 85.7814C1248.16 95.0064 1239.55 97.3983 1231.77 97.3983C1228.31 97.3983 1224.32 96.5823 1221.39 95.6714L1223.5 88.8838C1225.28 90.0337 1228.84 90.7984 1231.77 90.7984C1234.56 90.7984 1238.93 90.2715 1238.93 86.8299C1238.93 81.4731 1225.9 83.4821 1225.9 74.0689C1225.9 65.4594 1233.5 62.878 1240.86 62.878C1244.99 62.878 1248.88 63.3111 1251.14 64.3596L1248.98 71.0044Z" fill="#FEFDFB"/>
<defs>
<clipPath id="clip0_5615_9986">
<rect width="144.199" height="33.346" fill="white" transform="translate(431 168.737)"/>
</clipPath>
</defs>
</svg>
