<svg width="210" height="80" viewBox="0 0 210 80" fill="none" xmlns="http://www.w3.org/2000/svg">
<g clip-path="url(#clip0_5820_6441)">
<path d="M59.1471 36.9175L58.9476 36.0616H40.5699V43.9384H51.549C50.4093 49.4205 45.1192 52.3058 40.7978 52.3058C37.6541 52.3058 34.3395 50.969 32.1455 48.8146C29.8946 46.6026 28.4605 43.3421 28.4605 39.9856C28.4605 36.6675 29.9326 33.3494 32.079 31.1661C34.216 28.9925 37.4547 27.7615 40.6743 27.7615C44.3594 27.7615 46.9997 29.7427 47.9874 30.6468L53.515 25.0781C51.8909 23.6355 47.4366 20 40.4939 20C35.1373 20 29.9991 22.0774 26.2475 25.8668C22.5435 29.5985 20.625 34.994 20.625 39.9952C20.625 44.9964 22.439 50.1322 26.0291 53.8928C29.8661 57.9033 35.2987 60 40.8928 60C45.9835 60 50.8082 57.9803 54.2463 54.3159C57.6275 50.7093 59.375 45.7177 59.375 40.4857C59.375 38.2832 59.1566 36.9752 59.1471 36.9175Z" fill="#FEFDFB"/>
</g>
<g clip-path="url(#clip1_5820_6441)">
<path d="M73.8143 41.5038L75.4555 34.4732L70 29.748L77.1858 29.1246L80 22.4961L82.8143 29.1246L90 29.748L84.5445 34.4732L86.1857 41.5038L80 37.7709L73.8143 41.5038Z" fill="#FEFDFB"/>
<path d="M98.8143 41.5038L100.455 34.4732L95 29.748L102.186 29.1246L105 22.4961L107.814 29.1246L115 29.748L109.545 34.4732L111.186 41.5038L105 37.7709L98.8143 41.5038Z" fill="#FEFDFB"/>
<path d="M123.814 41.5038L125.455 34.4732L120 29.748L127.186 29.1246L130 22.4961L132.814 29.1246L140 29.748L134.545 34.4732L136.186 41.5038L130 37.7709L123.814 41.5038Z" fill="#FEFDFB"/>
<path d="M148.814 41.5038L150.455 34.4732L145 29.748L152.186 29.1246L155 22.4961L157.814 29.1246L165 29.748L159.545 34.4732L161.186 41.5038L155 37.7709L148.814 41.5038Z" fill="#FEFDFB"/>
<path d="M173.814 41.5038L175.455 34.4732L170 29.748L177.186 29.1246L180 22.4961L182.814 29.1246L190 29.748L184.545 34.4732L186.186 41.5038L180 37.7709L173.814 41.5038Z" fill="#FEFDFB"/>
</g>
<path d="M72.436 49.9777C72.628 49.9377 72.812 49.9097 72.988 49.8937C73.164 49.8737 73.334 49.8637 73.498 49.8637C73.954 49.8637 74.356 49.9317 74.704 50.0677C75.052 50.2037 75.344 50.3917 75.58 50.6317C75.816 50.8717 75.994 51.1537 76.114 51.4777C76.234 51.7977 76.294 52.1437 76.294 52.5157C76.294 52.9757 76.212 53.3957 76.048 53.7757C75.888 54.1557 75.664 54.4817 75.376 54.7537C75.088 55.0217 74.746 55.2297 74.35 55.3777C73.958 55.5257 73.53 55.5997 73.066 55.5997C72.794 55.5997 72.536 55.5717 72.292 55.5157C72.048 55.4597 71.818 55.3857 71.602 55.2937C71.39 55.1977 71.192 55.0897 71.008 54.9697C70.828 54.8457 70.666 54.7157 70.522 54.5797L70.978 53.9497C71.074 53.8137 71.2 53.7457 71.356 53.7457C71.456 53.7457 71.558 53.7777 71.662 53.8417C71.766 53.9057 71.884 53.9757 72.016 54.0517C72.152 54.1277 72.31 54.1977 72.49 54.2617C72.674 54.3257 72.894 54.3577 73.15 54.3577C73.422 54.3577 73.662 54.3137 73.87 54.2257C74.078 54.1377 74.25 54.0157 74.386 53.8597C74.526 53.6997 74.63 53.5117 74.698 53.2957C74.77 53.0757 74.806 52.8377 74.806 52.5817C74.806 52.1097 74.668 51.7417 74.392 51.4777C74.12 51.2097 73.716 51.0757 73.18 51.0757C72.768 51.0757 72.346 51.1517 71.914 51.3037L70.99 51.0397L71.71 46.8277H75.994V47.4577C75.994 47.6697 75.928 47.8417 75.796 47.9737C75.664 48.1057 75.44 48.1717 75.124 48.1717H72.742L72.436 49.9777ZM86.6649 48.4057C86.6169 48.4897 86.5649 48.5517 86.5089 48.5917C86.4569 48.6277 86.3909 48.6457 86.3109 48.6457C86.2269 48.6457 86.1349 48.6157 86.0349 48.5557C85.9389 48.4917 85.8229 48.4217 85.6869 48.3457C85.5509 48.2697 85.3909 48.2017 85.2069 48.1417C85.0269 48.0777 84.8129 48.0457 84.5649 48.0457C84.3409 48.0457 84.1449 48.0737 83.9769 48.1297C83.8089 48.1817 83.6669 48.2557 83.5509 48.3517C83.4389 48.4477 83.3549 48.5637 83.2989 48.6997C83.2429 48.8317 83.2149 48.9777 83.2149 49.1377C83.2149 49.3417 83.2709 49.5117 83.3829 49.6477C83.4989 49.7837 83.6509 49.8997 83.8389 49.9957C84.0269 50.0917 84.2409 50.1777 84.4809 50.2537C84.7209 50.3297 84.9669 50.4117 85.2189 50.4997C85.4709 50.5837 85.7169 50.6837 85.9569 50.7997C86.1969 50.9117 86.4109 51.0557 86.5989 51.2317C86.7869 51.4037 86.9369 51.6157 87.0489 51.8677C87.1649 52.1197 87.2229 52.4257 87.2229 52.7857C87.2229 53.1777 87.1549 53.5457 87.0189 53.8897C86.8869 54.2297 86.6909 54.5277 86.4309 54.7837C86.1749 55.0357 85.8609 55.2357 85.4889 55.3837C85.1169 55.5277 84.6909 55.5997 84.2109 55.5997C83.9349 55.5997 83.6629 55.5717 83.3949 55.5157C83.1269 55.4637 82.8689 55.3877 82.6209 55.2877C82.3769 55.1877 82.1469 55.0677 81.9309 54.9277C81.7149 54.7877 81.5229 54.6317 81.3549 54.4597L81.8289 53.6857C81.8689 53.6297 81.9209 53.5837 81.9849 53.5477C82.0489 53.5077 82.1169 53.4877 82.1889 53.4877C82.2889 53.4877 82.3969 53.5297 82.5129 53.6137C82.6289 53.6937 82.7669 53.7837 82.9269 53.8837C83.0869 53.9837 83.2729 54.0757 83.4849 54.1597C83.7009 54.2397 83.9589 54.2797 84.2589 54.2797C84.7189 54.2797 85.0749 54.1717 85.3269 53.9557C85.5789 53.7357 85.7049 53.4217 85.7049 53.0137C85.7049 52.7857 85.6469 52.5997 85.5309 52.4557C85.4189 52.3117 85.2689 52.1917 85.0809 52.0957C84.8929 51.9957 84.6789 51.9117 84.4389 51.8437C84.1989 51.7757 83.9549 51.7017 83.7069 51.6217C83.4589 51.5417 83.2149 51.4457 82.9749 51.3337C82.7349 51.2217 82.5209 51.0757 82.3329 50.8957C82.1449 50.7157 81.9929 50.4917 81.8769 50.2237C81.7649 49.9517 81.7089 49.6177 81.7089 49.2217C81.7089 48.9057 81.7709 48.5977 81.8949 48.2977C82.0229 47.9977 82.2069 47.7317 82.4469 47.4997C82.6869 47.2677 82.9829 47.0817 83.3349 46.9417C83.6869 46.8017 84.0909 46.7317 84.5469 46.7317C85.0589 46.7317 85.5309 46.8117 85.9629 46.9717C86.3949 47.1317 86.7629 47.3557 87.0669 47.6437L86.6649 48.4057ZM95.2908 48.1537H92.6748V55.5037H91.0608V48.1537H88.4448V46.8277H95.2908V48.1537ZM100.766 52.2277L99.7104 49.3417C99.6584 49.2137 99.6044 49.0617 99.5484 48.8857C99.4924 48.7097 99.4364 48.5197 99.3804 48.3157C99.3284 48.5197 99.2744 48.7117 99.2184 48.8917C99.1624 49.0677 99.1084 49.2217 99.0564 49.3537L98.0064 52.2277H100.766ZM103.616 55.5037H102.368C102.228 55.5037 102.114 55.4697 102.026 55.4017C101.938 55.3297 101.872 55.2417 101.828 55.1377L101.18 53.3677H97.5864L96.9384 55.1377C96.9064 55.2297 96.8444 55.3137 96.7524 55.3897C96.6604 55.4657 96.5464 55.5037 96.4104 55.5037H95.1504L98.5644 46.8277H100.208L103.616 55.5037ZM107.736 50.9557C108.04 50.9557 108.304 50.9177 108.528 50.8417C108.756 50.7657 108.942 50.6617 109.086 50.5297C109.234 50.3937 109.344 50.2337 109.416 50.0497C109.488 49.8657 109.524 49.6637 109.524 49.4437C109.524 49.0037 109.378 48.6657 109.086 48.4297C108.798 48.1937 108.356 48.0757 107.76 48.0757H106.728V50.9557H107.736ZM111.888 55.5037H110.43C110.154 55.5037 109.954 55.3957 109.83 55.1797L108.006 52.4017C107.938 52.2977 107.862 52.2237 107.778 52.1797C107.698 52.1357 107.578 52.1137 107.418 52.1137H106.728V55.5037H105.114V46.8277H107.76C108.348 46.8277 108.852 46.8897 109.272 47.0137C109.696 47.1337 110.042 47.3037 110.31 47.5237C110.582 47.7437 110.782 48.0077 110.91 48.3157C111.038 48.6197 111.102 48.9557 111.102 49.3237C111.102 49.6157 111.058 49.8917 110.97 50.1517C110.886 50.4117 110.762 50.6477 110.598 50.8597C110.438 51.0717 110.238 51.2577 109.998 51.4177C109.762 51.5777 109.492 51.7037 109.188 51.7957C109.292 51.8557 109.388 51.9277 109.476 52.0117C109.564 52.0917 109.644 52.1877 109.716 52.2997L111.888 55.5037ZM119.565 50.9557C119.869 50.9557 120.133 50.9177 120.357 50.8417C120.585 50.7657 120.771 50.6617 120.915 50.5297C121.063 50.3937 121.173 50.2337 121.245 50.0497C121.317 49.8657 121.353 49.6637 121.353 49.4437C121.353 49.0037 121.207 48.6657 120.915 48.4297C120.627 48.1937 120.185 48.0757 119.589 48.0757H118.557V50.9557H119.565ZM123.717 55.5037H122.259C121.983 55.5037 121.783 55.3957 121.659 55.1797L119.835 52.4017C119.767 52.2977 119.691 52.2237 119.607 52.1797C119.527 52.1357 119.407 52.1137 119.247 52.1137H118.557V55.5037H116.943V46.8277H119.589C120.177 46.8277 120.681 46.8897 121.101 47.0137C121.525 47.1337 121.871 47.3037 122.139 47.5237C122.411 47.7437 122.611 48.0077 122.739 48.3157C122.867 48.6197 122.931 48.9557 122.931 49.3237C122.931 49.6157 122.887 49.8917 122.799 50.1517C122.715 50.4117 122.591 50.6477 122.427 50.8597C122.267 51.0717 122.067 51.2577 121.827 51.4177C121.591 51.5777 121.321 51.7037 121.017 51.7957C121.121 51.8557 121.217 51.9277 121.305 52.0117C121.393 52.0917 121.473 52.1877 121.545 52.2997L123.717 55.5037ZM129.838 52.2277L128.782 49.3417C128.73 49.2137 128.676 49.0617 128.62 48.8857C128.564 48.7097 128.508 48.5197 128.452 48.3157C128.4 48.5197 128.346 48.7117 128.29 48.8917C128.234 49.0677 128.18 49.2217 128.128 49.3537L127.078 52.2277H129.838ZM132.688 55.5037H131.44C131.3 55.5037 131.186 55.4697 131.098 55.4017C131.01 55.3297 130.944 55.2417 130.9 55.1377L130.252 53.3677H126.658L126.01 55.1377C125.978 55.2297 125.916 55.3137 125.824 55.3897C125.732 55.4657 125.618 55.5037 125.482 55.5037H124.222L127.636 46.8277H129.28L132.688 55.5037ZM139.403 48.1537H136.787V55.5037H135.173V48.1537H132.557V46.8277H139.403V48.1537ZM142.758 48.1117V50.5177H145.794V51.7597H142.758V54.2137H146.61V55.5037H141.138V46.8277H146.61V48.1117H142.758ZM156.344 51.1657C156.344 51.8017 156.238 52.3857 156.026 52.9177C155.814 53.4497 155.516 53.9077 155.132 54.2917C154.748 54.6757 154.286 54.9737 153.746 55.1857C153.206 55.3977 152.606 55.5037 151.946 55.5037H148.64V46.8277H151.946C152.606 46.8277 153.206 46.9357 153.746 47.1517C154.286 47.3637 154.748 47.6617 155.132 48.0457C155.516 48.4257 155.814 48.8817 156.026 49.4137C156.238 49.9457 156.344 50.5297 156.344 51.1657ZM154.688 51.1657C154.688 50.6897 154.624 50.2637 154.496 49.8877C154.372 49.5077 154.19 49.1877 153.95 48.9277C153.714 48.6637 153.426 48.4617 153.086 48.3217C152.75 48.1817 152.37 48.1117 151.946 48.1117H150.26V54.2197H151.946C152.37 54.2197 152.75 54.1497 153.086 54.0097C153.426 53.8697 153.714 53.6697 153.95 53.4097C154.19 53.1457 154.372 52.8257 154.496 52.4497C154.624 52.0697 154.688 51.6417 154.688 51.1657Z" fill="#FEFDFB"/>
<defs>
<clipPath id="clip0_5820_6441">
<rect width="40" height="40" fill="white" transform="translate(20 20)"/>
</clipPath>
<clipPath id="clip1_5820_6441">
<rect width="120" height="19.0077" fill="white" transform="translate(70 22.4961)"/>
</clipPath>
</defs>
</svg>
