<svg width="250" height="39" viewBox="0 0 250 39" fill="none" xmlns="http://www.w3.org/2000/svg">
<rect width="250" height="38.5638" fill="#101010"/>
<path d="M39.0735 25.9875V28.743H42.313V29.612H39.0735V33H38.0065V25.1185H42.863V25.9875H39.0735ZM46.7397 28.9355C47.0477 28.9355 47.3191 28.8988 47.5537 28.8255C47.7921 28.7485 47.9901 28.6422 48.1477 28.5065C48.3091 28.3672 48.4301 28.2022 48.5107 28.0115C48.5914 27.8208 48.6317 27.61 48.6317 27.379C48.6317 26.9097 48.4777 26.5558 48.1697 26.3175C47.8617 26.0792 47.3997 25.96 46.7837 25.96H45.6177V28.9355H46.7397ZM50.3807 33H49.4347C49.2404 33 49.0974 32.9248 49.0057 32.7745L46.9597 29.9585C46.8974 29.8705 46.8296 29.8082 46.7562 29.7715C46.6866 29.7312 46.5766 29.711 46.4262 29.711H45.6177V33H44.5562V25.1185H46.7837C47.2824 25.1185 47.7132 25.1698 48.0762 25.2725C48.4392 25.3715 48.7381 25.5163 48.9727 25.707C49.2111 25.8977 49.3871 26.1287 49.5007 26.4C49.6144 26.6677 49.6712 26.9683 49.6712 27.302C49.6712 27.5807 49.6272 27.841 49.5392 28.083C49.4512 28.325 49.3229 28.5432 49.1542 28.7375C48.9892 28.9282 48.7857 29.0913 48.5437 29.227C48.3054 29.3627 48.0341 29.4653 47.7297 29.535C47.8654 29.612 47.9827 29.7238 48.0817 29.8705L50.3807 33ZM58.9895 29.062C58.9895 29.6523 58.896 30.195 58.709 30.69C58.522 31.1813 58.258 31.6048 57.917 31.9605C57.576 32.3162 57.1653 32.593 56.685 32.791C56.2083 32.9853 55.6803 33.0825 55.101 33.0825C54.5217 33.0825 53.9937 32.9853 53.517 32.791C53.0403 32.593 52.6315 32.3162 52.2905 31.9605C51.9495 31.6048 51.6855 31.1813 51.4985 30.69C51.3115 30.195 51.218 29.6523 51.218 29.062C51.218 28.4717 51.3115 27.9308 51.4985 27.4395C51.6855 26.9445 51.9495 26.5192 52.2905 26.1635C52.6315 25.8042 53.0403 25.5255 53.517 25.3275C53.9937 25.1295 54.5217 25.0305 55.101 25.0305C55.6803 25.0305 56.2083 25.1295 56.685 25.3275C57.1653 25.5255 57.576 25.8042 57.917 26.1635C58.258 26.5192 58.522 26.9445 58.709 27.4395C58.896 27.9308 58.9895 28.4717 58.9895 29.062ZM57.895 29.062C57.895 28.578 57.829 28.1435 57.697 27.7585C57.565 27.3735 57.378 27.049 57.136 26.785C56.894 26.5173 56.6007 26.312 56.256 26.169C55.9113 26.026 55.5263 25.9545 55.101 25.9545C54.6793 25.9545 54.2962 26.026 53.9515 26.169C53.6068 26.312 53.3117 26.5173 53.066 26.785C52.824 27.049 52.637 27.3735 52.505 27.7585C52.373 28.1435 52.307 28.578 52.307 29.062C52.307 29.546 52.373 29.9805 52.505 30.3655C52.637 30.7468 52.824 31.0713 53.066 31.339C53.3117 31.603 53.6068 31.8065 53.9515 31.9495C54.2962 32.0888 54.6793 32.1585 55.101 32.1585C55.5263 32.1585 55.9113 32.0888 56.256 31.9495C56.6007 31.8065 56.894 31.603 57.136 31.339C57.378 31.0713 57.565 30.7468 57.697 30.3655C57.829 29.9805 57.895 29.546 57.895 29.062ZM69.0466 25.1185V33H68.1116V27.2085C68.1116 27.1315 68.1134 27.049 68.1171 26.961C68.1244 26.873 68.1318 26.7832 68.1391 26.6915L65.4331 31.6195C65.3488 31.7845 65.2204 31.867 65.0481 31.867H64.8941C64.7218 31.867 64.5934 31.7845 64.5091 31.6195L61.7481 26.6695C61.7701 26.8638 61.7811 27.0435 61.7811 27.2085V33H60.8461V25.1185H61.6326C61.7279 25.1185 61.8013 25.1277 61.8526 25.146C61.9039 25.1643 61.9534 25.2157 62.0011 25.3L64.7236 30.151C64.7676 30.239 64.8098 30.3307 64.8501 30.426C64.8941 30.5213 64.9344 30.6185 64.9711 30.7175C65.0078 30.6185 65.0463 30.5213 65.0866 30.426C65.1269 30.327 65.1709 30.2335 65.2186 30.1455L67.8916 25.3C67.9356 25.2157 67.9833 25.1643 68.0346 25.146C68.0896 25.1277 68.1648 25.1185 68.2601 25.1185H69.0466ZM147.512 26.015H144.96V33H143.898V26.015H141.341V25.1185H147.512V26.015ZM155.939 29.062C155.939 29.6523 155.845 30.195 155.658 30.69C155.471 31.1813 155.207 31.6048 154.866 31.9605C154.525 32.3162 154.114 32.593 153.634 32.791C153.157 32.9853 152.629 33.0825 152.05 33.0825C151.471 33.0825 150.943 32.9853 150.466 32.791C149.989 32.593 149.581 32.3162 149.24 31.9605C148.899 31.6048 148.635 31.1813 148.448 30.69C148.261 30.195 148.167 29.6523 148.167 29.062C148.167 28.4717 148.261 27.9308 148.448 27.4395C148.635 26.9445 148.899 26.5192 149.24 26.1635C149.581 25.8042 149.989 25.5255 150.466 25.3275C150.943 25.1295 151.471 25.0305 152.05 25.0305C152.629 25.0305 153.157 25.1295 153.634 25.3275C154.114 25.5255 154.525 25.8042 154.866 26.1635C155.207 26.5192 155.471 26.9445 155.658 27.4395C155.845 27.9308 155.939 28.4717 155.939 29.062ZM154.844 29.062C154.844 28.578 154.778 28.1435 154.646 27.7585C154.514 27.3735 154.327 27.049 154.085 26.785C153.843 26.5173 153.55 26.312 153.205 26.169C152.86 26.026 152.475 25.9545 152.05 25.9545C151.628 25.9545 151.245 26.026 150.901 26.169C150.556 26.312 150.261 26.5173 150.015 26.785C149.773 27.049 149.586 27.3735 149.454 27.7585C149.322 28.1435 149.256 28.578 149.256 29.062C149.256 29.546 149.322 29.9805 149.454 30.3655C149.586 30.7468 149.773 31.0713 150.015 31.339C150.261 31.603 150.556 31.8065 150.901 31.9495C151.245 32.0888 151.628 32.1585 152.05 32.1585C152.475 32.1585 152.86 32.0888 153.205 31.9495C153.55 31.8065 153.843 31.603 154.085 31.339C154.327 31.0713 154.514 30.7468 154.646 30.3655C154.778 29.9805 154.844 29.546 154.844 29.062Z" fill="#92918D"/>
<path d="M81.5764 28.9905C81.5764 29.5698 81.4756 30.1052 81.2739 30.5965C81.0759 31.0842 80.7954 31.5077 80.4324 31.867C80.0694 32.2227 79.6312 32.5013 79.1179 32.703C78.6082 32.901 78.0417 33 77.4184 33H74.3054V24.9865H77.4184C78.0417 24.9865 78.6082 25.0873 79.1179 25.289C79.6312 25.4907 80.0694 25.7693 80.4324 26.125C80.7954 26.4807 81.0759 26.9042 81.2739 27.3955C81.4756 27.8832 81.5764 28.4148 81.5764 28.9905ZM79.6734 28.9905C79.6734 28.5945 79.6221 28.237 79.5194 27.918C79.4167 27.599 79.2682 27.3295 79.0739 27.1095C78.8832 26.8858 78.6486 26.7153 78.3699 26.598C78.0912 26.477 77.7741 26.4165 77.4184 26.4165H76.1754V31.57H77.4184C77.7741 31.57 78.0912 31.5113 78.3699 31.394C78.6486 31.273 78.8832 31.1025 79.0739 30.8825C79.2682 30.6588 79.4167 30.3875 79.5194 30.0685C79.6221 29.7495 79.6734 29.3902 79.6734 28.9905ZM84.8735 33H83.0035V24.9865H84.8735V33ZM91.1771 26.6145C91.1221 26.7025 91.0634 26.7685 91.0011 26.8125C90.9424 26.8565 90.8654 26.8785 90.7701 26.8785C90.6857 26.8785 90.5941 26.8528 90.4951 26.8015C90.3997 26.7465 90.2897 26.686 90.1651 26.62C90.0441 26.554 89.9047 26.4953 89.7471 26.444C89.5894 26.389 89.4097 26.3615 89.2081 26.3615C88.8597 26.3615 88.5994 26.4367 88.4271 26.587C88.2584 26.7337 88.1741 26.9335 88.1741 27.1865C88.1741 27.3478 88.2254 27.4817 88.3281 27.588C88.4307 27.6943 88.5646 27.786 88.7296 27.863C88.8982 27.94 89.0889 28.0115 89.3016 28.0775C89.5179 28.1398 89.7379 28.2113 89.9616 28.292C90.1852 28.369 90.4034 28.4607 90.6161 28.567C90.8324 28.6733 91.0231 28.809 91.1881 28.974C91.3567 29.139 91.4924 29.3407 91.5951 29.579C91.6977 29.8137 91.7491 30.0978 91.7491 30.4315C91.7491 30.8018 91.6849 31.1483 91.5566 31.471C91.4282 31.7937 91.2412 32.076 90.9956 32.318C90.7536 32.5563 90.4529 32.7452 90.0936 32.8845C89.7379 33.0202 89.3327 33.088 88.8781 33.088C88.6287 33.088 88.3739 33.0623 88.1136 33.011C87.8569 32.9597 87.6076 32.8882 87.3656 32.7965C87.1236 32.7012 86.8962 32.5893 86.6836 32.461C86.4709 32.3327 86.2857 32.1897 86.1281 32.032L86.6781 31.163C86.7221 31.1007 86.7789 31.0493 86.8486 31.009C86.9219 30.965 87.0007 30.943 87.0851 30.943C87.1951 30.943 87.3051 30.9778 87.4151 31.0475C87.5287 31.1172 87.6552 31.1942 87.7946 31.2785C87.9376 31.3628 88.1007 31.4398 88.2841 31.5095C88.4674 31.5792 88.6837 31.614 88.9331 31.614C89.2704 31.614 89.5326 31.5407 89.7196 31.394C89.9066 31.2437 90.0001 31.0072 90.0001 30.6845C90.0001 30.4975 89.9487 30.3453 89.8461 30.228C89.7434 30.1107 89.6077 30.0135 89.4391 29.9365C89.2741 29.8595 89.0852 29.7917 88.8726 29.733C88.6599 29.6743 88.4417 29.6102 88.2181 29.5405C87.9944 29.4672 87.7762 29.3792 87.5636 29.2765C87.3509 29.1702 87.1602 29.0327 86.9916 28.864C86.8266 28.6917 86.6927 28.479 86.5901 28.226C86.4874 27.9693 86.4361 27.654 86.4361 27.28C86.4361 26.9793 86.4966 26.686 86.6176 26.4C86.7386 26.114 86.9164 25.8592 87.1511 25.6355C87.3857 25.4118 87.6736 25.234 88.0146 25.102C88.3556 24.9663 88.7461 24.8985 89.1861 24.8985C89.4317 24.8985 89.6701 24.9187 89.9011 24.959C90.1357 24.9957 90.3576 25.0525 90.5666 25.1295C90.7756 25.2028 90.9699 25.2927 91.1496 25.399C91.3329 25.5017 91.4961 25.619 91.6391 25.751L91.1771 26.6145ZM98.5714 30.9265C98.6154 30.9265 98.6594 30.9357 98.7034 30.954C98.7474 30.9687 98.7895 30.9962 98.8299 31.0365L99.5669 31.812C99.2442 32.2337 98.839 32.5527 98.3514 32.769C97.8674 32.9817 97.2935 33.088 96.6299 33.088C96.0212 33.088 95.4749 32.9853 94.9909 32.78C94.5105 32.571 94.1017 32.285 93.7644 31.922C93.4307 31.5553 93.174 31.1227 92.9944 30.624C92.8147 30.1217 92.7249 29.5772 92.7249 28.9905C92.7249 28.3928 92.822 27.8447 93.0164 27.346C93.2107 26.8437 93.4839 26.411 93.8359 26.048C94.1879 25.685 94.6095 25.4027 95.1009 25.201C95.5922 24.9993 96.133 24.8985 96.7234 24.8985C97.024 24.8985 97.3064 24.926 97.5704 24.981C97.838 25.0323 98.0874 25.1057 98.3184 25.201C98.5494 25.2927 98.762 25.4045 98.9564 25.5365C99.1507 25.6685 99.323 25.8115 99.4734 25.9655L98.8464 26.807C98.806 26.8583 98.7584 26.906 98.7034 26.95C98.6484 26.9903 98.5714 27.0105 98.4724 27.0105C98.4064 27.0105 98.344 26.9958 98.2854 26.9665C98.2267 26.9372 98.1644 26.9023 98.0984 26.862C98.0324 26.818 97.959 26.7722 97.8784 26.7245C97.8014 26.6732 97.7079 26.6273 97.5979 26.587C97.4915 26.543 97.365 26.5063 97.2184 26.477C97.0754 26.4477 96.9067 26.433 96.7124 26.433C96.4044 26.433 96.122 26.4898 95.8654 26.6035C95.6124 26.7172 95.3924 26.884 95.2054 27.104C95.022 27.3203 94.879 27.588 94.7764 27.907C94.6774 28.2223 94.6279 28.5835 94.6279 28.9905C94.6279 29.4012 94.6829 29.766 94.7929 30.085C94.9065 30.404 95.0587 30.6735 95.2494 30.8935C95.4437 31.1098 95.6692 31.2748 95.9259 31.3885C96.1825 31.5022 96.4575 31.559 96.7509 31.559C96.9195 31.559 97.0735 31.5517 97.2129 31.537C97.3522 31.5187 97.4824 31.4912 97.6034 31.4545C97.7244 31.4142 97.838 31.3628 97.9444 31.3005C98.0507 31.2345 98.1589 31.152 98.2689 31.053C98.3129 31.0163 98.3605 30.987 98.4119 30.965C98.4632 30.9393 98.5164 30.9265 98.5714 30.9265ZM108.391 28.9905C108.391 29.5698 108.29 30.1088 108.088 30.6075C107.89 31.1062 107.61 31.5407 107.247 31.911C106.884 32.2777 106.446 32.5655 105.932 32.7745C105.423 32.9835 104.856 33.088 104.233 33.088C103.609 33.088 103.041 32.9835 102.528 32.7745C102.014 32.5655 101.574 32.2777 101.208 31.911C100.845 31.5407 100.562 31.1062 100.361 30.6075C100.163 30.1088 100.064 29.5698 100.064 28.9905C100.064 28.4112 100.163 27.8722 100.361 27.3735C100.562 26.8748 100.845 26.4422 101.208 26.0755C101.574 25.7088 102.014 25.421 102.528 25.212C103.041 25.003 103.609 24.8985 104.233 24.8985C104.856 24.8985 105.423 25.0048 105.932 25.2175C106.446 25.4265 106.884 25.7143 107.247 26.081C107.61 26.4477 107.89 26.8803 108.088 27.379C108.29 27.8777 108.391 28.4148 108.391 28.9905ZM106.488 28.9905C106.488 28.5945 106.436 28.2388 106.334 27.9235C106.231 27.6045 106.083 27.335 105.888 27.115C105.698 26.895 105.463 26.7263 105.184 26.609C104.906 26.4917 104.588 26.433 104.233 26.433C103.873 26.433 103.553 26.4917 103.27 26.609C102.992 26.7263 102.755 26.895 102.561 27.115C102.37 27.335 102.223 27.6045 102.121 27.9235C102.018 28.2388 101.967 28.5945 101.967 28.9905C101.967 29.3902 102.018 29.7495 102.121 30.0685C102.223 30.3838 102.37 30.6515 102.561 30.8715C102.755 31.0915 102.992 31.2602 103.27 31.3775C103.553 31.4912 103.873 31.548 104.233 31.548C104.588 31.548 104.906 31.4912 105.184 31.3775C105.463 31.2602 105.698 31.0915 105.888 30.8715C106.083 30.6515 106.231 30.3838 106.334 30.0685C106.436 29.7495 106.488 29.3902 106.488 28.9905ZM116.713 24.9865L113.501 33H111.818L108.606 24.9865H110.102C110.264 24.9865 110.394 25.025 110.493 25.102C110.592 25.1753 110.667 25.2707 110.718 25.388L112.269 29.678C112.343 29.865 112.414 30.0703 112.484 30.294C112.553 30.514 112.619 30.745 112.682 30.987C112.733 30.745 112.79 30.514 112.852 30.294C112.918 30.0703 112.988 29.865 113.061 29.678L114.601 25.388C114.642 25.2853 114.713 25.1937 114.816 25.113C114.922 25.0287 115.052 24.9865 115.206 24.9865H116.713ZM119.545 26.4165V28.2865H122.064V29.6615H119.545V31.57H122.834V33H117.675V24.9865H122.834V26.4165H119.545ZM126.918 28.754C127.171 28.754 127.385 28.7228 127.561 28.6605C127.741 28.5945 127.888 28.5047 128.001 28.391C128.115 28.2773 128.197 28.1453 128.249 27.995C128.3 27.841 128.326 27.676 128.326 27.5C128.326 27.148 128.21 26.873 127.979 26.675C127.752 26.477 127.398 26.378 126.918 26.378H126.17V28.754H126.918ZM130.867 33H129.184C128.872 33 128.648 32.8827 128.513 32.648L127.182 30.3215C127.119 30.2225 127.05 30.151 126.973 30.107C126.896 30.0593 126.786 30.0355 126.643 30.0355H126.17V33H124.311V24.9865H126.918C127.497 24.9865 127.99 25.047 128.397 25.168C128.808 25.2853 129.142 25.4503 129.398 25.663C129.659 25.8757 129.847 26.1268 129.965 26.4165C130.082 26.7062 130.141 27.0215 130.141 27.3625C130.141 27.6228 130.106 27.8685 130.036 28.0995C129.967 28.3305 129.864 28.545 129.728 28.743C129.593 28.9373 129.424 29.1115 129.222 29.2655C129.024 29.4195 128.795 29.546 128.535 29.645C128.656 29.7073 128.769 29.7862 128.876 29.8815C128.982 29.9732 129.077 30.0832 129.162 30.2115L130.867 33ZM135.28 29.953V33H133.421V29.953L130.517 24.9865H132.156C132.317 24.9865 132.443 25.025 132.535 25.102C132.63 25.1753 132.709 25.2707 132.772 25.388L133.905 27.72C134 27.9033 134.086 28.0757 134.163 28.237C134.24 28.3947 134.308 28.5505 134.367 28.7045C134.422 28.5468 134.484 28.3892 134.554 28.2315C134.627 28.0702 134.711 27.8997 134.807 27.72L135.929 25.388C135.954 25.3403 135.985 25.2927 136.022 25.245C136.059 25.1973 136.101 25.1552 136.149 25.1185C136.2 25.0782 136.257 25.047 136.319 25.025C136.385 24.9993 136.457 24.9865 136.534 24.9865H138.184L135.28 29.953ZM167.98 28.9905C167.98 29.5698 167.879 30.1052 167.677 30.5965C167.479 31.0842 167.199 31.5077 166.836 31.867C166.473 32.2227 166.034 32.5013 165.521 32.703C165.012 32.901 164.445 33 163.822 33H160.709V24.9865H163.822C164.445 24.9865 165.012 25.0873 165.521 25.289C166.034 25.4907 166.473 25.7693 166.836 26.125C167.199 26.4807 167.479 26.9042 167.677 27.3955C167.879 27.8832 167.98 28.4148 167.98 28.9905ZM166.077 28.9905C166.077 28.5945 166.025 28.237 165.923 27.918C165.82 27.599 165.672 27.3295 165.477 27.1095C165.286 26.8858 165.052 26.7153 164.773 26.598C164.495 26.477 164.177 26.4165 163.822 26.4165H162.579V31.57H163.822C164.177 31.57 164.495 31.5113 164.773 31.394C165.052 31.273 165.286 31.1025 165.477 30.8825C165.672 30.6588 165.82 30.3875 165.923 30.0685C166.025 29.7495 166.077 29.3902 166.077 28.9905ZM171.277 26.4165V28.2865H173.796V29.6615H171.277V31.57H174.566V33H169.407V24.9865H174.566V26.4165H171.277ZM180.871 31.515V33H176.042V24.9865H177.901V31.515H180.871ZM184.022 33H182.152V24.9865H184.022V33ZM193.086 24.9865L189.874 33H188.191L184.979 24.9865H186.475C186.637 24.9865 186.767 25.025 186.866 25.102C186.965 25.1753 187.04 25.2707 187.091 25.388L188.642 29.678C188.716 29.865 188.787 30.0703 188.857 30.294C188.926 30.514 188.992 30.745 189.055 30.987C189.106 30.745 189.163 30.514 189.225 30.294C189.291 30.0703 189.361 29.865 189.434 29.678L190.974 25.388C191.015 25.2853 191.086 25.1937 191.189 25.113C191.295 25.0287 191.425 24.9865 191.579 24.9865H193.086ZM195.918 26.4165V28.2865H198.437V29.6615H195.918V31.57H199.207V33H194.048V24.9865H199.207V26.4165H195.918ZM203.291 28.754C203.544 28.754 203.758 28.7228 203.934 28.6605C204.114 28.5945 204.261 28.5047 204.374 28.391C204.488 28.2773 204.57 28.1453 204.622 27.995C204.673 27.841 204.699 27.676 204.699 27.5C204.699 27.148 204.583 26.873 204.352 26.675C204.125 26.477 203.771 26.378 203.291 26.378H202.543V28.754H203.291ZM207.24 33H205.557C205.245 33 205.021 32.8827 204.886 32.648L203.555 30.3215C203.492 30.2225 203.423 30.151 203.346 30.107C203.269 30.0593 203.159 30.0355 203.016 30.0355H202.543V33H200.684V24.9865H203.291C203.87 24.9865 204.363 25.047 204.77 25.168C205.181 25.2853 205.515 25.4503 205.771 25.663C206.032 25.8757 206.22 26.1268 206.338 26.4165C206.455 26.7062 206.514 27.0215 206.514 27.3625C206.514 27.6228 206.479 27.8685 206.409 28.0995C206.34 28.3305 206.237 28.545 206.101 28.743C205.966 28.9373 205.797 29.1115 205.595 29.2655C205.397 29.4195 205.168 29.546 204.908 29.645C205.029 29.7073 205.142 29.7862 205.249 29.8815C205.355 29.9732 205.45 30.0832 205.535 30.2115L207.24 33ZM211.653 29.953V33H209.794V29.953L206.89 24.9865H208.529C208.69 24.9865 208.816 25.025 208.908 25.102C209.003 25.1753 209.082 25.2707 209.145 25.388L210.278 27.72C210.373 27.9033 210.459 28.0757 210.536 28.237C210.613 28.3947 210.681 28.5505 210.74 28.7045C210.795 28.5468 210.857 28.3892 210.927 28.2315C211 28.0702 211.084 27.8997 211.18 27.72L212.302 25.388C212.327 25.3403 212.358 25.2927 212.395 25.245C212.432 25.1973 212.474 25.1552 212.522 25.1185C212.573 25.0782 212.63 25.047 212.692 25.025C212.758 24.9993 212.83 24.9865 212.907 24.9865H214.557L211.653 29.953Z" fill="#B7B6B3"/>
<mask id="path-2-outside-1_5840_6603" maskUnits="userSpaceOnUse" x="37" y="5" width="177" height="17" fill="black">
<rect fill="white" x="37" y="5" width="177" height="17"/>
<path d="M45.5323 15.605C45.5323 16.4488 45.4285 17.2131 45.221 17.8979C45.0135 18.5757 44.6988 19.1602 44.2769 19.6512C43.8619 20.1354 43.3397 20.5089 42.7103 20.7717C42.0808 21.0346 41.3477 21.166 40.5108 21.166C40.1303 21.166 39.7534 21.1418 39.3799 21.0934C39.0133 21.0519 38.626 20.9827 38.2179 20.8859C38.2455 20.5815 38.2732 20.2772 38.3009 19.9729C38.3285 19.6685 38.3562 19.3642 38.3839 19.0599C38.4046 18.8939 38.4703 18.7625 38.581 18.6656C38.6917 18.5619 38.8508 18.51 39.0583 18.51C39.1758 18.51 39.3245 18.5307 39.5044 18.5722C39.6911 18.6137 39.9194 18.6345 40.1891 18.6345C40.5626 18.6345 40.8877 18.5826 41.1644 18.4789C41.441 18.3751 41.6728 18.2057 41.8595 17.9705C42.0463 17.7353 42.1846 17.431 42.2745 17.0575C42.3713 16.6771 42.4198 16.2171 42.4198 15.6776V5.94587H45.5323V15.605ZM51.2518 21H48.1185V5.94587H51.2518V21ZM70.5853 5.94587V21H67.8359V11.7559C67.8359 11.5622 67.8394 11.3547 67.8463 11.1334C67.8601 10.912 67.8809 10.6872 67.9085 10.459L63.6029 18.6241C63.3677 19.0737 63.0046 19.2985 62.5135 19.2985H62.0778C61.8357 19.2985 61.6213 19.2432 61.4345 19.1325C61.2478 19.0149 61.0991 18.8455 60.9884 18.6241L56.662 10.4279C56.6828 10.67 56.7001 10.9051 56.7139 11.1334C56.7277 11.3547 56.7347 11.5622 56.7347 11.7559V21H53.9853V5.94587H56.3508C56.4822 5.94587 56.5998 5.94933 56.7035 5.95625C56.8073 5.96317 56.8972 5.98392 56.9733 6.0185C57.0563 6.04617 57.1289 6.09458 57.1912 6.16375C57.2603 6.226 57.326 6.31592 57.3883 6.4335L61.6005 14.4637C61.7319 14.7058 61.853 14.9548 61.9637 15.2107C62.0812 15.4667 62.1919 15.7295 62.2957 15.9992C62.3994 15.7226 62.5066 15.4528 62.6173 15.19C62.7349 14.9272 62.8594 14.6747 62.9908 14.4326L67.1719 6.4335C67.2342 6.31592 67.2999 6.226 67.369 6.16375C67.4382 6.09458 67.5108 6.04617 67.5869 6.0185C67.6699 5.98392 67.7598 5.96317 67.8567 5.95625C67.9604 5.94933 68.0814 5.94587 68.2198 5.94587H70.5853ZM85.1409 13.3329H90.3077V19.5475C89.5399 20.1077 88.7203 20.5193 87.8488 20.7821C86.9842 21.038 86.0678 21.166 85.0994 21.166C83.8613 21.166 82.7408 20.9758 81.7379 20.5954C80.735 20.208 79.8773 19.672 79.1649 18.9872C78.4525 18.3025 77.9026 17.4898 77.5153 16.5491C77.128 15.6085 76.9343 14.5813 76.9343 13.4677C76.9343 12.3403 77.1176 11.3063 77.4842 10.3656C77.8577 9.42496 78.3868 8.61571 79.0715 7.93787C79.7563 7.26004 80.5828 6.73092 81.5512 6.3505C82.5264 5.97008 83.6158 5.77987 84.8193 5.77987C85.4418 5.77987 86.0228 5.83175 86.5623 5.9355C87.1018 6.03233 87.5998 6.17067 88.0563 6.3505C88.5128 6.52342 88.9313 6.73092 89.3117 6.973C89.6921 7.21508 90.0379 7.48137 90.3492 7.77187L89.4465 9.16212C89.3082 9.38346 89.1284 9.51833 88.907 9.56675C88.6857 9.61517 88.4436 9.55983 88.1808 9.40075C87.9318 9.24858 87.6863 9.11371 87.4442 8.99612C87.209 8.87162 86.9565 8.76442 86.6868 8.6745C86.417 8.58458 86.1231 8.51542 85.8049 8.467C85.4868 8.41858 85.1202 8.39437 84.7052 8.39437C84.0066 8.39437 83.3737 8.51542 82.8065 8.7575C82.2394 8.99958 81.7552 9.34196 81.354 9.78462C80.9598 10.2273 80.6555 10.7599 80.441 11.3824C80.2266 12.0049 80.1194 12.7 80.1194 13.4677C80.1194 14.2977 80.237 15.0413 80.4722 15.6984C80.7073 16.3485 81.0393 16.8984 81.4682 17.348C81.897 17.7976 82.4088 18.14 83.0037 18.3751C83.6054 18.6103 84.2729 18.7279 85.006 18.7279C85.504 18.7279 85.9467 18.6795 86.334 18.5826C86.7283 18.4789 87.1122 18.3405 87.4857 18.1676V15.6361H85.7842C85.5836 15.6361 85.4245 15.5842 85.3069 15.4805C85.1963 15.3698 85.1409 15.2315 85.1409 15.0655V13.3329ZM101.37 18.4685V21H92.4368V5.94587H95.5493V18.4685H101.37ZM116.943 13.4677C116.943 14.5675 116.756 15.5877 116.382 16.5284C116.016 17.469 115.494 18.2817 114.816 18.9665C114.145 19.6512 113.336 20.1907 112.388 20.585C111.44 20.9723 110.389 21.166 109.234 21.166C108.079 21.166 107.028 20.9723 106.08 20.585C105.132 20.1907 104.32 19.6512 103.642 18.9665C102.964 18.2817 102.438 17.469 102.065 16.5284C101.698 15.5877 101.515 14.5675 101.515 13.4677C101.515 12.368 101.698 11.3512 102.065 10.4175C102.438 9.47683 102.964 8.66412 103.642 7.97937C104.32 7.29462 105.132 6.75858 106.08 6.37125C107.028 5.977 108.079 5.77987 109.234 5.77987C110.389 5.77987 111.44 5.977 112.388 6.37125C113.336 6.75858 114.145 7.29808 114.816 7.98975C115.494 8.6745 116.016 9.48721 116.382 10.4279C116.756 11.3616 116.943 12.3749 116.943 13.4677ZM113.757 13.4677C113.757 12.6792 113.654 11.9737 113.446 11.3512C113.239 10.7218 112.938 10.1892 112.544 9.7535C112.156 9.31083 111.682 8.97537 111.122 8.74712C110.569 8.51196 109.939 8.39437 109.234 8.39437C108.528 8.39437 107.896 8.51196 107.335 8.74712C106.775 8.97537 106.298 9.31083 105.904 9.7535C105.516 10.1892 105.219 10.7218 105.011 11.3512C104.804 11.9737 104.7 12.6792 104.7 13.4677C104.7 14.2632 104.804 14.9756 105.011 15.605C105.219 16.2275 105.516 16.7566 105.904 17.1924C106.298 17.6281 106.775 17.9636 107.335 18.1987C107.896 18.427 108.528 18.5411 109.234 18.5411C109.939 18.5411 110.569 18.427 111.122 18.1987C111.682 17.9636 112.156 17.6281 112.544 17.1924C112.938 16.7566 113.239 16.2275 113.446 15.605C113.654 14.9756 113.757 14.2632 113.757 13.4677ZM132.299 13.4677C132.299 14.5675 132.112 15.5808 131.738 16.5076C131.372 17.4275 130.849 18.2195 130.172 18.8835C129.501 19.5475 128.691 20.0662 127.744 20.4397C126.796 20.8132 125.745 21 124.59 21H118.801V5.94587H124.59C125.745 5.94587 126.796 6.13262 127.744 6.50612C128.691 6.87962 129.501 7.40183 130.172 8.07275C130.849 8.73675 131.372 9.52871 131.738 10.4486C132.112 11.3685 132.299 12.3749 132.299 13.4677ZM129.103 13.4677C129.103 12.6792 128.999 11.9703 128.792 11.3409C128.584 10.7115 128.287 10.1789 127.9 9.74312C127.512 9.30737 127.038 8.97192 126.478 8.73675C125.925 8.50158 125.295 8.384 124.59 8.384H121.934V18.5619H124.59C125.295 18.5619 125.925 18.4477 126.478 18.2195C127.038 17.9843 127.512 17.6489 127.9 17.2131C128.287 16.7705 128.584 16.2344 128.792 15.605C128.999 14.9756 129.103 14.2632 129.103 13.4677ZM137.284 12.1605H137.896C138.408 12.1605 138.778 12.0014 139.006 11.6832L142.813 6.58912C142.993 6.34704 143.19 6.18104 143.405 6.09112C143.619 5.99429 143.882 5.94587 144.193 5.94587H146.891L142.098 12.119C141.786 12.5202 141.465 12.8072 141.133 12.9801C141.375 13.077 141.593 13.2049 141.786 13.364C141.98 13.5162 142.167 13.7202 142.347 13.9761L147.264 21H144.494C144.314 21 144.159 20.9862 144.027 20.9585C143.903 20.9308 143.792 20.8928 143.695 20.8444C143.598 20.796 143.515 20.7372 143.446 20.668C143.377 20.5919 143.311 20.5055 143.249 20.4086L139.379 14.9929C139.248 14.8061 139.092 14.6747 138.912 14.5986C138.733 14.5156 138.48 14.4741 138.155 14.4741H137.284V21H134.171V5.94587H137.284V12.1605ZM162 13.4677C162 14.5675 161.813 15.5877 161.44 16.5284C161.073 17.469 160.551 18.2817 159.873 18.9665C159.202 19.6512 158.393 20.1907 157.445 20.585C156.498 20.9723 155.447 21.166 154.291 21.166C153.136 21.166 152.085 20.9723 151.137 20.585C150.19 20.1907 149.377 19.6512 148.699 18.9665C148.021 18.2817 147.496 17.469 147.122 16.5284C146.756 15.5877 146.572 14.5675 146.572 13.4677C146.572 12.368 146.756 11.3512 147.122 10.4175C147.496 9.47683 148.021 8.66412 148.699 7.97937C149.377 7.29462 150.19 6.75858 151.137 6.37125C152.085 5.977 153.136 5.77987 154.291 5.77987C155.447 5.77987 156.498 5.977 157.445 6.37125C158.393 6.75858 159.202 7.29808 159.873 7.98975C160.551 8.6745 161.073 9.48721 161.44 10.4279C161.813 11.3616 162 12.3749 162 13.4677ZM158.815 13.4677C158.815 12.6792 158.711 11.9737 158.504 11.3512C158.296 10.7218 157.995 10.1892 157.601 9.7535C157.214 9.31083 156.74 8.97537 156.18 8.74712C155.626 8.51196 154.997 8.39437 154.291 8.39437C153.586 8.39437 152.953 8.51196 152.393 8.74712C151.833 8.97537 151.355 9.31083 150.961 9.7535C150.574 10.1892 150.276 10.7218 150.069 11.3512C149.861 11.9737 149.758 12.6792 149.758 13.4677C149.758 14.2632 149.861 14.9756 150.069 15.605C150.276 16.2275 150.574 16.7566 150.961 17.1924C151.355 17.6281 151.833 17.9636 152.393 18.1987C152.953 18.427 153.586 18.5411 154.291 18.5411C154.997 18.5411 155.626 18.427 156.18 18.1987C156.74 17.9636 157.214 17.6281 157.601 17.1924C157.995 16.7566 158.296 16.2275 158.504 15.605C158.711 14.9756 158.815 14.2632 158.815 13.4677ZM183.766 5.94587L179.097 21H176.285L173.204 11.1541C173.156 11.0158 173.107 10.8636 173.059 10.6976C173.01 10.5316 172.965 10.3552 172.924 10.1685C172.882 10.3552 172.837 10.5316 172.789 10.6976C172.741 10.8636 172.692 11.0158 172.644 11.1541L169.531 21H166.709L162.051 5.94587H164.665C164.935 5.94587 165.16 6.00812 165.34 6.13262C165.526 6.25712 165.647 6.42312 165.703 6.63062L168.037 15.1174C168.093 15.3525 168.148 15.6085 168.203 15.8851C168.265 16.1549 168.324 16.4419 168.38 16.7462C168.442 16.435 168.508 16.1445 168.577 15.8747C168.646 15.605 168.722 15.3525 168.805 15.1174L171.523 6.63062C171.579 6.45771 171.696 6.30208 171.876 6.16375C172.063 6.0185 172.287 5.94587 172.55 5.94587H173.463C173.733 5.94587 173.951 6.01158 174.117 6.143C174.29 6.2675 174.418 6.43004 174.501 6.63062L177.209 15.1174C177.292 15.3387 177.368 15.5808 177.437 15.8436C177.506 16.0995 177.572 16.3727 177.634 16.6632C177.689 16.3727 177.741 16.0995 177.79 15.8436C177.845 15.5808 177.9 15.3387 177.956 15.1174L180.29 6.63062C180.338 6.45079 180.456 6.29171 180.643 6.15337C180.83 6.01504 181.054 5.94587 181.317 5.94587H183.766ZM193.017 8.83012C192.92 8.98921 192.819 9.10679 192.716 9.18287C192.619 9.25204 192.491 9.28662 192.332 9.28662C192.18 9.28662 192.014 9.23475 191.834 9.131C191.661 9.02033 191.457 8.90275 191.222 8.77825C190.987 8.65375 190.717 8.53962 190.412 8.43587C190.108 8.32521 189.752 8.26987 189.344 8.26987C188.625 8.26987 188.085 8.43242 187.725 8.7575C187.366 9.07567 187.186 9.49412 187.186 10.0129C187.186 10.3449 187.283 10.6215 187.476 10.8429C187.677 11.0573 187.936 11.244 188.254 11.4031C188.58 11.5622 188.946 11.704 189.354 11.8285C189.762 11.953 190.181 12.0913 190.61 12.2435C191.038 12.3887 191.457 12.5617 191.865 12.7622C192.273 12.9628 192.636 13.2153 192.954 13.5196C193.279 13.824 193.539 14.1975 193.732 14.6401C193.933 15.0759 194.033 15.6085 194.033 16.2379C194.033 16.9226 193.912 17.5659 193.67 18.1676C193.435 18.7625 193.093 19.2847 192.643 19.7342C192.194 20.1769 191.637 20.5262 190.973 20.7821C190.316 21.038 189.569 21.166 188.732 21.166C188.254 21.166 187.777 21.1176 187.3 21.0208C186.83 20.9239 186.373 20.789 185.93 20.6161C185.495 20.4432 185.083 20.2357 184.696 19.9936C184.309 19.7515 183.97 19.4818 183.679 19.1844L184.592 17.7111C184.668 17.6005 184.768 17.5105 184.893 17.4414C185.017 17.3653 185.149 17.3272 185.287 17.3272C185.474 17.3272 185.671 17.3964 185.879 17.5347C186.086 17.6731 186.325 17.8252 186.594 17.9912C186.864 18.1572 187.175 18.3094 187.528 18.4477C187.888 18.5861 188.317 18.6552 188.815 18.6552C189.541 18.6552 190.101 18.4892 190.495 18.1572C190.897 17.8252 191.097 17.3307 191.097 16.6736C191.097 16.2932 190.997 15.9854 190.796 15.7502C190.603 15.5151 190.347 15.318 190.029 15.1589C189.71 14.9998 189.347 14.8649 188.939 14.7542C188.531 14.6367 188.113 14.5087 187.684 14.3704C187.255 14.232 186.837 14.066 186.428 13.8724C186.02 13.6787 185.657 13.4228 185.339 13.1046C185.021 12.7865 184.762 12.3922 184.561 11.9219C184.367 11.4515 184.27 10.8671 184.27 10.1685C184.27 9.60825 184.381 9.06529 184.602 8.53962C184.824 8.01396 185.149 7.54708 185.578 7.139C186.007 6.73092 186.532 6.40237 187.155 6.15337C187.784 5.90437 188.503 5.77987 189.313 5.77987C190.219 5.77987 191.056 5.92167 191.823 6.20525C192.598 6.48192 193.252 6.86925 193.784 7.36725L193.017 8.83012ZM198.988 12.1605H199.6C200.112 12.1605 200.482 12.0014 200.71 11.6832L204.518 6.58912C204.698 6.34704 204.895 6.18104 205.109 6.09112C205.324 5.99429 205.587 5.94587 205.898 5.94587H208.595L203.802 12.119C203.491 12.5202 203.169 12.8072 202.837 12.9801C203.079 13.077 203.297 13.2049 203.491 13.364C203.684 13.5162 203.871 13.7202 204.051 13.9761L208.969 21H206.199C206.019 21 205.863 20.9862 205.732 20.9585C205.607 20.9308 205.497 20.8928 205.4 20.8444C205.303 20.796 205.22 20.7372 205.151 20.668C205.082 20.5919 205.016 20.5055 204.954 20.4086L201.084 14.9929C200.952 14.8061 200.797 14.6747 200.617 14.5986C200.437 14.5156 200.185 14.4741 199.86 14.4741H198.988V21H195.876V5.94587H198.988V12.1605ZM213.022 21H209.888V5.94587H213.022V21Z"/>
</mask>
<path d="M45.5323 15.605C45.5323 16.4488 45.4285 17.2131 45.221 17.8979C45.0135 18.5757 44.6988 19.1602 44.2769 19.6512C43.8619 20.1354 43.3397 20.5089 42.7103 20.7717C42.0808 21.0346 41.3477 21.166 40.5108 21.166C40.1303 21.166 39.7534 21.1418 39.3799 21.0934C39.0133 21.0519 38.626 20.9827 38.2179 20.8859C38.2455 20.5815 38.2732 20.2772 38.3009 19.9729C38.3285 19.6685 38.3562 19.3642 38.3839 19.0599C38.4046 18.8939 38.4703 18.7625 38.581 18.6656C38.6917 18.5619 38.8508 18.51 39.0583 18.51C39.1758 18.51 39.3245 18.5307 39.5044 18.5722C39.6911 18.6137 39.9194 18.6345 40.1891 18.6345C40.5626 18.6345 40.8877 18.5826 41.1644 18.4789C41.441 18.3751 41.6728 18.2057 41.8595 17.9705C42.0463 17.7353 42.1846 17.431 42.2745 17.0575C42.3713 16.6771 42.4198 16.2171 42.4198 15.6776V5.94587H45.5323V15.605ZM51.2518 21H48.1185V5.94587H51.2518V21ZM70.5853 5.94587V21H67.8359V11.7559C67.8359 11.5622 67.8394 11.3547 67.8463 11.1334C67.8601 10.912 67.8809 10.6872 67.9085 10.459L63.6029 18.6241C63.3677 19.0737 63.0046 19.2985 62.5135 19.2985H62.0778C61.8357 19.2985 61.6213 19.2432 61.4345 19.1325C61.2478 19.0149 61.0991 18.8455 60.9884 18.6241L56.662 10.4279C56.6828 10.67 56.7001 10.9051 56.7139 11.1334C56.7277 11.3547 56.7347 11.5622 56.7347 11.7559V21H53.9853V5.94587H56.3508C56.4822 5.94587 56.5998 5.94933 56.7035 5.95625C56.8073 5.96317 56.8972 5.98392 56.9733 6.0185C57.0563 6.04617 57.1289 6.09458 57.1912 6.16375C57.2603 6.226 57.326 6.31592 57.3883 6.4335L61.6005 14.4637C61.7319 14.7058 61.853 14.9548 61.9637 15.2107C62.0812 15.4667 62.1919 15.7295 62.2957 15.9992C62.3994 15.7226 62.5066 15.4528 62.6173 15.19C62.7349 14.9272 62.8594 14.6747 62.9908 14.4326L67.1719 6.4335C67.2342 6.31592 67.2999 6.226 67.369 6.16375C67.4382 6.09458 67.5108 6.04617 67.5869 6.0185C67.6699 5.98392 67.7598 5.96317 67.8567 5.95625C67.9604 5.94933 68.0814 5.94587 68.2198 5.94587H70.5853ZM85.1409 13.3329H90.3077V19.5475C89.5399 20.1077 88.7203 20.5193 87.8488 20.7821C86.9842 21.038 86.0678 21.166 85.0994 21.166C83.8613 21.166 82.7408 20.9758 81.7379 20.5954C80.735 20.208 79.8773 19.672 79.1649 18.9872C78.4525 18.3025 77.9026 17.4898 77.5153 16.5491C77.128 15.6085 76.9343 14.5813 76.9343 13.4677C76.9343 12.3403 77.1176 11.3063 77.4842 10.3656C77.8577 9.42496 78.3868 8.61571 79.0715 7.93787C79.7563 7.26004 80.5828 6.73092 81.5512 6.3505C82.5264 5.97008 83.6158 5.77987 84.8193 5.77987C85.4418 5.77987 86.0228 5.83175 86.5623 5.9355C87.1018 6.03233 87.5998 6.17067 88.0563 6.3505C88.5128 6.52342 88.9313 6.73092 89.3117 6.973C89.6921 7.21508 90.0379 7.48137 90.3492 7.77187L89.4465 9.16212C89.3082 9.38346 89.1284 9.51833 88.907 9.56675C88.6857 9.61517 88.4436 9.55983 88.1808 9.40075C87.9318 9.24858 87.6863 9.11371 87.4442 8.99612C87.209 8.87162 86.9565 8.76442 86.6868 8.6745C86.417 8.58458 86.1231 8.51542 85.8049 8.467C85.4868 8.41858 85.1202 8.39437 84.7052 8.39437C84.0066 8.39437 83.3737 8.51542 82.8065 8.7575C82.2394 8.99958 81.7552 9.34196 81.354 9.78462C80.9598 10.2273 80.6555 10.7599 80.441 11.3824C80.2266 12.0049 80.1194 12.7 80.1194 13.4677C80.1194 14.2977 80.237 15.0413 80.4722 15.6984C80.7073 16.3485 81.0393 16.8984 81.4682 17.348C81.897 17.7976 82.4088 18.14 83.0037 18.3751C83.6054 18.6103 84.2729 18.7279 85.006 18.7279C85.504 18.7279 85.9467 18.6795 86.334 18.5826C86.7283 18.4789 87.1122 18.3405 87.4857 18.1676V15.6361H85.7842C85.5836 15.6361 85.4245 15.5842 85.3069 15.4805C85.1963 15.3698 85.1409 15.2315 85.1409 15.0655V13.3329ZM101.37 18.4685V21H92.4368V5.94587H95.5493V18.4685H101.37ZM116.943 13.4677C116.943 14.5675 116.756 15.5877 116.382 16.5284C116.016 17.469 115.494 18.2817 114.816 18.9665C114.145 19.6512 113.336 20.1907 112.388 20.585C111.44 20.9723 110.389 21.166 109.234 21.166C108.079 21.166 107.028 20.9723 106.08 20.585C105.132 20.1907 104.32 19.6512 103.642 18.9665C102.964 18.2817 102.438 17.469 102.065 16.5284C101.698 15.5877 101.515 14.5675 101.515 13.4677C101.515 12.368 101.698 11.3512 102.065 10.4175C102.438 9.47683 102.964 8.66412 103.642 7.97937C104.32 7.29462 105.132 6.75858 106.08 6.37125C107.028 5.977 108.079 5.77987 109.234 5.77987C110.389 5.77987 111.44 5.977 112.388 6.37125C113.336 6.75858 114.145 7.29808 114.816 7.98975C115.494 8.6745 116.016 9.48721 116.382 10.4279C116.756 11.3616 116.943 12.3749 116.943 13.4677ZM113.757 13.4677C113.757 12.6792 113.654 11.9737 113.446 11.3512C113.239 10.7218 112.938 10.1892 112.544 9.7535C112.156 9.31083 111.682 8.97537 111.122 8.74712C110.569 8.51196 109.939 8.39437 109.234 8.39437C108.528 8.39437 107.896 8.51196 107.335 8.74712C106.775 8.97537 106.298 9.31083 105.904 9.7535C105.516 10.1892 105.219 10.7218 105.011 11.3512C104.804 11.9737 104.7 12.6792 104.7 13.4677C104.7 14.2632 104.804 14.9756 105.011 15.605C105.219 16.2275 105.516 16.7566 105.904 17.1924C106.298 17.6281 106.775 17.9636 107.335 18.1987C107.896 18.427 108.528 18.5411 109.234 18.5411C109.939 18.5411 110.569 18.427 111.122 18.1987C111.682 17.9636 112.156 17.6281 112.544 17.1924C112.938 16.7566 113.239 16.2275 113.446 15.605C113.654 14.9756 113.757 14.2632 113.757 13.4677ZM132.299 13.4677C132.299 14.5675 132.112 15.5808 131.738 16.5076C131.372 17.4275 130.849 18.2195 130.172 18.8835C129.501 19.5475 128.691 20.0662 127.744 20.4397C126.796 20.8132 125.745 21 124.59 21H118.801V5.94587H124.59C125.745 5.94587 126.796 6.13262 127.744 6.50612C128.691 6.87962 129.501 7.40183 130.172 8.07275C130.849 8.73675 131.372 9.52871 131.738 10.4486C132.112 11.3685 132.299 12.3749 132.299 13.4677ZM129.103 13.4677C129.103 12.6792 128.999 11.9703 128.792 11.3409C128.584 10.7115 128.287 10.1789 127.9 9.74312C127.512 9.30737 127.038 8.97192 126.478 8.73675C125.925 8.50158 125.295 8.384 124.59 8.384H121.934V18.5619H124.59C125.295 18.5619 125.925 18.4477 126.478 18.2195C127.038 17.9843 127.512 17.6489 127.9 17.2131C128.287 16.7705 128.584 16.2344 128.792 15.605C128.999 14.9756 129.103 14.2632 129.103 13.4677ZM137.284 12.1605H137.896C138.408 12.1605 138.778 12.0014 139.006 11.6832L142.813 6.58912C142.993 6.34704 143.19 6.18104 143.405 6.09112C143.619 5.99429 143.882 5.94587 144.193 5.94587H146.891L142.098 12.119C141.786 12.5202 141.465 12.8072 141.133 12.9801C141.375 13.077 141.593 13.2049 141.786 13.364C141.98 13.5162 142.167 13.7202 142.347 13.9761L147.264 21H144.494C144.314 21 144.159 20.9862 144.027 20.9585C143.903 20.9308 143.792 20.8928 143.695 20.8444C143.598 20.796 143.515 20.7372 143.446 20.668C143.377 20.5919 143.311 20.5055 143.249 20.4086L139.379 14.9929C139.248 14.8061 139.092 14.6747 138.912 14.5986C138.733 14.5156 138.48 14.4741 138.155 14.4741H137.284V21H134.171V5.94587H137.284V12.1605ZM162 13.4677C162 14.5675 161.813 15.5877 161.44 16.5284C161.073 17.469 160.551 18.2817 159.873 18.9665C159.202 19.6512 158.393 20.1907 157.445 20.585C156.498 20.9723 155.447 21.166 154.291 21.166C153.136 21.166 152.085 20.9723 151.137 20.585C150.19 20.1907 149.377 19.6512 148.699 18.9665C148.021 18.2817 147.496 17.469 147.122 16.5284C146.756 15.5877 146.572 14.5675 146.572 13.4677C146.572 12.368 146.756 11.3512 147.122 10.4175C147.496 9.47683 148.021 8.66412 148.699 7.97937C149.377 7.29462 150.19 6.75858 151.137 6.37125C152.085 5.977 153.136 5.77987 154.291 5.77987C155.447 5.77987 156.498 5.977 157.445 6.37125C158.393 6.75858 159.202 7.29808 159.873 7.98975C160.551 8.6745 161.073 9.48721 161.44 10.4279C161.813 11.3616 162 12.3749 162 13.4677ZM158.815 13.4677C158.815 12.6792 158.711 11.9737 158.504 11.3512C158.296 10.7218 157.995 10.1892 157.601 9.7535C157.214 9.31083 156.74 8.97537 156.18 8.74712C155.626 8.51196 154.997 8.39437 154.291 8.39437C153.586 8.39437 152.953 8.51196 152.393 8.74712C151.833 8.97537 151.355 9.31083 150.961 9.7535C150.574 10.1892 150.276 10.7218 150.069 11.3512C149.861 11.9737 149.758 12.6792 149.758 13.4677C149.758 14.2632 149.861 14.9756 150.069 15.605C150.276 16.2275 150.574 16.7566 150.961 17.1924C151.355 17.6281 151.833 17.9636 152.393 18.1987C152.953 18.427 153.586 18.5411 154.291 18.5411C154.997 18.5411 155.626 18.427 156.18 18.1987C156.74 17.9636 157.214 17.6281 157.601 17.1924C157.995 16.7566 158.296 16.2275 158.504 15.605C158.711 14.9756 158.815 14.2632 158.815 13.4677ZM183.766 5.94587L179.097 21H176.285L173.204 11.1541C173.156 11.0158 173.107 10.8636 173.059 10.6976C173.01 10.5316 172.965 10.3552 172.924 10.1685C172.882 10.3552 172.837 10.5316 172.789 10.6976C172.741 10.8636 172.692 11.0158 172.644 11.1541L169.531 21H166.709L162.051 5.94587H164.665C164.935 5.94587 165.16 6.00812 165.34 6.13262C165.526 6.25712 165.647 6.42312 165.703 6.63062L168.037 15.1174C168.093 15.3525 168.148 15.6085 168.203 15.8851C168.265 16.1549 168.324 16.4419 168.38 16.7462C168.442 16.435 168.508 16.1445 168.577 15.8747C168.646 15.605 168.722 15.3525 168.805 15.1174L171.523 6.63062C171.579 6.45771 171.696 6.30208 171.876 6.16375C172.063 6.0185 172.287 5.94587 172.55 5.94587H173.463C173.733 5.94587 173.951 6.01158 174.117 6.143C174.29 6.2675 174.418 6.43004 174.501 6.63062L177.209 15.1174C177.292 15.3387 177.368 15.5808 177.437 15.8436C177.506 16.0995 177.572 16.3727 177.634 16.6632C177.689 16.3727 177.741 16.0995 177.79 15.8436C177.845 15.5808 177.9 15.3387 177.956 15.1174L180.29 6.63062C180.338 6.45079 180.456 6.29171 180.643 6.15337C180.83 6.01504 181.054 5.94587 181.317 5.94587H183.766ZM193.017 8.83012C192.92 8.98921 192.819 9.10679 192.716 9.18287C192.619 9.25204 192.491 9.28662 192.332 9.28662C192.18 9.28662 192.014 9.23475 191.834 9.131C191.661 9.02033 191.457 8.90275 191.222 8.77825C190.987 8.65375 190.717 8.53962 190.412 8.43587C190.108 8.32521 189.752 8.26987 189.344 8.26987C188.625 8.26987 188.085 8.43242 187.725 8.7575C187.366 9.07567 187.186 9.49412 187.186 10.0129C187.186 10.3449 187.283 10.6215 187.476 10.8429C187.677 11.0573 187.936 11.244 188.254 11.4031C188.58 11.5622 188.946 11.704 189.354 11.8285C189.762 11.953 190.181 12.0913 190.61 12.2435C191.038 12.3887 191.457 12.5617 191.865 12.7622C192.273 12.9628 192.636 13.2153 192.954 13.5196C193.279 13.824 193.539 14.1975 193.732 14.6401C193.933 15.0759 194.033 15.6085 194.033 16.2379C194.033 16.9226 193.912 17.5659 193.67 18.1676C193.435 18.7625 193.093 19.2847 192.643 19.7342C192.194 20.1769 191.637 20.5262 190.973 20.7821C190.316 21.038 189.569 21.166 188.732 21.166C188.254 21.166 187.777 21.1176 187.3 21.0208C186.83 20.9239 186.373 20.789 185.93 20.6161C185.495 20.4432 185.083 20.2357 184.696 19.9936C184.309 19.7515 183.97 19.4818 183.679 19.1844L184.592 17.7111C184.668 17.6005 184.768 17.5105 184.893 17.4414C185.017 17.3653 185.149 17.3272 185.287 17.3272C185.474 17.3272 185.671 17.3964 185.879 17.5347C186.086 17.6731 186.325 17.8252 186.594 17.9912C186.864 18.1572 187.175 18.3094 187.528 18.4477C187.888 18.5861 188.317 18.6552 188.815 18.6552C189.541 18.6552 190.101 18.4892 190.495 18.1572C190.897 17.8252 191.097 17.3307 191.097 16.6736C191.097 16.2932 190.997 15.9854 190.796 15.7502C190.603 15.5151 190.347 15.318 190.029 15.1589C189.71 14.9998 189.347 14.8649 188.939 14.7542C188.531 14.6367 188.113 14.5087 187.684 14.3704C187.255 14.232 186.837 14.066 186.428 13.8724C186.02 13.6787 185.657 13.4228 185.339 13.1046C185.021 12.7865 184.762 12.3922 184.561 11.9219C184.367 11.4515 184.27 10.8671 184.27 10.1685C184.27 9.60825 184.381 9.06529 184.602 8.53962C184.824 8.01396 185.149 7.54708 185.578 7.139C186.007 6.73092 186.532 6.40237 187.155 6.15337C187.784 5.90437 188.503 5.77987 189.313 5.77987C190.219 5.77987 191.056 5.92167 191.823 6.20525C192.598 6.48192 193.252 6.86925 193.784 7.36725L193.017 8.83012ZM198.988 12.1605H199.6C200.112 12.1605 200.482 12.0014 200.71 11.6832L204.518 6.58912C204.698 6.34704 204.895 6.18104 205.109 6.09112C205.324 5.99429 205.587 5.94587 205.898 5.94587H208.595L203.802 12.119C203.491 12.5202 203.169 12.8072 202.837 12.9801C203.079 13.077 203.297 13.2049 203.491 13.364C203.684 13.5162 203.871 13.7202 204.051 13.9761L208.969 21H206.199C206.019 21 205.863 20.9862 205.732 20.9585C205.607 20.9308 205.497 20.8928 205.4 20.8444C205.303 20.796 205.22 20.7372 205.151 20.668C205.082 20.5919 205.016 20.5055 204.954 20.4086L201.084 14.9929C200.952 14.8061 200.797 14.6747 200.617 14.5986C200.437 14.5156 200.185 14.4741 199.86 14.4741H198.988V21H195.876V5.94587H198.988V12.1605ZM213.022 21H209.888V5.94587H213.022V21Z" fill="#F5F4F2"/>
<path d="M45.221 17.8979L45.4601 17.9711L45.4603 17.9704L45.221 17.8979ZM44.2769 19.6512L44.0872 19.4883L44.0871 19.4886L44.2769 19.6512ZM42.7103 20.7717L42.8066 21.0024L42.8066 21.0024L42.7103 20.7717ZM39.3799 21.0934L39.412 20.8454L39.408 20.845L39.3799 21.0934ZM38.2179 20.8859L37.9689 20.8632L37.9493 21.0791L38.1602 21.1291L38.2179 20.8859ZM38.3009 19.9729L38.5498 19.9955L38.5498 19.9955L38.3009 19.9729ZM38.3839 19.0599L38.1357 19.0288L38.1349 19.0372L38.3839 19.0599ZM38.581 18.6656L38.7457 18.8539L38.752 18.848L38.581 18.6656ZM39.5044 18.5722L39.4482 18.8159L39.4501 18.8163L39.5044 18.5722ZM41.1644 18.4789L41.0766 18.2448L41.0766 18.2448L41.1644 18.4789ZM41.8595 17.9705L41.6637 17.815L41.6637 17.815L41.8595 17.9705ZM42.2745 17.0575L42.0322 16.9958L42.0314 16.999L42.2745 17.0575ZM42.4198 5.94587V5.69587H42.1698V5.94587H42.4198ZM45.5323 5.94587H45.7823V5.69587H45.5323V5.94587ZM45.2823 15.605C45.2823 16.4285 45.181 17.1679 44.9817 17.8254L45.4603 17.9704C45.676 17.2583 45.7823 16.4691 45.7823 15.605H45.2823ZM44.982 17.8247C44.7836 18.4727 44.4846 19.0258 44.0872 19.4883L44.4665 19.8142C44.913 19.2945 45.2434 18.6787 45.4601 17.9711L44.982 17.8247ZM44.0871 19.4886C43.6992 19.941 43.2099 20.2922 42.6139 20.5411L42.8066 21.0024C43.4695 20.7256 44.0245 20.3298 44.4667 19.8139L44.0871 19.4886ZM42.6139 20.5411C42.0211 20.7886 41.3219 20.916 40.5108 20.916V21.416C41.3734 21.416 42.1406 21.2806 42.8066 21.0024L42.6139 20.5411ZM40.5108 20.916C40.141 20.916 39.7747 20.8925 39.412 20.8454L39.3477 21.3413C39.732 21.3911 40.1197 21.416 40.5108 21.416V20.916ZM39.408 20.845C39.0526 20.8047 38.6752 20.7375 38.2756 20.6426L38.1602 21.1291C38.5767 21.228 38.974 21.299 39.3518 21.3418L39.408 20.845ZM38.4668 20.9085C38.4945 20.6042 38.5222 20.2998 38.5498 19.9955L38.0519 19.9502C38.0242 20.2546 37.9966 20.5589 37.9689 20.8632L38.4668 20.9085ZM38.5498 19.9955C38.5775 19.6912 38.6052 19.3868 38.6328 19.0825L38.1349 19.0372C38.1072 19.3416 38.0796 19.6459 38.0519 19.9502L38.5498 19.9955ZM38.6319 19.0909C38.6462 18.9768 38.6875 18.9047 38.7456 18.8538L38.4164 18.4775C38.2532 18.6203 38.163 18.811 38.1358 19.0289L38.6319 19.0909ZM38.752 18.848C38.8015 18.8016 38.8906 18.76 39.0583 18.76V18.26C38.8109 18.26 38.5818 18.3222 38.41 18.4832L38.752 18.848ZM39.0583 18.76C39.1494 18.76 39.2776 18.7765 39.4482 18.8158L39.5606 18.3287C39.3715 18.285 39.2023 18.26 39.0583 18.26V18.76ZM39.4501 18.8163C39.6603 18.863 39.9079 18.8845 40.1891 18.8845V18.3845C39.9308 18.3845 39.722 18.3645 39.5586 18.3282L39.4501 18.8163ZM40.1891 18.8845C40.585 18.8845 40.9411 18.8296 41.2522 18.713L41.0766 18.2448C40.8343 18.3356 40.5402 18.3845 40.1891 18.3845V18.8845ZM41.2522 18.713C41.572 18.593 41.8408 18.396 42.0553 18.126L41.6637 17.815C41.5047 18.0153 41.3101 18.1572 41.0766 18.2448L41.2522 18.713ZM42.0553 18.126C42.27 17.8555 42.4214 17.5154 42.5176 17.116L42.0314 16.999C41.9477 17.3466 41.8225 17.6151 41.6637 17.815L42.0553 18.126ZM42.5168 17.1192C42.6202 16.7127 42.6698 16.2308 42.6698 15.6776H42.1698C42.1698 16.2035 42.1224 16.6415 42.0322 16.9958L42.5168 17.1192ZM42.6698 15.6776V5.94587H42.1698V15.6776H42.6698ZM42.4198 6.19587H45.5323V5.69587H42.4198V6.19587ZM45.2823 5.94587V15.605H45.7823V5.94587H45.2823ZM51.2518 21V21.25H51.5018V21H51.2518ZM48.1185 21H47.8685V21.25H48.1185V21ZM48.1185 5.94587V5.69587H47.8685V5.94587H48.1185ZM51.2518 5.94587H51.5018V5.69587H51.2518V5.94587ZM51.2518 20.75H48.1185V21.25H51.2518V20.75ZM48.3685 21V5.94587H47.8685V21H48.3685ZM48.1185 6.19587H51.2518V5.69587H48.1185V6.19587ZM51.0018 5.94587V21H51.5018V5.94587H51.0018ZM70.5853 5.94587H70.8353V5.69587H70.5853V5.94587ZM70.5853 21V21.25H70.8353V21H70.5853ZM67.8359 21H67.5859V21.25H67.8359V21ZM67.8463 11.1334L67.5966 11.1178L67.5964 11.1256L67.8463 11.1334ZM67.9085 10.459L68.1567 10.4891L67.6874 10.3424L67.9085 10.459ZM63.6029 18.6241L63.3818 18.5075L63.3814 18.5083L63.6029 18.6241ZM61.4345 19.1325L61.3013 19.3441L61.3071 19.3476L61.4345 19.1325ZM60.9884 18.6241L61.2121 18.5123L61.2095 18.5074L60.9884 18.6241ZM56.662 10.4279L56.8831 10.3112L56.4129 10.4492L56.662 10.4279ZM56.7139 11.1334L56.4644 11.1485L56.4644 11.149L56.7139 11.1334ZM56.7347 21V21.25H56.9847V21H56.7347ZM53.9853 21H53.7353V21.25H53.9853V21ZM53.9853 5.94587V5.69587H53.7353V5.94587H53.9853ZM56.7035 5.95625L56.6869 6.2057L56.6869 6.2057L56.7035 5.95625ZM56.9733 6.0185L56.8698 6.24609L56.8818 6.25152L56.8942 6.25567L56.9733 6.0185ZM57.1912 6.16375L57.0053 6.33099L57.0141 6.34077L57.0239 6.34957L57.1912 6.16375ZM57.3883 6.4335L57.6097 6.31737L57.6092 6.31653L57.3883 6.4335ZM61.6005 14.4637L61.3791 14.5799L61.3808 14.583L61.6005 14.4637ZM61.9637 15.2107L61.7341 15.31L61.7365 15.3151L61.9637 15.2107ZM62.2957 15.9992L62.0623 16.089L62.2986 16.7034L62.5297 16.087L62.2957 15.9992ZM62.6173 15.19L62.389 15.0879L62.3869 15.093L62.6173 15.19ZM62.9908 14.4326L63.2105 14.5519L63.2123 14.5484L62.9908 14.4326ZM67.1719 6.4335L66.951 6.31653L66.9503 6.31769L67.1719 6.4335ZM67.369 6.16375L67.5365 6.34983L67.5458 6.34053L67.369 6.16375ZM67.5869 6.0185L67.6724 6.2537L67.6831 6.24927L67.5869 6.0185ZM67.8567 5.95625L67.84 5.7068L67.8388 5.70688L67.8567 5.95625ZM70.3353 5.94587V21H70.8353V5.94587H70.3353ZM70.5853 20.75H67.8359V21.25H70.5853V20.75ZM68.0859 21V11.7559H67.5859V21H68.0859ZM68.0859 11.7559C68.0859 11.5651 68.0893 11.3603 68.0962 11.1412L67.5964 11.1256C67.5894 11.3491 67.5859 11.5593 67.5859 11.7559H68.0859ZM68.0958 11.149C68.1093 10.9327 68.1296 10.7127 68.1567 10.4891L67.6603 10.4289C67.6321 10.6618 67.6109 10.8914 67.5968 11.1178L68.0958 11.149ZM67.6874 10.3424L63.3818 18.5075L63.824 18.7407L68.1297 10.5756L67.6874 10.3424ZM63.3814 18.5083C63.2806 18.7008 63.1594 18.8326 63.0226 18.9173C62.8862 19.0018 62.7197 19.0485 62.5135 19.0485V19.5485C62.7985 19.5485 63.059 19.4828 63.2858 19.3425C63.5121 19.2024 63.69 18.997 63.8244 18.74L63.3814 18.5083ZM62.5135 19.0485H62.0778V19.5485H62.5135V19.0485ZM62.0778 19.0485C61.8752 19.0485 61.7058 19.0027 61.562 18.9174L61.3071 19.3476C61.5367 19.4837 61.7961 19.5485 62.0778 19.5485V19.0485ZM61.5677 18.9209C61.4242 18.8306 61.3048 18.6979 61.212 18.5123L60.7648 18.7359C60.8934 18.9931 61.0713 19.1993 61.3013 19.3441L61.5677 18.9209ZM61.2095 18.5074L56.8831 10.3112L56.4409 10.5446L60.7673 18.7408L61.2095 18.5074ZM56.4129 10.4492C56.4335 10.6894 56.4507 10.9224 56.4644 11.1485L56.9634 11.1183C56.9495 10.8878 56.932 10.6506 56.9111 10.4065L56.4129 10.4492ZM56.4644 11.149C56.4779 11.3658 56.4847 11.5681 56.4847 11.7559H56.9847C56.9847 11.5563 56.9775 11.3436 56.9634 11.1178L56.4644 11.149ZM56.4847 11.7559V21H56.9847V11.7559H56.4847ZM56.7347 20.75H53.9853V21.25H56.7347V20.75ZM54.2353 21V5.94587H53.7353V21H54.2353ZM53.9853 6.19587H56.3508V5.69587H53.9853V6.19587ZM56.3508 6.19587C56.478 6.19587 56.5899 6.19923 56.6869 6.2057L56.7202 5.7068C56.6097 5.69944 56.4864 5.69587 56.3508 5.69587V6.19587ZM56.6869 6.2057C56.7677 6.21108 56.8269 6.22658 56.8698 6.24609L57.0767 5.79091C56.9675 5.74125 56.8469 5.71525 56.7202 5.7068L56.6869 6.2057ZM56.8942 6.25567C56.9336 6.26878 56.9701 6.29186 57.0053 6.33099L57.377 5.99651C57.2877 5.8973 57.179 5.82355 57.0523 5.78133L56.8942 6.25567ZM57.0239 6.34957C57.0641 6.38573 57.1134 6.4486 57.1673 6.55047L57.6092 6.31653C57.5387 6.18323 57.4566 6.06627 57.3584 5.97793L57.0239 6.34957ZM57.1669 6.54963L61.3791 14.5799L61.8219 14.3476L57.6097 6.31737L57.1669 6.54963ZM61.3808 14.583C61.5086 14.8185 61.6264 15.0608 61.7342 15.31L62.1931 15.1115C62.0795 14.8489 61.9553 14.5932 61.8202 14.3445L61.3808 14.583ZM61.7365 15.3151C61.8518 15.5661 61.9604 15.8241 62.0623 16.089L62.529 15.9095C62.4234 15.6349 62.3107 15.3672 62.1908 15.1064L61.7365 15.3151ZM62.5297 16.087C62.6324 15.8134 62.7384 15.5467 62.8477 15.287L62.3869 15.093C62.2749 15.359 62.1664 15.6318 62.0616 15.9115L62.5297 16.087ZM62.8455 15.2921C62.9606 15.0348 63.0823 14.7881 63.2105 14.5519L62.7711 14.3134C62.6365 14.5613 62.5092 14.8195 62.3891 15.0879L62.8455 15.2921ZM63.2123 14.5484L67.3935 6.54931L66.9503 6.31769L62.7692 14.3168L63.2123 14.5484ZM67.3929 6.55047C67.4468 6.4486 67.4961 6.38573 67.5363 6.34957L67.2018 5.97793C67.1036 6.06627 67.0215 6.18323 66.951 6.31653L67.3929 6.55047ZM67.5458 6.34053C67.5944 6.2919 67.637 6.2663 67.6723 6.25345L67.5015 5.78355C67.3847 5.82603 67.282 5.89726 67.1923 5.98697L67.5458 6.34053ZM67.6831 6.24927C67.7392 6.22587 67.8024 6.21076 67.8745 6.20561L67.8388 5.70688C67.7172 5.71557 67.6006 5.74196 67.4908 5.78773L67.6831 6.24927ZM67.8733 6.2057C67.97 6.19925 68.0853 6.19587 68.2198 6.19587V5.69587C68.0776 5.69587 67.9508 5.69942 67.84 5.7068L67.8733 6.2057ZM68.2198 6.19587H70.5853V5.69587H68.2198V6.19587ZM85.1409 13.3329V13.0829H84.8909V13.3329H85.1409ZM90.3077 13.3329H90.5577V13.0829H90.3077V13.3329ZM90.3077 19.5475L90.455 19.7494L90.5577 19.6746V19.5475H90.3077ZM87.8488 20.7821L87.9198 21.0218L87.921 21.0215L87.8488 20.7821ZM81.7379 20.5954L81.6479 20.8286L81.6493 20.8291L81.7379 20.5954ZM79.1649 18.9872L78.9917 19.1675L78.9917 19.1675L79.1649 18.9872ZM77.5153 16.5491L77.7465 16.4539L77.7465 16.4539L77.5153 16.5491ZM77.4842 10.3656L77.2518 10.2734L77.2512 10.2748L77.4842 10.3656ZM79.0715 7.93787L78.8957 7.7602L78.8957 7.7602L79.0715 7.93787ZM81.5512 6.3505L81.4603 6.11759L81.4598 6.11781L81.5512 6.3505ZM86.5623 5.9355L86.5151 6.18102L86.5181 6.18157L86.5623 5.9355ZM88.0563 6.3505L87.9647 6.58312L87.9677 6.58429L88.0563 6.3505ZM89.3117 6.973L89.4459 6.76208L89.4459 6.76208L89.3117 6.973ZM90.3492 7.77187L90.5589 7.90801L90.673 7.73216L90.5197 7.58911L90.3492 7.77187ZM89.4465 9.16212L89.2368 9.02597L89.2345 9.02962L89.4465 9.16212ZM88.907 9.56675L88.9605 9.81098L88.9605 9.81097L88.907 9.56675ZM88.1808 9.40075L88.0504 9.61407L88.0513 9.61462L88.1808 9.40075ZM87.4442 8.99612L87.3271 9.2172L87.3349 9.221L87.4442 8.99612ZM86.6868 8.6745L86.7659 8.43733L86.7659 8.43733L86.6868 8.6745ZM81.354 9.78462L81.1688 9.61674L81.1674 9.61835L81.354 9.78462ZM80.441 11.3824L80.6774 11.4638L80.6774 11.4638L80.441 11.3824ZM80.4722 15.6984L80.2368 15.7826L80.2371 15.7834L80.4722 15.6984ZM81.4682 17.348L81.2873 17.5206L81.2873 17.5206L81.4682 17.348ZM83.0037 18.3751L82.9118 18.6076L82.9127 18.608L83.0037 18.3751ZM86.334 18.5826L86.3947 18.8252L86.3977 18.8244L86.334 18.5826ZM87.4857 18.1676L87.5907 18.3945L87.7357 18.3274V18.1676H87.4857ZM87.4857 15.6361H87.7357V15.3861H87.4857V15.6361ZM85.3069 15.4805L85.1301 15.6573L85.1357 15.6628L85.1415 15.668L85.3069 15.4805ZM85.1409 13.5829H90.3077V13.0829H85.1409V13.5829ZM90.0577 13.3329V19.5475H90.5577V13.3329H90.0577ZM90.1603 19.3456C89.4143 19.8899 88.6199 20.2884 87.7766 20.5428L87.921 21.0215C88.8206 20.7501 89.6655 20.3256 90.455 19.7494L90.1603 19.3456ZM87.7778 20.5424C86.9379 20.791 86.0455 20.916 85.0994 20.916V21.416C86.09 21.416 87.0305 21.2851 87.9198 21.0218L87.7778 20.5424ZM85.0994 20.916C83.887 20.916 82.7972 20.7298 81.8266 20.3616L81.6493 20.8291C82.6845 21.2218 83.8356 21.416 85.0994 21.416V20.916ZM81.828 20.3622C80.8533 19.9857 80.0246 19.4668 79.3382 18.807L78.9917 19.1675C79.7301 19.8772 80.6167 20.4304 81.6479 20.8286L81.828 20.3622ZM79.3382 18.807C78.6515 18.147 78.121 17.3635 77.7465 16.4539L77.2841 16.6443C77.6843 17.6161 78.2535 18.458 78.9917 19.1675L79.3382 18.807ZM77.7465 16.4539C77.3727 15.5462 77.1843 14.5518 77.1843 13.4677H76.6843C76.6843 14.6109 76.8832 15.6707 77.2841 16.6443L77.7465 16.4539ZM77.1843 13.4677C77.1843 12.3678 77.363 11.3649 77.7171 10.4564L77.2512 10.2748C76.8721 11.2476 76.6843 12.3129 76.6843 13.4677H77.1843ZM77.7165 10.4579C78.0779 9.54763 78.5884 8.76789 79.2474 8.11555L78.8957 7.7602C78.1852 8.46352 77.6374 9.30229 77.2518 10.2734L77.7165 10.4579ZM79.2474 8.11555C79.9062 7.46345 80.7033 6.95219 81.6426 6.58319L81.4598 6.11781C80.4624 6.50964 79.6064 7.05663 78.8957 7.7602L79.2474 8.11555ZM81.642 6.58341C82.5843 6.21584 83.6423 6.02987 84.8193 6.02987V5.52987C83.5893 5.52987 82.4685 5.72432 81.4603 6.11759L81.642 6.58341ZM84.8193 6.02987C85.428 6.02987 85.993 6.08061 86.5151 6.181L86.6095 5.69C86.0526 5.58289 85.4556 5.52987 84.8193 5.52987V6.02987ZM86.5181 6.18157C87.0433 6.27582 87.5252 6.40997 87.9647 6.5831L88.1479 6.1179C87.6744 5.93137 87.1603 5.78884 86.6065 5.68943L86.5181 6.18157ZM87.9677 6.58429C88.4096 6.75165 88.8126 6.95171 89.1775 7.18391L89.4459 6.76208C89.0499 6.51012 88.616 6.29518 88.1449 6.11671L87.9677 6.58429ZM89.1775 7.18391C89.5457 7.41823 89.8792 7.67522 90.1786 7.95464L90.5197 7.58911C90.1966 7.28753 89.8385 7.01193 89.4459 6.76208L89.1775 7.18391ZM90.1395 7.63574L89.2369 9.02599L89.6562 9.29826L90.5589 7.90801L90.1395 7.63574ZM89.2345 9.02962C89.126 9.20333 88.9991 9.2907 88.8536 9.32253L88.9605 9.81097C89.2577 9.74596 89.4904 9.56359 89.6585 9.29462L89.2345 9.02962ZM88.8536 9.32252C88.7144 9.35298 88.5381 9.32481 88.3102 9.18687L88.0513 9.61462C88.3491 9.79485 88.657 9.87735 88.9605 9.81098L88.8536 9.32252ZM88.3112 9.18743C88.0559 9.03142 87.8033 8.89262 87.5534 8.77125L87.3349 9.221C87.5692 9.3348 87.8077 9.46575 88.0504 9.61407L88.3112 9.18743ZM87.5611 8.77518C87.313 8.64381 87.0478 8.5313 86.7659 8.43733L86.6077 8.91167C86.8653 8.99753 87.105 9.09944 87.3272 9.21707L87.5611 8.77518ZM86.7659 8.43733C86.481 8.34237 86.173 8.27013 85.8425 8.21984L85.7673 8.71415C86.0732 8.7607 86.3531 8.8268 86.6077 8.91167L86.7659 8.43733ZM85.8425 8.21984C85.509 8.16908 85.1294 8.14437 84.7052 8.14437V8.64437C85.111 8.64437 85.4646 8.66808 85.7673 8.71415L85.8425 8.21984ZM84.7052 8.14437C83.9773 8.14437 83.3105 8.27059 82.7084 8.52757L82.9047 8.98743C83.437 8.76024 84.0359 8.64437 84.7052 8.64437V8.14437ZM82.7084 8.52757C82.1092 8.78334 81.595 9.14648 81.1688 9.61674L81.5393 9.9525C81.9154 9.53743 82.3696 9.21582 82.9047 8.98743L82.7084 8.52757ZM81.1674 9.61835C80.7488 10.0883 80.4287 10.6506 80.2047 11.301L80.6774 11.4638C80.8822 10.8691 81.1708 10.3662 81.5407 9.9509L81.1674 9.61835ZM80.2047 11.301C79.9799 11.9536 79.8694 12.6768 79.8694 13.4677H80.3694C80.3694 12.7232 80.4734 12.0562 80.6774 11.4638L80.2047 11.301ZM79.8694 13.4677C79.8694 14.3212 79.9903 15.0939 80.2368 15.7826L80.7075 15.6141C80.4837 14.9887 80.3694 14.2743 80.3694 13.4677H79.8694ZM80.2371 15.7834C80.4827 16.4625 80.8319 17.0432 81.2873 17.5206L81.6491 17.1754C81.2467 16.7537 80.932 16.2346 80.7073 15.6133L80.2371 15.7834ZM81.2873 17.5206C81.7418 17.9971 82.2843 18.3595 82.9118 18.6076L83.0956 18.1426C82.5334 17.9204 82.0522 17.5981 81.6491 17.1754L81.2873 17.5206ZM82.9127 18.608C83.5471 18.8559 84.2459 18.9779 85.006 18.9779V18.4779C84.2999 18.4779 83.6638 18.3647 83.0947 18.1423L82.9127 18.608ZM85.006 18.9779C85.5197 18.9779 85.9833 18.928 86.3947 18.8252L86.2734 18.3401C85.9101 18.4309 85.4884 18.4779 85.006 18.4779V18.9779ZM86.3977 18.8244C86.8063 18.7169 87.204 18.5735 87.5907 18.3945L87.3806 17.9408C87.0203 18.1076 86.6503 18.2409 86.2704 18.3409L86.3977 18.8244ZM87.7357 18.1676V15.6361H87.2357V18.1676H87.7357ZM87.4857 15.3861H85.7842V15.8861H87.4857V15.3861ZM85.7842 15.3861C85.627 15.3861 85.5326 15.3462 85.4723 15.293L85.1415 15.668C85.3164 15.8222 85.5402 15.8861 85.7842 15.8861V15.3861ZM85.4837 15.3037C85.423 15.243 85.3909 15.1697 85.3909 15.0655H84.8909C84.8909 15.2933 84.9695 15.4967 85.1301 15.6573L85.4837 15.3037ZM85.3909 15.0655V13.3329H84.8909V15.0655H85.3909ZM101.37 18.4685H101.62V18.2185H101.37V18.4685ZM101.37 21V21.25H101.62V21H101.37ZM92.4368 21H92.1868V21.25H92.4368V21ZM92.4368 5.94587V5.69587H92.1868V5.94587H92.4368ZM95.5493 5.94587H95.7993V5.69587H95.5493V5.94587ZM95.5493 18.4685H95.2993V18.7185H95.5493V18.4685ZM101.12 18.4685V21H101.62V18.4685H101.12ZM101.37 20.75H92.4368V21.25H101.37V20.75ZM92.6868 21V5.94587H92.1868V21H92.6868ZM92.4368 6.19587H95.5493V5.69587H92.4368V6.19587ZM95.2993 5.94587V18.4685H95.7993V5.94587H95.2993ZM95.5493 18.7185H101.37V18.2185H95.5493V18.7185ZM116.382 16.5284L116.15 16.4361L116.149 16.4376L116.382 16.5284ZM114.816 18.9665L114.638 18.7906L114.637 18.7915L114.816 18.9665ZM112.388 20.585L112.483 20.8164L112.484 20.8158L112.388 20.585ZM106.08 20.585L105.984 20.8158L105.985 20.8164L106.08 20.585ZM103.642 18.9665L103.819 18.7906L103.819 18.7906L103.642 18.9665ZM102.065 16.5284L101.832 16.6192L101.832 16.6206L102.065 16.5284ZM102.065 10.4175L101.832 10.3252L101.832 10.3261L102.065 10.4175ZM103.642 7.97937L103.464 7.8035L103.464 7.8035L103.642 7.97937ZM106.08 6.37125L106.175 6.60267L106.176 6.60207L106.08 6.37125ZM112.388 6.37125L112.292 6.60207L112.293 6.60266L112.388 6.37125ZM114.816 7.98975L114.636 8.16382L114.638 8.16563L114.816 7.98975ZM116.382 10.4279L116.149 10.5187L116.15 10.5207L116.382 10.4279ZM113.446 11.3512L113.209 11.4295L113.209 11.4303L113.446 11.3512ZM112.544 9.7535L112.355 9.91815L112.358 9.92123L112.544 9.7535ZM111.122 8.74712L111.024 8.97723L111.028 8.97865L111.122 8.74712ZM107.335 8.74712L107.43 8.97866L107.432 8.97764L107.335 8.74712ZM105.904 9.7535L105.717 9.58723L105.717 9.58741L105.904 9.7535ZM105.011 11.3512L105.248 11.4303L105.249 11.4295L105.011 11.3512ZM105.011 15.605L104.774 15.6833L104.774 15.6841L105.011 15.605ZM105.904 17.1924L105.717 17.3585L105.718 17.3601L105.904 17.1924ZM107.335 18.1987L107.239 18.4293L107.241 18.4303L107.335 18.1987ZM111.122 18.1987L111.218 18.4299L111.219 18.4293L111.122 18.1987ZM112.544 17.1924L112.358 17.0246L112.357 17.0263L112.544 17.1924ZM113.446 15.605L113.683 15.6841L113.684 15.6833L113.446 15.605ZM116.693 13.4677C116.693 14.5387 116.511 15.5273 116.15 16.4361L116.615 16.6206C117.001 15.6482 117.193 14.5963 117.193 13.4677H116.693ZM116.149 16.4376C115.795 17.348 115.291 18.1313 114.638 18.7906L114.993 19.1424C115.696 18.4322 116.237 17.5901 116.615 16.6192L116.149 16.4376ZM114.637 18.7915C113.991 19.4507 113.211 19.9719 112.292 20.3542L112.484 20.8158C113.46 20.4096 114.298 19.8518 114.994 19.1415L114.637 18.7915ZM112.293 20.3536C111.379 20.7272 110.361 20.916 109.234 20.916V21.416C110.417 21.416 111.501 21.2175 112.483 20.8164L112.293 20.3536ZM109.234 20.916C108.107 20.916 107.088 20.7272 106.175 20.3536L105.985 20.8164C106.967 21.2175 108.051 21.416 109.234 21.416V20.916ZM106.176 20.3542C105.257 19.9718 104.473 19.4503 103.819 18.7906L103.464 19.1424C104.167 19.8522 105.008 20.4097 105.984 20.8158L106.176 20.3542ZM103.819 18.7906C103.167 18.131 102.659 17.3471 102.297 16.4361L101.832 16.6206C102.218 17.591 102.761 18.4325 103.464 19.1424L103.819 18.7906ZM102.298 16.4376C101.943 15.5284 101.765 14.5392 101.765 13.4677H101.265C101.265 14.5958 101.453 15.6471 101.832 16.6192L102.298 16.4376ZM101.765 13.4677C101.765 12.3962 101.943 11.4108 102.298 10.5089L101.832 10.3261C101.453 11.2917 101.265 12.3398 101.265 13.4677H101.765ZM102.297 10.5098C102.659 9.59875 103.167 8.81489 103.819 8.15525L103.464 7.8035C102.761 8.51336 102.218 9.35491 101.832 10.3252L102.297 10.5098ZM103.819 8.15525C104.472 7.49589 105.256 6.97807 106.175 6.60266L105.985 6.13984C105.009 6.53909 104.167 7.09336 103.464 7.8035L103.819 8.15525ZM106.176 6.60207C107.09 6.22197 108.108 6.02987 109.234 6.02987V5.52987C108.05 5.52987 106.966 5.73202 105.984 6.14043L106.176 6.60207ZM109.234 6.02987C110.36 6.02987 111.378 6.22197 112.292 6.60207L112.484 6.14043C111.502 5.73202 110.418 5.52987 109.234 5.52987V6.02987ZM112.293 6.60266C113.211 6.97777 113.991 7.49844 114.636 8.16381L114.995 7.81568C114.299 7.09773 113.46 6.5394 112.483 6.13984L112.293 6.60266ZM114.638 8.16563C115.291 8.82493 115.795 9.60828 116.149 10.5187L116.615 10.3371C116.237 9.36614 115.696 8.52407 114.993 7.81387L114.638 8.16563ZM116.15 10.5207C116.511 11.4225 116.693 12.4039 116.693 13.4677H117.193C117.193 12.3459 117.001 11.3008 116.614 10.335L116.15 10.5207ZM114.007 13.4677C114.007 12.6576 113.901 11.9247 113.683 11.2722L113.209 11.4303C113.407 12.0228 113.507 12.7009 113.507 13.4677H114.007ZM113.684 11.273C113.467 10.6147 113.149 10.0505 112.729 9.58577L112.358 9.92123C112.726 10.328 113.011 10.829 113.209 11.4295L113.684 11.273ZM112.732 9.58887C112.318 9.11605 111.812 8.75811 111.217 8.5156L111.028 8.97865C111.553 9.19264 111.994 9.50561 112.355 9.91813L112.732 9.58887ZM111.22 8.51704C110.631 8.26666 109.967 8.14437 109.234 8.14437V8.64437C109.912 8.64437 110.507 8.75726 111.024 8.97721L111.22 8.51704ZM109.234 8.14437C108.501 8.14437 107.834 8.26668 107.239 8.51661L107.432 8.97764C107.957 8.75724 108.556 8.64437 109.234 8.64437V8.14437ZM107.241 8.5156C106.646 8.75795 106.137 9.11544 105.717 9.58723L106.09 9.91977C106.459 9.50623 106.904 9.19279 107.43 8.97865L107.241 8.5156ZM105.717 9.58741C105.304 10.0519 104.991 10.6156 104.774 11.273L105.249 11.4295C105.447 10.8281 105.729 10.3266 106.09 9.91959L105.717 9.58741ZM104.774 11.2722C104.557 11.9247 104.45 12.6576 104.45 13.4677H104.95C104.95 12.7009 105.051 12.0228 105.248 11.4303L104.774 11.2722ZM104.45 13.4677C104.45 14.2846 104.557 15.0241 104.774 15.6833L105.249 15.5267C105.051 14.927 104.95 14.2417 104.95 13.4677H104.45ZM104.774 15.6841C104.991 16.3346 105.304 16.8944 105.717 17.3585L106.09 17.0263C105.728 16.6188 105.447 16.1204 105.248 15.5259L104.774 15.6841ZM105.718 17.3601C106.138 17.824 106.646 18.1804 107.239 18.4293L107.432 17.9682C106.904 17.7468 106.458 17.4323 106.089 17.0246L105.718 17.3601ZM107.241 18.4303C107.836 18.6726 108.501 18.7911 109.234 18.7911V18.2911C108.555 18.2911 107.955 18.1814 107.43 17.9672L107.241 18.4303ZM109.234 18.7911C109.966 18.7911 110.629 18.6726 111.218 18.4299L111.027 17.9676C110.509 18.1814 109.912 18.2911 109.234 18.2911V18.7911ZM111.219 18.4293C111.812 18.1803 112.317 17.8233 112.73 17.3585L112.357 17.0263C111.995 17.4329 111.553 17.7469 111.025 17.9682L111.219 18.4293ZM112.729 17.3601C113.149 16.8959 113.466 16.3355 113.683 15.6841L113.209 15.5259C113.011 16.1195 112.727 16.6174 112.358 17.0246L112.729 17.3601ZM113.684 15.6833C113.901 15.0241 114.007 14.2846 114.007 13.4677H113.507C113.507 14.2417 113.406 14.927 113.209 15.5267L113.684 15.6833ZM131.738 16.5076L131.506 16.4142L131.506 16.4151L131.738 16.5076ZM130.172 18.8835L129.997 18.7049L129.996 18.7058L130.172 18.8835ZM127.744 20.4397L127.836 20.6723L127.836 20.6723L127.744 20.4397ZM118.801 21H118.551V21.25H118.801V21ZM118.801 5.94587V5.69587H118.551V5.94587H118.801ZM127.744 6.50612L127.836 6.27354L127.836 6.27354L127.744 6.50612ZM130.172 8.07275L129.995 8.24954L129.997 8.25134L130.172 8.07275ZM131.738 10.4486L131.506 10.5412L131.507 10.5427L131.738 10.4486ZM128.792 11.3409L128.554 11.4191L128.554 11.4191L128.792 11.3409ZM127.9 9.74312L128.086 9.57703L127.9 9.74312ZM126.478 8.73675L126.38 8.96683L126.381 8.96727L126.478 8.73675ZM121.934 8.384V8.134H121.684V8.384H121.934ZM121.934 18.5619H121.684V18.8119H121.934V18.5619ZM126.478 18.2195L126.573 18.4506L126.575 18.45L126.478 18.2195ZM127.9 17.2131L128.086 17.3792L128.088 17.3778L127.9 17.2131ZM128.792 15.605L128.554 15.5267L128.554 15.5267L128.792 15.605ZM132.049 13.4677C132.049 14.5387 131.867 15.5199 131.506 16.4142L131.97 16.6011C132.357 15.6417 132.549 14.5963 132.549 13.4677H132.049ZM131.506 16.4151C131.152 17.3041 130.649 18.0664 129.997 18.7049L130.347 19.0621C131.05 18.3726 131.592 17.551 131.971 16.6002L131.506 16.4151ZM129.996 18.7058C129.351 19.3442 128.571 19.8451 127.652 20.2072L127.836 20.6723C128.812 20.2874 129.651 19.7508 130.348 19.0612L129.996 18.7058ZM127.652 20.2072C126.737 20.5677 125.718 20.75 124.59 20.75V21.25C125.772 21.25 126.855 21.0588 127.836 20.6723L127.652 20.2072ZM124.59 20.75H118.801V21.25H124.59V20.75ZM119.051 21V5.94587H118.551V21H119.051ZM118.801 6.19587H124.59V5.69587H118.801V6.19587ZM124.59 6.19587C125.718 6.19587 126.737 6.37815 127.652 6.73871L127.836 6.27354C126.855 5.88709 125.772 5.69587 124.59 5.69587V6.19587ZM127.652 6.73871C128.57 7.10057 129.35 7.60459 129.995 8.24953L130.348 7.89597C129.652 7.19907 128.813 6.65867 127.836 6.27354L127.652 6.73871ZM129.997 8.25134C130.649 8.8899 131.152 9.65217 131.506 10.5412L131.971 10.3561C131.592 9.40524 131.05 8.5836 130.347 7.89416L129.997 8.25134ZM131.507 10.5427C131.867 11.4298 132.049 12.4039 132.049 13.4677H132.549C132.549 12.3459 132.357 11.3072 131.97 10.3546L131.507 10.5427ZM129.353 13.4677C129.353 12.6576 129.246 11.9215 129.029 11.2626L128.554 11.4191C128.752 12.019 128.853 12.7009 128.853 13.4677H129.353ZM129.029 11.2626C128.812 10.6052 128.499 10.0416 128.086 9.57703L127.713 9.90922C128.074 10.3162 128.356 10.8177 128.554 11.4191L129.029 11.2626ZM128.086 9.57703C127.673 9.11216 127.168 8.75524 126.575 8.50623L126.381 8.96727C126.909 9.18859 127.351 9.50259 127.713 9.90922L128.086 9.57703ZM126.576 8.50667C125.987 8.25628 125.323 8.134 124.59 8.134V8.634C125.268 8.634 125.863 8.74688 126.38 8.96683L126.576 8.50667ZM124.59 8.134H121.934V8.634H124.59V8.134ZM121.684 8.384V18.5619H122.184V8.384H121.684ZM121.934 18.8119H124.59V18.3119H121.934V18.8119ZM124.59 18.8119C125.322 18.8119 125.985 18.6934 126.573 18.4506L126.383 17.9884C125.865 18.2021 125.268 18.3119 124.59 18.3119V18.8119ZM126.575 18.45C127.168 18.201 127.673 17.8441 128.086 17.3792L127.713 17.047C127.351 17.4537 126.909 17.7677 126.381 17.989L126.575 18.45ZM128.088 17.3778C128.5 16.9069 128.813 16.3405 129.029 15.6833L128.554 15.5267C128.356 16.1284 128.074 16.634 127.711 17.0485L128.088 17.3778ZM129.029 15.6833C129.247 15.0241 129.353 14.2846 129.353 13.4677H128.853C128.853 14.2417 128.752 14.927 128.554 15.5267L129.029 15.6833ZM137.284 12.1605H137.034V12.4105H137.284V12.1605ZM139.006 11.6832L138.806 11.5335L138.803 11.5375L139.006 11.6832ZM142.813 6.58912L143.014 6.7388L143.014 6.73821L142.813 6.58912ZM143.405 6.09112L143.502 6.32176L143.508 6.31897L143.405 6.09112ZM146.891 5.94587L147.088 6.0992L147.401 5.69587H146.891V5.94587ZM142.098 12.119L141.9 11.9657L141.9 11.9658L142.098 12.119ZM141.133 12.9801L141.017 12.7584L140.534 13.01L141.04 13.2122L141.133 12.9801ZM141.786 13.364L141.628 13.5572L141.632 13.5606L141.786 13.364ZM142.347 13.9761L142.551 13.8327L142.551 13.8324L142.347 13.9761ZM147.264 21V21.25H147.745L147.469 20.8566L147.264 21ZM144.027 20.9585L143.973 21.2026L143.976 21.2031L144.027 20.9585ZM143.695 20.8444L143.584 21.068L143.584 21.068L143.695 20.8444ZM143.446 20.668L143.261 20.8364L143.27 20.8448L143.446 20.668ZM143.249 20.4086L143.46 20.2733L143.453 20.2633L143.249 20.4086ZM139.379 14.9929L139.175 15.1368L139.176 15.1382L139.379 14.9929ZM138.912 14.5986L138.808 14.8257L138.815 14.8289L138.912 14.5986ZM137.284 14.4741V14.2241H137.034V14.4741H137.284ZM137.284 21V21.25H137.534V21H137.284ZM134.171 21H133.921V21.25H134.171V21ZM134.171 5.94587V5.69587H133.921V5.94587H134.171ZM137.284 5.94587H137.534V5.69587H137.284V5.94587ZM137.284 12.4105H137.896V11.9105H137.284V12.4105ZM137.896 12.4105C138.461 12.4105 138.92 12.232 139.209 11.829L138.803 11.5375C138.635 11.7709 138.354 11.9105 137.896 11.9105V12.4105ZM139.206 11.8329L143.014 6.7388L142.613 6.43945L138.806 11.5336L139.206 11.8329ZM143.014 6.73821C143.175 6.52166 143.339 6.38983 143.501 6.32167L143.308 5.86058C143.042 5.97226 142.812 6.17243 142.613 6.44004L143.014 6.73821ZM143.508 6.31897C143.681 6.24065 143.907 6.19587 144.193 6.19587V5.69587C143.857 5.69587 143.557 5.74794 143.302 5.86328L143.508 6.31897ZM144.193 6.19587H146.891V5.69587H144.193V6.19587ZM146.693 5.79255L141.9 11.9657L142.295 12.2723L147.088 6.0992L146.693 5.79255ZM141.9 11.9658C141.603 12.348 141.308 12.6069 141.017 12.7584L141.248 13.2019C141.621 13.0075 141.969 12.6923 142.295 12.2722L141.9 11.9658ZM141.04 13.2122C141.259 13.2999 141.455 13.415 141.628 13.5572L141.945 13.1708C141.731 12.9948 141.49 12.854 141.226 12.748L141.04 13.2122ZM141.632 13.5606C141.802 13.6942 141.973 13.8788 142.142 14.1199L142.551 13.8324C142.361 13.5616 142.158 13.3381 141.941 13.1674L141.632 13.5606ZM142.142 14.1195L147.06 21.1434L147.469 20.8566L142.551 13.8327L142.142 14.1195ZM147.264 20.75H144.494V21.25H147.264V20.75ZM144.494 20.75C144.326 20.75 144.189 20.737 144.079 20.7139L143.976 21.2031C144.129 21.2353 144.302 21.25 144.494 21.25V20.75ZM144.082 20.7145C143.974 20.6905 143.883 20.6586 143.807 20.6208L143.584 21.068C143.702 21.127 143.832 21.1712 143.973 21.2025L144.082 20.7145ZM143.807 20.6208C143.732 20.5831 143.671 20.5395 143.623 20.4912L143.27 20.8448C143.36 20.9349 143.465 21.0088 143.584 21.068L143.807 20.6208ZM143.631 20.4998C143.572 20.4352 143.515 20.36 143.459 20.2734L143.039 20.5438C143.108 20.651 143.182 20.7487 143.261 20.8362L143.631 20.4998ZM143.453 20.2633L139.583 14.8475L139.176 15.1382L143.046 20.554L143.453 20.2633ZM139.584 14.849C139.43 14.6306 139.24 14.4656 139.01 14.3684L138.815 14.8289C138.945 14.8838 139.066 14.9816 139.175 15.1367L139.584 14.849ZM139.017 14.3716C138.79 14.2668 138.496 14.2241 138.155 14.2241V14.7241C138.464 14.7241 138.675 14.7645 138.808 14.8256L139.017 14.3716ZM138.155 14.2241H137.284V14.7241H138.155V14.2241ZM137.034 14.4741V21H137.534V14.4741H137.034ZM137.284 20.75H134.171V21.25H137.284V20.75ZM134.421 21V5.94587H133.921V21H134.421ZM134.171 6.19587H137.284V5.69587H134.171V6.19587ZM137.034 5.94587V12.1605H137.534V5.94587H137.034ZM161.44 16.5284L161.207 16.4361L161.207 16.4376L161.44 16.5284ZM159.873 18.9665L159.696 18.7906L159.695 18.7915L159.873 18.9665ZM157.445 20.585L157.54 20.8164L157.541 20.8158L157.445 20.585ZM151.137 20.585L151.041 20.8158L151.043 20.8164L151.137 20.585ZM148.699 18.9665L148.877 18.7906L148.877 18.7906L148.699 18.9665ZM147.122 16.5284L146.889 16.6192L146.89 16.6206L147.122 16.5284ZM147.122 10.4175L146.89 10.3252L146.89 10.3261L147.122 10.4175ZM148.699 7.97937L148.522 7.8035L148.522 7.8035L148.699 7.97937ZM151.137 6.37125L151.232 6.60267L151.233 6.60207L151.137 6.37125ZM157.445 6.37125L157.349 6.60207L157.351 6.60266L157.445 6.37125ZM159.873 7.98975L159.694 8.16382L159.696 8.16563L159.873 7.98975ZM161.44 10.4279L161.207 10.5187L161.208 10.5207L161.44 10.4279ZM158.504 11.3512L158.266 11.4295L158.267 11.4303L158.504 11.3512ZM157.601 9.7535L157.413 9.91815L157.416 9.92123L157.601 9.7535ZM156.18 8.74712L156.082 8.97723L156.085 8.97865L156.18 8.74712ZM152.393 8.74712L152.487 8.97866L152.49 8.97764L152.393 8.74712ZM150.961 9.7535L150.774 9.58723L150.774 9.58741L150.961 9.7535ZM150.069 11.3512L150.306 11.4303L150.306 11.4295L150.069 11.3512ZM150.069 15.605L149.831 15.6833L149.832 15.6841L150.069 15.605ZM150.961 17.1924L150.774 17.3585L150.776 17.3601L150.961 17.1924ZM152.393 18.1987L152.296 18.4293L152.298 18.4303L152.393 18.1987ZM156.18 18.1987L156.275 18.4299L156.276 18.4293L156.18 18.1987ZM157.601 17.1924L157.416 17.0246L157.414 17.0263L157.601 17.1924ZM158.504 15.605L158.741 15.6841L158.741 15.6833L158.504 15.605ZM161.75 13.4677C161.75 14.5387 161.568 15.5273 161.207 16.4361L161.672 16.6206C162.058 15.6482 162.25 14.5963 162.25 13.4677H161.75ZM161.207 16.4376C160.852 17.348 160.348 18.1313 159.696 18.7906L160.051 19.1424C160.754 18.4322 161.294 17.5901 161.673 16.6192L161.207 16.4376ZM159.695 18.7915C159.049 19.4507 158.268 19.9719 157.349 20.3542L157.541 20.8158C158.518 20.4096 159.356 19.8518 160.052 19.1415L159.695 18.7915ZM157.351 20.3536C156.437 20.7272 155.418 20.916 154.291 20.916V21.416C155.475 21.416 156.559 21.2175 157.54 20.8164L157.351 20.3536ZM154.291 20.916C153.165 20.916 152.146 20.7272 151.232 20.3536L151.043 20.8164C152.024 21.2175 153.108 21.416 154.291 21.416V20.916ZM151.233 20.3542C150.314 19.9718 149.53 19.4503 148.877 18.7906L148.522 19.1424C149.224 19.8522 150.065 20.4097 151.041 20.8158L151.233 20.3542ZM148.877 18.7906C148.224 18.131 147.716 17.3471 147.355 16.4361L146.89 16.6206C147.275 17.591 147.819 18.4325 148.522 19.1424L148.877 18.7906ZM147.355 16.4376C147.001 15.5284 146.822 14.5392 146.822 13.4677H146.322C146.322 14.5958 146.511 15.6471 146.889 16.6192L147.355 16.4376ZM146.822 13.4677C146.822 12.3962 147.001 11.4108 147.355 10.5089L146.89 10.3261C146.511 11.2917 146.322 12.3398 146.322 13.4677H146.822ZM147.355 10.5098C147.716 9.59875 148.224 8.81489 148.877 8.15525L148.522 7.8035C147.819 8.51336 147.275 9.35491 146.89 10.3252L147.355 10.5098ZM148.877 8.15525C149.53 7.49589 150.314 6.97807 151.232 6.60266L151.043 6.13984C150.066 6.53909 149.225 7.09336 148.522 7.8035L148.877 8.15525ZM151.233 6.60207C152.147 6.22197 153.165 6.02987 154.291 6.02987V5.52987C153.108 5.52987 152.023 5.73202 151.041 6.14043L151.233 6.60207ZM154.291 6.02987C155.418 6.02987 156.436 6.22197 157.349 6.60207L157.541 6.14043C156.56 5.73202 155.475 5.52987 154.291 5.52987V6.02987ZM157.351 6.60266C158.269 6.97777 159.048 7.49844 159.694 8.16381L160.053 7.81568C159.356 7.09773 158.518 6.5394 157.54 6.13984L157.351 6.60266ZM159.696 8.16563C160.348 8.82493 160.852 9.60828 161.207 10.5187L161.673 10.3371C161.294 9.36614 160.754 8.52407 160.051 7.81387L159.696 8.16563ZM161.208 10.5207C161.568 11.4225 161.75 12.4039 161.75 13.4677H162.25C162.25 12.3459 162.058 11.3008 161.672 10.335L161.208 10.5207ZM159.065 13.4677C159.065 12.6576 158.958 11.9247 158.741 11.2722L158.267 11.4303C158.464 12.0228 158.565 12.7009 158.565 13.4677H159.065ZM158.741 11.273C158.524 10.6147 158.207 10.0505 157.786 9.58577L157.416 9.92123C157.784 10.328 158.068 10.829 158.266 11.4295L158.741 11.273ZM157.789 9.58887C157.375 9.11605 156.869 8.75811 156.274 8.5156L156.085 8.97865C156.611 9.19264 157.052 9.50561 157.413 9.91813L157.789 9.58887ZM156.277 8.51704C155.688 8.26666 155.025 8.14437 154.291 8.14437V8.64437C154.969 8.64437 155.564 8.75726 156.082 8.97721L156.277 8.51704ZM154.291 8.14437C153.558 8.14437 152.891 8.26668 152.296 8.51661L152.49 8.97764C153.015 8.75724 153.614 8.64437 154.291 8.64437V8.14437ZM152.298 8.5156C151.704 8.75795 151.195 9.11544 150.774 9.58723L151.148 9.91977C151.516 9.50623 151.961 9.19279 152.487 8.97865L152.298 8.5156ZM150.774 9.58741C150.361 10.0519 150.048 10.6156 149.831 11.273L150.306 11.4295C150.505 10.8281 150.786 10.3266 151.148 9.91959L150.774 9.58741ZM149.832 11.2722C149.614 11.9247 149.508 12.6576 149.508 13.4677H150.008C150.008 12.7009 150.108 12.0228 150.306 11.4303L149.832 11.2722ZM149.508 13.4677C149.508 14.2846 149.614 15.0241 149.831 15.6833L150.306 15.5267C150.109 14.927 150.008 14.2417 150.008 13.4677H149.508ZM149.832 15.6841C150.048 16.3346 150.362 16.8944 150.774 17.3585L151.148 17.0263C150.786 16.6188 150.504 16.1204 150.306 15.5259L149.832 15.6841ZM150.776 17.3601C151.195 17.824 151.703 18.1804 152.296 18.4293L152.49 17.9682C151.962 17.7468 151.515 17.4323 151.146 17.0246L150.776 17.3601ZM152.298 18.4303C152.893 18.6726 153.559 18.7911 154.291 18.7911V18.2911C153.613 18.2911 153.013 18.1814 152.487 17.9672L152.298 18.4303ZM154.291 18.7911C155.024 18.7911 155.687 18.6726 156.275 18.4299L156.084 17.9676C155.566 18.1814 154.97 18.2911 154.291 18.2911V18.7911ZM156.276 18.4293C156.87 18.1803 157.375 17.8233 157.788 17.3585L157.414 17.0263C157.053 17.4329 156.61 17.7469 156.083 17.9682L156.276 18.4293ZM157.786 17.3601C158.206 16.8959 158.524 16.3355 158.741 15.6841L158.267 15.5259C158.069 16.1195 157.784 16.6174 157.416 17.0246L157.786 17.3601ZM158.741 15.6833C158.958 15.0241 159.065 14.2846 159.065 13.4677H158.565C158.565 14.2417 158.464 14.927 158.266 15.5267L158.741 15.6833ZM183.766 5.94587L184.004 6.01993L184.105 5.69587H183.766V5.94587ZM179.097 21V21.25H179.281L179.336 21.0741L179.097 21ZM176.285 21L176.047 21.0747L176.102 21.25H176.285V21ZM173.204 11.1541L173.443 11.0794L173.44 11.0715L173.204 11.1541ZM173.059 10.6976L172.819 10.7676L172.819 10.7676L173.059 10.6976ZM172.924 10.1685L173.168 10.1143L172.68 10.1143L172.924 10.1685ZM172.789 10.6976L172.549 10.6276L172.549 10.6276L172.789 10.6976ZM172.644 11.1541L172.408 11.0715L172.405 11.0788L172.644 11.1541ZM169.531 21V21.25H169.714L169.77 21.0754L169.531 21ZM166.709 21L166.47 21.0739L166.525 21.25H166.709V21ZM162.051 5.94587V5.69587H161.712L161.812 6.01978L162.051 5.94587ZM165.34 6.13262L165.197 6.3382L165.201 6.34064L165.34 6.13262ZM165.703 6.63062L165.461 6.69504L165.462 6.69693L165.703 6.63062ZM168.037 15.1174L168.281 15.0601L168.278 15.0511L168.037 15.1174ZM168.203 15.8851L167.958 15.9342L167.96 15.9413L168.203 15.8851ZM168.38 16.7462L168.134 16.791L168.625 16.7953L168.38 16.7462ZM168.577 15.8747L168.819 15.9368L168.819 15.9368L168.577 15.8747ZM168.805 15.1174L169.041 15.2006L169.043 15.1936L168.805 15.1174ZM171.523 6.63062L171.761 6.70688L171.761 6.70682L171.523 6.63062ZM171.876 6.16375L172.028 6.36191L172.029 6.36109L171.876 6.16375ZM174.117 6.143L173.962 6.33921L173.971 6.34588L174.117 6.143ZM174.501 6.63062L174.739 6.55463L174.736 6.54468L174.732 6.53504L174.501 6.63062ZM177.209 15.1174L176.97 15.1935L176.975 15.2052L177.209 15.1174ZM177.437 15.8436L177.195 15.9072L177.196 15.9089L177.437 15.8436ZM177.634 16.6632L177.39 16.7156L177.88 16.71L177.634 16.6632ZM177.79 15.8436L177.545 15.7921L177.544 15.7972L177.79 15.8436ZM177.956 15.1174L177.715 15.0511L177.713 15.0567L177.956 15.1174ZM180.29 6.63062L180.531 6.69693L180.531 6.69562L180.29 6.63062ZM180.643 6.15337L180.494 5.95248L180.494 5.95249L180.643 6.15337ZM183.527 5.87182L178.858 20.9259L179.336 21.0741L184.004 6.01993L183.527 5.87182ZM179.097 20.75H176.285V21.25H179.097V20.75ZM176.524 20.9253L173.443 11.0795L172.965 11.2288L176.047 21.0747L176.524 20.9253ZM173.44 11.0715C173.393 10.938 173.346 10.7901 173.299 10.6276L172.819 10.7676C172.868 10.9371 172.918 11.0936 172.968 11.2367L173.44 11.0715ZM173.299 10.6276C173.252 10.4673 173.208 10.2963 173.168 10.1143L172.68 10.2227C172.722 10.4142 172.769 10.5959 172.819 10.7676L173.299 10.6276ZM172.68 10.1143C172.639 10.2963 172.596 10.4673 172.549 10.6276L173.029 10.7676C173.079 10.5959 173.125 10.4142 173.168 10.2227L172.68 10.1143ZM172.549 10.6276C172.502 10.7901 172.454 10.938 172.408 11.0715L172.88 11.2367C172.93 11.0936 172.979 10.9371 173.029 10.7676L172.549 10.6276ZM172.405 11.0788L169.293 20.9246L169.77 21.0754L172.882 11.2295L172.405 11.0788ZM169.531 20.75H166.709V21.25H169.531V20.75ZM166.948 20.9261L162.29 5.87197L161.812 6.01978L166.47 21.0739L166.948 20.9261ZM162.051 6.19587H164.665V5.69587H162.051V6.19587ZM164.665 6.19587C164.896 6.19587 165.068 6.24876 165.197 6.33817L165.482 5.92708C165.251 5.76749 164.974 5.69587 164.665 5.69587V6.19587ZM165.201 6.34064C165.34 6.43305 165.422 6.54917 165.461 6.69504L165.944 6.56621C165.873 6.29708 165.713 6.0812 165.478 5.92461L165.201 6.34064ZM165.462 6.69693L167.796 15.1837L168.278 15.0511L165.944 6.56432L165.462 6.69693ZM167.794 15.1746C167.848 15.4067 167.903 15.6598 167.958 15.9342L168.448 15.8361C168.393 15.5571 168.337 15.2984 168.281 15.0601L167.794 15.1746ZM167.96 15.9413C168.021 16.2069 168.079 16.49 168.134 16.791L168.626 16.7015C168.57 16.3938 168.51 16.1029 168.447 15.8289L167.96 15.9413ZM168.625 16.7953C168.686 16.4878 168.751 16.2017 168.819 15.9368L168.335 15.8127C168.264 16.0873 168.197 16.3822 168.134 16.6972L168.625 16.7953ZM168.819 15.9368C168.886 15.6734 168.96 15.4281 169.041 15.2006L168.569 15.0342C168.483 15.277 168.405 15.5366 168.335 15.8127L168.819 15.9368ZM169.043 15.1936L171.761 6.70688L171.285 6.55437L168.567 15.0411L169.043 15.1936ZM171.761 6.70682C171.798 6.5932 171.879 6.47703 172.028 6.36191L171.723 5.96559C171.513 6.12714 171.359 6.32221 171.285 6.55443L171.761 6.70682ZM172.029 6.36109C172.167 6.25377 172.337 6.19587 172.55 6.19587V5.69587C172.238 5.69587 171.958 5.78323 171.722 5.96641L172.029 6.36109ZM172.55 6.19587H173.463V5.69587H172.55V6.19587ZM173.463 6.19587C173.692 6.19587 173.851 6.25118 173.962 6.33901L174.272 5.94699C174.051 5.77198 173.774 5.69587 173.463 5.69587V6.19587ZM173.971 6.34588C174.105 6.44268 174.204 6.56775 174.27 6.72621L174.732 6.53504C174.631 6.29234 174.474 6.09232 174.263 5.94012L173.971 6.34588ZM174.263 6.70662L176.97 15.1934L177.447 15.0414L174.739 6.55463L174.263 6.70662ZM176.975 15.2052C177.054 15.4175 177.128 15.6514 177.195 15.9072L177.679 15.78C177.608 15.5102 177.529 15.2599 177.443 15.0296L176.975 15.2052ZM177.196 15.9089C177.263 16.16 177.328 16.4289 177.39 16.7156L177.878 16.6109C177.815 16.3166 177.749 16.039 177.678 15.7784L177.196 15.9089ZM177.88 16.71C177.935 16.4194 177.987 16.1461 178.035 15.8901L177.544 15.7972C177.496 16.053 177.444 16.3261 177.388 16.6165L177.88 16.71ZM178.034 15.8951C178.089 15.6348 178.144 15.3958 178.198 15.178L177.713 15.0567C177.657 15.2816 177.601 15.5268 177.545 15.7921L178.034 15.8951ZM178.197 15.1837L180.531 6.69693L180.049 6.56432L177.715 15.0511L178.197 15.1837ZM180.531 6.69562C180.562 6.58259 180.639 6.46754 180.792 6.35426L180.494 5.95249C180.273 6.11587 180.115 6.31899 180.049 6.56563L180.531 6.69562ZM180.792 6.35426C180.93 6.25193 181.101 6.19587 181.317 6.19587V5.69587C181.008 5.69587 180.729 5.77815 180.494 5.95248L180.792 6.35426ZM181.317 6.19587H183.766V5.69587H181.317V6.19587ZM193.017 8.83012L193.23 8.96011L193.234 8.95333L193.238 8.9463L193.017 8.83012ZM192.716 9.18287L192.861 9.38632L192.864 9.38448L192.716 9.18287ZM191.834 9.131L191.699 9.34179L191.709 9.34755L191.834 9.131ZM191.222 8.77825L191.339 8.5573L191.339 8.5573L191.222 8.77825ZM190.412 8.43587L190.327 8.67087L190.332 8.6725L190.412 8.43587ZM187.725 8.7575L187.891 8.94476L187.893 8.94297L187.725 8.7575ZM187.476 10.8429L187.288 11.0076L187.294 11.0137L187.476 10.8429ZM188.254 11.4031L188.143 11.6267L188.145 11.6277L188.254 11.4031ZM190.61 12.2435L190.526 12.4791L190.529 12.4803L190.61 12.2435ZM192.954 13.5196L192.782 13.7003L192.783 13.7021L192.954 13.5196ZM193.732 14.6401L193.503 14.7403L193.505 14.7447L193.732 14.6401ZM193.67 18.1676L193.438 18.0743L193.438 18.0757L193.67 18.1676ZM192.643 19.7342L192.819 19.9124L192.82 19.911L192.643 19.7342ZM190.973 20.7821L190.883 20.5488L190.882 20.5492L190.973 20.7821ZM187.3 21.0208L187.25 21.2656L187.25 21.2658L187.3 21.0208ZM185.93 20.6161L185.838 20.8485L185.84 20.849L185.93 20.6161ZM184.696 19.9936L184.828 19.7816L184.828 19.7816L184.696 19.9936ZM183.679 19.1844L183.467 19.0527L183.364 19.219L183.5 19.3591L183.679 19.1844ZM184.592 17.7111L184.386 17.5693L184.38 17.5794L184.592 17.7111ZM184.893 17.4414L185.014 17.6601L185.023 17.6547L184.893 17.4414ZM185.879 17.5347L186.017 17.3267L186.017 17.3267L185.879 17.5347ZM186.594 17.9912L186.726 17.7783L186.726 17.7783L186.594 17.9912ZM187.528 18.4477L187.437 18.6805L187.438 18.6811L187.528 18.4477ZM190.495 18.1572L190.336 17.9646L190.334 17.966L190.495 18.1572ZM190.796 15.7502L190.603 15.9092L190.606 15.9125L190.796 15.7502ZM188.939 14.7542L188.87 14.9945L188.874 14.9955L188.939 14.7542ZM187.684 14.3704L187.761 14.1324L187.761 14.1324L187.684 14.3704ZM186.428 13.8724L186.321 14.0982L186.321 14.0982L186.428 13.8724ZM184.561 11.9219L184.33 12.0171L184.331 12.0199L184.561 11.9219ZM184.602 8.53962L184.372 8.44261L184.372 8.44261L184.602 8.53962ZM187.155 6.15337L187.063 5.9209L187.062 5.92125L187.155 6.15337ZM191.823 6.20525L191.737 6.43978L191.739 6.44068L191.823 6.20525ZM193.784 7.36725L194.006 7.48343L194.094 7.31475L193.955 7.18464L193.784 7.36725ZM192.803 8.70014C192.716 8.84275 192.636 8.93114 192.568 8.98127L192.864 9.38448C193.003 9.28244 193.123 9.13566 193.23 8.96011L192.803 8.70014ZM192.57 8.97944C192.528 9.00961 192.456 9.03662 192.332 9.03662V9.53662C192.526 9.53662 192.71 9.49447 192.861 9.38631L192.57 8.97944ZM192.332 9.03662C192.237 9.03662 192.114 9.00394 191.959 8.91445L191.709 9.34755C191.913 9.46555 192.123 9.53662 192.332 9.53662V9.03662ZM191.969 8.92043C191.789 8.80517 191.578 8.68413 191.339 8.5573L191.105 8.9992C191.336 9.12137 191.533 9.2355 191.699 9.34157L191.969 8.92043ZM191.339 8.5573C191.09 8.42551 190.807 8.30641 190.493 8.19925L190.332 8.6725C190.626 8.77284 190.883 8.88199 191.105 8.9992L191.339 8.5573ZM190.498 8.20093C190.16 8.07809 189.774 8.01987 189.344 8.01987V8.51987C189.73 8.51987 190.056 8.57232 190.327 8.67082L190.498 8.20093ZM189.344 8.01987C188.592 8.01987 187.981 8.18925 187.558 8.57203L187.893 8.94297C188.189 8.67558 188.657 8.51987 189.344 8.51987V8.01987ZM187.56 8.57025C187.142 8.94 186.936 9.42898 186.936 10.0129H187.436C187.436 9.55926 187.59 9.21133 187.891 8.94475L187.56 8.57025ZM186.936 10.0129C186.936 10.3971 187.049 10.7347 187.288 11.0075L187.664 10.6782C187.516 10.5084 187.436 10.2927 187.436 10.0129H186.936ZM187.294 11.0137C187.518 11.2538 187.803 11.4571 188.143 11.6267L188.366 11.1795C188.069 11.031 187.835 10.8608 187.659 10.6721L187.294 11.0137ZM188.145 11.6277C188.483 11.7935 188.863 11.9399 189.281 12.0676L189.427 11.5894C189.03 11.4681 188.676 11.3309 188.364 11.1786L188.145 11.6277ZM189.281 12.0676C189.686 12.191 190.1 12.3281 190.526 12.4791L190.693 12.0079C190.261 11.8546 189.839 11.715 189.427 11.5894L189.281 12.0676ZM190.529 12.4803C190.948 12.622 191.356 12.7908 191.755 12.9866L191.975 12.5379C191.557 12.3325 191.129 12.1555 190.69 12.0067L190.529 12.4803ZM191.755 12.9866C192.141 13.1763 192.482 13.4142 192.782 13.7003L193.127 13.339C192.79 13.0164 192.406 12.7494 191.975 12.5379L191.755 12.9866ZM192.783 13.7021C193.082 13.9814 193.322 14.3261 193.503 14.7403L193.962 14.5399C193.755 14.0688 193.477 13.6666 193.125 13.3371L192.783 13.7021ZM193.505 14.7447C193.687 15.1391 193.783 15.6338 193.783 16.2379H194.283C194.283 15.5831 194.179 15.0127 193.96 14.5356L193.505 14.7447ZM193.783 16.2379C193.783 16.8925 193.668 17.5039 193.438 18.0743L193.902 18.2609C194.157 17.6279 194.283 16.9528 194.283 16.2379H193.783ZM193.438 18.0757C193.215 18.6389 192.892 19.1322 192.466 19.5575L192.82 19.911C193.294 19.4371 193.655 18.886 193.903 18.2595L193.438 18.0757ZM192.468 19.5561C192.045 19.9718 191.519 20.3037 190.883 20.5489L191.063 21.0154C191.755 20.7487 192.342 20.382 192.819 19.9124L192.468 19.5561ZM190.882 20.5492C190.259 20.7919 189.543 20.916 188.732 20.916V21.416C189.594 21.416 190.373 21.2842 191.063 21.0151L190.882 20.5492ZM188.732 20.916C188.272 20.916 187.811 20.8693 187.35 20.7757L187.25 21.2658C187.744 21.3658 188.237 21.416 188.732 21.416V20.916ZM187.35 20.7759C186.894 20.6819 186.451 20.551 186.021 20.3833L185.84 20.849C186.295 21.0271 186.766 21.166 187.25 21.2656L187.35 20.7759ZM186.023 20.3838C185.601 20.2163 185.203 20.0155 184.828 19.7816L184.563 20.2056C184.964 20.4559 185.389 20.6702 185.838 20.8485L186.023 20.3838ZM184.828 19.7816C184.456 19.5491 184.133 19.2915 183.858 19.0097L183.5 19.3591C183.806 19.672 184.161 19.954 184.563 20.2056L184.828 19.7816ZM183.892 19.3161L184.805 17.8428L184.38 17.5794L183.467 19.0527L183.892 19.3161ZM184.798 17.8528C184.851 17.7758 184.922 17.7115 185.014 17.6599L184.772 17.2228C184.615 17.3096 184.485 17.4251 184.386 17.5695L184.798 17.8528ZM185.023 17.6547C185.111 17.6012 185.197 17.5772 185.287 17.5772V17.0772C185.1 17.0772 184.924 17.1294 184.763 17.2281L185.023 17.6547ZM185.287 17.5772C185.411 17.5772 185.56 17.6228 185.74 17.7428L186.017 17.3267C185.782 17.17 185.537 17.0772 185.287 17.0772V17.5772ZM185.74 17.7428C185.951 17.8832 186.192 18.037 186.463 18.2042L186.726 17.7783C186.458 17.6135 186.222 17.463 186.017 17.3267L185.74 17.7428ZM186.463 18.2042C186.748 18.3793 187.073 18.5378 187.437 18.6805L187.619 18.215C187.278 18.0811 186.98 17.9352 186.726 17.7783L186.463 18.2042ZM187.438 18.6811C187.834 18.8331 188.295 18.9052 188.815 18.9052V18.4052C188.339 18.4052 187.942 18.339 187.618 18.2144L187.438 18.6811ZM188.815 18.9052C189.576 18.9052 190.202 18.7314 190.657 18.3485L190.334 17.966C190.001 18.2471 189.506 18.4052 188.815 18.4052V18.9052ZM190.655 18.3498C191.128 17.9583 191.347 17.384 191.347 16.6736H190.847C190.847 17.2774 190.665 17.6922 190.336 17.9647L190.655 18.3498ZM191.347 16.6736C191.347 16.248 191.234 15.8782 190.987 15.588L190.606 15.9125C190.76 16.0926 190.847 16.3384 190.847 16.6736H191.347ZM190.989 15.5913C190.77 15.325 190.485 15.1074 190.14 14.9353L189.917 15.3825C190.209 15.5285 190.435 15.7052 190.603 15.9092L190.989 15.5913ZM190.14 14.9353C189.805 14.7675 189.426 14.6272 189.005 14.513L188.874 14.9955C189.269 15.1026 189.616 15.232 189.917 15.3825L190.14 14.9353ZM189.008 14.514C188.603 14.3972 188.187 14.27 187.761 14.1324L187.607 14.6083C188.038 14.7474 188.459 14.8761 188.87 14.9945L189.008 14.514ZM187.761 14.1324C187.342 13.9975 186.934 13.8355 186.536 13.6465L186.321 14.0982C186.739 14.2966 187.168 14.4666 187.607 14.6083L187.761 14.1324ZM186.536 13.6465C186.153 13.4651 185.814 13.2257 185.516 12.9278L185.162 13.2814C185.501 13.6199 185.887 13.8924 186.321 14.0982L186.536 13.6465ZM185.516 12.9278C185.223 12.6351 184.981 12.2687 184.791 11.8238L184.331 12.0199C184.542 12.5157 184.819 12.9378 185.162 13.2814L185.516 12.9278ZM184.792 11.8267C184.615 11.3956 184.52 10.8458 184.52 10.1685H184.02C184.02 10.8883 184.12 11.5075 184.33 12.0171L184.792 11.8267ZM184.52 10.1685C184.52 9.64218 184.624 9.13216 184.833 8.63664L184.372 8.44261C184.138 8.99842 184.02 9.57432 184.02 10.1685H184.52ZM184.833 8.63664C185.04 8.14391 185.345 7.70537 185.75 7.3201L185.405 6.9579C184.953 7.38879 184.607 7.88401 184.372 8.44261L184.833 8.63664ZM185.75 7.3201C186.153 6.93663 186.651 6.62425 187.248 6.38549L187.062 5.92125C186.414 6.1805 185.86 6.5252 185.405 6.9579L185.75 7.3201ZM187.247 6.38584C187.842 6.15045 188.529 6.02987 189.313 6.02987V5.52987C188.478 5.52987 187.727 5.6583 187.063 5.9209L187.247 6.38584ZM189.313 6.02987C190.192 6.02987 191 6.16746 191.737 6.43976L191.91 5.97074C191.112 5.67587 190.245 5.52987 189.313 5.52987V6.02987ZM191.739 6.44068C192.486 6.70733 193.109 7.07802 193.614 7.54986L193.955 7.18464C193.395 6.66048 192.71 6.25651 191.908 5.96981L191.739 6.44068ZM193.563 7.25107L192.795 8.71395L193.238 8.9463L194.006 7.48343L193.563 7.25107ZM198.988 12.1605H198.738V12.4105H198.988V12.1605ZM200.71 11.6832L200.51 11.5335L200.507 11.5375L200.71 11.6832ZM204.518 6.58912L204.718 6.7388L204.719 6.73821L204.518 6.58912ZM205.109 6.09112L205.206 6.32176L205.212 6.31897L205.109 6.09112ZM208.595 5.94587L208.793 6.0992L209.106 5.69587H208.595V5.94587ZM203.802 12.119L203.605 11.9657L203.605 11.9658L203.802 12.119ZM202.837 12.9801L202.722 12.7584L202.239 13.01L202.744 13.2122L202.837 12.9801ZM203.491 13.364L203.332 13.5572L203.336 13.5606L203.491 13.364ZM204.051 13.9761L204.256 13.8327L204.256 13.8324L204.051 13.9761ZM208.969 21V21.25H209.449L209.174 20.8566L208.969 21ZM205.732 20.9585L205.678 21.2026L205.68 21.2031L205.732 20.9585ZM205.4 20.8444L205.288 21.068L205.288 21.068L205.4 20.8444ZM205.151 20.668L204.966 20.8364L204.974 20.8448L205.151 20.668ZM204.954 20.4086L205.164 20.2733L205.157 20.2633L204.954 20.4086ZM201.084 14.9929L200.879 15.1368L200.88 15.1382L201.084 14.9929ZM200.617 14.5986L200.512 14.8257L200.52 14.8289L200.617 14.5986ZM198.988 14.4741V14.2241H198.738V14.4741H198.988ZM198.988 21V21.25H199.238V21H198.988ZM195.876 21H195.626V21.25H195.876V21ZM195.876 5.94587V5.69587H195.626V5.94587H195.876ZM198.988 5.94587H199.238V5.69587H198.988V5.94587ZM198.988 12.4105H199.6V11.9105H198.988V12.4105ZM199.6 12.4105C200.165 12.4105 200.624 12.232 200.913 11.829L200.507 11.5375C200.34 11.7709 200.059 11.9105 199.6 11.9105V12.4105ZM200.911 11.8329L204.718 6.7388L204.318 6.43945L200.51 11.5336L200.911 11.8329ZM204.719 6.73821C204.879 6.52166 205.043 6.38983 205.206 6.32167L205.013 5.86058C204.746 5.97226 204.516 6.17243 204.317 6.44004L204.719 6.73821ZM205.212 6.31897C205.386 6.24065 205.611 6.19587 205.898 6.19587V5.69587C205.562 5.69587 205.262 5.74794 205.006 5.86328L205.212 6.31897ZM205.898 6.19587H208.595V5.69587H205.898V6.19587ZM208.398 5.79255L203.605 11.9657L204 12.2723L208.793 6.0992L208.398 5.79255ZM203.605 11.9658C203.308 12.348 203.012 12.6069 202.722 12.7584L202.953 13.2019C203.326 13.0075 203.674 12.6923 204 12.2722L203.605 11.9658ZM202.744 13.2122C202.964 13.2999 203.159 13.415 203.332 13.5572L203.65 13.1708C203.435 12.9948 203.195 12.854 202.93 12.748L202.744 13.2122ZM203.336 13.5606C203.506 13.6942 203.677 13.8788 203.847 14.1199L204.256 13.8324C204.065 13.5616 203.862 13.3381 203.645 13.1674L203.336 13.5606ZM203.846 14.1195L208.764 21.1434L209.174 20.8566L204.256 13.8327L203.846 14.1195ZM208.969 20.75H206.199V21.25H208.969V20.75ZM206.199 20.75C206.031 20.75 205.893 20.737 205.783 20.7139L205.68 21.2031C205.833 21.2353 206.007 21.25 206.199 21.25V20.75ZM205.786 20.7145C205.678 20.6905 205.587 20.6586 205.512 20.6208L205.288 21.068C205.406 21.127 205.537 21.1712 205.678 21.2025L205.786 20.7145ZM205.512 20.6208C205.436 20.5831 205.376 20.5395 205.328 20.4912L204.974 20.8448C205.064 20.9349 205.17 21.0088 205.288 21.068L205.512 20.6208ZM205.336 20.4998C205.277 20.4352 205.22 20.36 205.164 20.2734L204.743 20.5438C204.812 20.651 204.886 20.7487 204.966 20.8362L205.336 20.4998ZM205.157 20.2633L201.287 14.8475L200.88 15.1382L204.75 20.554L205.157 20.2633ZM201.288 14.849C201.135 14.6306 200.944 14.4656 200.714 14.3684L200.52 14.8289C200.649 14.8838 200.77 14.9816 200.879 15.1367L201.288 14.849ZM200.722 14.3716C200.495 14.2668 200.2 14.2241 199.86 14.2241V14.7241C200.169 14.7241 200.38 14.7645 200.512 14.8256L200.722 14.3716ZM199.86 14.2241H198.988V14.7241H199.86V14.2241ZM198.738 14.4741V21H199.238V14.4741H198.738ZM198.988 20.75H195.876V21.25H198.988V20.75ZM196.126 21V5.94587H195.626V21H196.126ZM195.876 6.19587H198.988V5.69587H195.876V6.19587ZM198.738 5.94587V12.1605H199.238V5.94587H198.738ZM213.022 21V21.25H213.272V21H213.022ZM209.888 21H209.638V21.25H209.888V21ZM209.888 5.94587V5.69587H209.638V5.94587H209.888ZM213.022 5.94587H213.272V5.69587H213.022V5.94587ZM213.022 20.75H209.888V21.25H213.022V20.75ZM210.138 21V5.94587H209.638V21H210.138ZM209.888 6.19587H213.022V5.69587H209.888V6.19587ZM212.772 5.94587V21H213.272V5.94587H212.772Z" fill="#F5F4F2" mask="url(#path-2-outside-1_5840_6603)"/>
<path fill-rule="evenodd" clip-rule="evenodd" d="M34.9995 3.00049H4.88232H3V4.88281V10.5297V12.412V12.4121H4.88232V12.412H25.5882V21.8238L25.5896 21.8238C25.5896 23.903 23.9041 25.5884 21.825 25.5884H21.8239V27.4706H21.8245C24.9151 27.4706 27.4258 24.9878 27.4709 21.9079V21.8237H27.4705V11.471H27.4702V10.5297H4.88232V4.88281H34.9995V3.00049ZM4.88232 33.1175H21.8232V34.9998H3V33.1177V33.1175V21.8238H4.88232V33.1175ZM21.8233 25.5883H10.5294V21.8237H8.64705V25.5883V27.4707V27.4707H10.5294V27.4707H21.8233V25.5883ZM34.999 4.88294H33.1167V21.8238H33.1173C33.1173 28.0611 28.0611 33.1175 21.8239 33.1177V35H21.9046C29.1441 34.9561 34.9992 29.0738 34.9992 21.824V21.8237H34.999V4.88294Z" fill="#FEFDFB"/>
</svg>
